  0
SECTION
  2
HEADER
  9
$ACADVER
  1
AC1027
  9
$ACADMAINTVER
 70
   125
  9
$DWGCODEPAGE
  3
ANSI_1252
  9
$LASTSAVEDBY
  1
jaswalh
  9
$REQUIREDVERSIONS
160
                 0
  9
$INSBASE
 10
0.0
 20
0.0
 30
0.0
  9
$EXTMIN
 10
0.0
 20
0.0
 30
0.0
  9
$EXTMAX
 10
1189.0
 20
841.0
 30
0.0
  9
$LIMMIN
 10
0.0
 20
0.0
  9
$LIMMAX
 10
1189.0
 20
841.0
  9
$ORTHOMODE
 70
     0
  9
$REGENMODE
 70
     1
  9
$FILLMODE
 70
     1
  9
$QTEXTMODE
 70
     0
  9
$MIRRTEXT
 70
     0
  9
$LTSCALE
 40
0.75
  9
$ATTMODE
 70
     1
  9
$TEXTSIZE
 40
3.5
  9
$TRACEWID
 40
1.0
  9
$TEXTSTYLE
  7
Standard
  9
$CLAYER
  8
0
  9
$CELTYPE
  6
ByLayer
  9
$CECOLOR
 62
   256
  9
$CELTSCALE
 40
1.0
  9
$DISPSILH
 70
     0
  9
$DIMSCALE
 40
1.0
  9
$DIMASZ
 40
3.5
  9
$DIMEXO
 40
2.1
  9
$DIMDLI
 40
10.5
  9
$DIMRND
 40
0.0
  9
$DIMDLE
 40
0.0
  9
$DIMEXE
 40
2.1
  9
$DIMTP
 40
0.1
  9
$DIMTM
 40
0.1
  9
$DIMTXT
 40
3.5
  9
$DIMCEN
 40
0.0
  9
$DIMTSZ
 40
0.0
  9
$DIMTOL
 70
     0
  9
$DIMLIM
 70
     0
  9
$DIMTIH
 70
     0
  9
$DIMTOH
 70
     0
  9
$DIMSE1
 70
     0
  9
$DIMSE2
 70
     0
  9
$DIMTAD
 70
     1
  9
$DIMZIN
 70
    12
  9
$DIMBLK
  1

  9
$DIMASO
 70
     1
  9
$DIMSHO
 70
     1
  9
$DIMPOST
  1

  9
$DIMAPOST
  1

  9
$DIMALT
 70
     0
  9
$DIMALTD
 70
     2
  9
$DIMALTF
 40
0.03937
  9
$DIMLFAC
 40
1.0
  9
$DIMTOFL
 70
     1
  9
$DIMTVP
 40
0.0
  9
$DIMTIX
 70
     0
  9
$DIMSOXD
 70
     0
  9
$DIMSAH
 70
     0
  9
$DIMBLK1
  1

  9
$DIMBLK2
  1

  9
$DIMSTYLE
  2
Dim-ISO-25
  9
$DIMCLRD
 70
     0
  9
$DIMCLRE
 70
     0
  9
$DIMCLRT
 70
     0
  9
$DIMTFAC
 40
0.714286
  9
$DIMGAP
 40
1.4
  9
$DIMJUST
 70
     0
  9
$DIMSD1
 70
     0
  9
$DIMSD2
 70
     0
  9
$DIMTOLJ
 70
     0
  9
$DIMTZIN
 70
    12
  9
$DIMALTZ
 70
    12
  9
$DIMALTTZ
 70
    12
  9
$DIMUPT
 70
     0
  9
$DIMDEC
 70
     2
  9
$DIMTDEC
 70
     2
  9
$DIMALTU
 70
     2
  9
$DIMALTTD
 70
     2
  9
$DIMTXSTY
  7
Standard
  9
$DIMAUNIT
 70
     0
  9
$DIMADEC
 70
     2
  9
$DIMALTRND
 40
0.0
  9
$DIMAZIN
 70
     3
  9
$DIMDSEP
 70
    46
  9
$DIMATFIT
 70
     3
  9
$DIMFRAC
 70
     0
  9
$DIMLDRBLK
  1

  9
$DIMLUNIT
 70
     2
  9
$DIMLWD
 70
    -2
  9
$DIMLWE
 70
    -2
  9
$DIMTMOVE
 70
     0
  9
$DIMFXL
 40
1.0
  9
$DIMFXLON
 70
     0
  9
$DIMJOGANG
 40
0.785398
  9
$DIMTFILL
 70
     0
  9
$DIMTFILLCLR
 70
     0
  9
$DIMARCSYM
 70
     0
  9
$DIMLTYPE
  6

  9
$DIMLTEX1
  6

  9
$DIMLTEX2
  6

  9
$DIMTXTDIRECTION
 70
     0
  9
$LUNITS
 70
     2
  9
$LUPREC
 70
     4
  9
$SKETCHINC
 40
1.0
  9
$FILLETRAD
 40
0.0
  9
$AUNITS
 70
     0
  9
$AUPREC
 70
     0
  9
$MENU
  1
.
  9
$ELEVATION
 40
0.0
  9
$PELEVATION
 40
0.0
  9
$THICKNESS
 40
0.0
  9
$LIMCHECK
 70
     0
  9
$CHAMFERA
 40
0.0
  9
$CHAMFERB
 40
0.0
  9
$CHAMFERC
 40
0.0
  9
$CHAMFERD
 40
0.0
  9
$SKPOLY
 70
     0
  9
$TDCREATE
 40
2461029.480011574
  9
$TDUCREATE
 40
2461029.250844907
  9
$TDUPDATE
 40
2461029.480011574
  9
$TDUUPDATE
 40
2461029.250844907
  9
$TDINDWG
 40
0.0000000000
  9
$TDUSRTIMER
 40
0.0000000000
  9
$USRTIMER
 70
     1
  9
$ANGBASE
 50
0.0
  9
$ANGDIR
 70
     0
  9
$PDMODE
 70
     0
  9
$PDSIZE
 40
0.0
  9
$PLINEWID
 40
0.0
  9
$SPLFRAME
 70
     0
  9
$SPLINETYPE
 70
     6
  9
$SPLINESEGS
 70
     8
  9
$HANDSEED
  5
303
  9
$SURFTAB1
 70
     6
  9
$SURFTAB2
 70
     6
  9
$SURFTYPE
 70
     6
  9
$SURFU
 70
     6
  9
$SURFV
 70
     6
  9
$UCSBASE
  2

  9
$UCSNAME
  2

  9
$UCSORG
 10
0.0
 20
0.0
 30
0.0
  9
$UCSXDIR
 10
1.0
 20
0.0
 30
0.0
  9
$UCSYDIR
 10
0.0
 20
1.0
 30
0.0
  9
$UCSORTHOREF
  2

  9
$UCSORTHOVIEW
 70
     0
  9
$UCSORGTOP
 10
0.0
 20
0.0
 30
0.0
  9
$UCSORGBOTTOM
 10
0.0
 20
0.0
 30
0.0
  9
$UCSORGLEFT
 10
0.0
 20
0.0
 30
0.0
  9
$UCSORGRIGHT
 10
0.0
 20
0.0
 30
0.0
  9
$UCSORGFRONT
 10
0.0
 20
0.0
 30
0.0
  9
$UCSORGBACK
 10
0.0
 20
0.0
 30
0.0
  9
$PUCSBASE
  2

  9
$PUCSNAME
  2

  9
$PUCSORG
 10
0.0
 20
0.0
 30
0.0
  9
$PUCSXDIR
 10
1.0
 20
0.0
 30
0.0
  9
$PUCSYDIR
 10
0.0
 20
1.0
 30
0.0
  9
$PUCSORTHOREF
  2

  9
$PUCSORTHOVIEW
 70
     0
  9
$PUCSORGTOP
 10
0.0
 20
0.0
 30
0.0
  9
$PUCSORGBOTTOM
 10
0.0
 20
0.0
 30
0.0
  9
$PUCSORGLEFT
 10
0.0
 20
0.0
 30
0.0
  9
$PUCSORGRIGHT
 10
0.0
 20
0.0
 30
0.0
  9
$PUCSORGFRONT
 10
0.0
 20
0.0
 30
0.0
  9
$PUCSORGBACK
 10
0.0
 20
0.0
 30
0.0
  9
$USERI1
 70
     0
  9
$USERI2
 70
     0
  9
$USERI3
 70
     0
  9
$USERI4
 70
     0
  9
$USERI5
 70
     0
  9
$USERR1
 40
0.0
  9
$USERR2
 40
0.0
  9
$USERR3
 40
0.0
  9
$USERR4
 40
0.0
  9
$USERR5
 40
0.0
  9
$WORLDVIEW
 70
     1
  9
$SHADEDGE
 70
     3
  9
$SHADEDIF
 70
    70
  9
$TILEMODE
 70
     1
  9
$MAXACTVP
 70
    64
  9
$PINSBASE
 10
0.0
 20
0.0
 30
0.0
  9
$PLIMCHECK
 70
     0
  9
$PEXTMIN
 10
1.000000E+20
 20
1.000000E+20
 30
1.000000E+20
  9
$PEXTMAX
 10
-1.000000E+20
 20
-1.000000E+20
 30
-1.000000E+20
  9
$PLIMMIN
 10
0.0
 20
0.0
  9
$PLIMMAX
 10
12.0
 20
9.0
  9
$UNITMODE
 70
     0
  9
$VISRETAIN
 70
     1
  9
$PLINEGEN
 70
     0
  9
$PSLTSCALE
 70
     1
  9
$TREEDEPTH
 70
  3020
  9
$CMLSTYLE
  2
Standard
  9
$CMLJUST
 70
     0
  9
$CMLSCALE
 40
20.0
  9
$PROXYGRAPHICS
 70
     1
  9
$MEASUREMENT
 70
     1
  9
$CELWEIGHT
370
    -1
  9
$ENDCAPS
280
     0
  9
$JOINSTYLE
280
     0
  9
$LWDISPLAY
290
     0
  9
$INSUNITS
 70
     4
  9
$HYPERLINKBASE
  1

  9
$STYLESHEET
  1

  9
$XEDIT
290
     1
  9
$CEPSNTYPE
380
     0
  9
$PSTYLEMODE
290
     1
  9
$FINGERPRINTGUID
  2
{446C2C21-B86A-D847-81E9-7BFC104BCA51}
  9
$VERSIONGUID
  2
{BE161AA6-C4B1-D145-98C2-E5539AB936BC}
  9
$EXTNAMES
290
     1
  9
$PSVPSCALE
 40
0.0
  9
$OLESTARTUP
290
     0
  9
$SORTENTS
280
   127
  9
$INDEXCTL
280
     0
  9
$HIDETEXT
280
     1
  9
$XCLIPFRAME
280
     0
  9
$HALOGAP
280
     0
  9
$OBSCOLOR
 70
   257
  9
$OBSLTYPE
280
     0
  9
$INTERSECTIONDISPLAY
280
     0
  9
$INTERSECTIONCOLOR
 70
   257
  9
$DIMASSOC
280
     2
  9
$PROJECTNAME
  1

  9
$CAMERADISPLAY
290
     0
  9
$LENSLENGTH
 40
50.0
  9
$CAMERAHEIGHT
 40
0.0
  9
$STEPSPERSEC
 40
2.0
  9
$STEPSIZE
 40
6.0
  9
$3DDWFPREC
 40
2.0
  9
$PSOLWIDTH
 40
5.0
  9
$PSOLHEIGHT
 40
80.0
  9
$LOFTANG1
 40
1.570796
  9
$LOFTANG2
 40
1.570796
  9
$LOFTMAG1
 40
0.0
  9
$LOFTMAG2
 40
0.0
  9
$LOFTPARAM
 70
     7
  9
$LOFTNORMALS
280
     1
  9
$LATITUDE
 40
37.795
  9
$LONGITUDE
 40
-122.394
  9
$NORTHDIRECTION
 40
0.0
  9
$TIMEZONE
 70
 -8000
  9
$LIGHTGLYPHDISPLAY
280
     1
  9
$TILEMODELIGHTSYNCH
280
     1
  9
$CMATERIAL
347
11
  9
$SOLIDHIST
280
     0
  9
$SHOWHIST
280
     1
  9
$DWFFRAME
280
     2
  9
$DGNFRAME
280
     0
  9
$REALWORLDSCALE
290
     1
  9
$INTERFERECOLOR
 62
     1
  9
$INTERFEREOBJVS
345
33
  9
$INTERFEREVPVS
346
30
  9
$CSHADOW
280
     0
  9
$SHADOWPLANELOCATION
 40
0.0
  0
ENDSEC
  0
SECTION
  2
CLASSES
  0
CLASS
  1
ACDBDICTIONARYWDFLT
  2
AcDbDictionaryWithDefault
  3
ObjectDBX Classes
 90
        0
 91
        1
280
     0
281
     0
  0
CLASS
  1
MATERIAL
  2
AcDbMaterial
  3
ObjectDBX Classes
 90
     1153
 91
        3
280
     0
281
     0
  0
CLASS
  1
VISUALSTYLE
  2
AcDbVisualStyle
  3
ObjectDBX Classes
 90
     4095
 91
       24
280
     0
281
     0
  0
CLASS
  1
SCALE
  2
AcDbScale
  3
ObjectDBX Classes
 90
     1153
 91
       17
280
     0
281
     0
  0
CLASS
  1
TABLESTYLE
  2
AcDbTableStyle
  3
ObjectDBX Classes
 90
     4095
 91
        1
280
     0
281
     0
  0
CLASS
  1
MLEADERSTYLE
  2
AcDbMLeaderStyle
  3
ACDB_MLEADERSTYLE_CLASS
 90
     4095
 91
        1
280
     0
281
     0
  0
CLASS
  1
ACDBSECTIONVIEWSTYLE
  2
AcDbSectionViewStyle
  3
ObjectDBX Classes
 90
     1025
 91
        1
280
     0
281
     0
  0
CLASS
  1
ACDBDETAILVIEWSTYLE
  2
AcDbDetailViewStyle
  3
ObjectDBX Classes
 90
     1025
 91
        1
280
     0
281
     0
  0
CLASS
  1
ACMESCOPE
  2
AcMeScope
  3
AcMeServices
 90
     1024
 91
        1
280
     0
281
     0
  0
CLASS
  1
ACMECOMMANDHISTORY
  2
AcMeCommandHistory
  3
AcMeServices
 90
     1024
 91
        1
280
     0
281
     0
  0
CLASS
  1
ACIMSYSVARMAN
  2
AcImSysVarManager
  3
AcMeServices
 90
     1024
 91
        1
280
     0
281
     0
  0
CLASS
  1
ACIMINTSYSVAR
  2
AcImIntSysVar
  3
AcMeServices
 90
     1024
 91
        1
280
     0
281
     0
  0
CLASS
  1
ACMESTATEMGR
  2
AcMeStateMgr
  3
AcMeServices
 90
     1024
 91
        1
280
     0
281
     0
  0
CLASS
  1
ACGREFMASTER
  2
AcGrefMaster
  3
AcAttribServices
 90
     1024
 91
        1
280
     0
281
     0
  0
CLASS
  1
SORTENTSTABLE
  2
AcDbSortentsTable
  3
ObjectDBX Classes
 90
        0
 91
        3
280
     0
281
     0
  0
CLASS
  1
DICTIONARYVAR
  2
AcDbDictionaryVar
  3
ObjectDBX Classes
 90
        0
 91
        6
280
     0
281
     0
  0
CLASS
  1
CELLSTYLEMAP
  2
AcDbCellStyleMap
  3
ObjectDBX Classes
 90
     1152
 91
        1
280
     0
281
     0
  0
ENDSEC
  0
SECTION
  2
TABLES
  0
TABLE
  2
VPORT
  5
8
330
0
100
AcDbSymbolTable
 70
     1
1001
ACAD
1000
DbSaveVer
1071
      428
  0
VPORT
  5
57
330
8
100
AcDbSymbolTableRecord
100
AcDbViewportTableRecord
  2
*Active
 70
     0
 10
0.0
 20
0.0
 11
1.0
 21
1.0
 12
594.5
 22
420.5
 13
0.0
 23
0.0
 14
0.5
 24
0.5
 15
0.0
 25
0.0
 16
0.0
 26
0.0
 36
1.0
 17
0.0
 27
0.0
 37
0.0
 40
841.0
 41
2.455243
 42
50.0
 43
0.0
 44
0.0
 50
0.0
 51
0.0
 71
     0
 72
 20000
 73
     1
 74
     0
 75
     0
 76
     0
 77
     0
 78
     0
281
     0
 65
     1
110
0.0
120
0.0
130
0.0
111
1.0
121
0.0
131
0.0
112
0.0
122
1.0
132
0.0
 79
     0
146
0.0
348
2F
 60
     3
 61
     5
292
     1
282
     1
141
0.0
142
0.0
 63
   250
421
  3355443
  0
ENDTAB
  0
TABLE
  2
LTYPE
  5
5
330
0
100
AcDbSymbolTable
 70
    14
  0
LTYPE
  5
5B
330
5
100
AcDbSymbolTableRecord
100
AcDbLinetypeTableRecord
  2
ByBlock
 70
     0
  3

 72
    65
 73
     0
 40
0.0
  0
LTYPE
  5
5C
330
5
100
AcDbSymbolTableRecord
100
AcDbLinetypeTableRecord
  2
ByLayer
 70
     0
  3

 72
    65
 73
     0
 40
0.0
  0
LTYPE
  5
5D
330
5
100
AcDbSymbolTableRecord
100
AcDbLinetypeTableRecord
  2
Continuous
 70
     0
  3
Solid line
 72
    65
 73
     0
 40
0.0
  0
LTYPE
  5
81
330
5
100
AcDbSymbolTableRecord
100
AcDbLinetypeTableRecord
  2
HIDDEN
 70
     0
  3
Hidden __ __ __ __ __ __ __ __ __ __ __ __ __ _
 72
    65
 73
     2
 40
9.525
 49
6.35
 74
     0
 49
-3.175
 74
     0
  0
LTYPE
  5
82
330
5
100
AcDbSymbolTableRecord
100
AcDbLinetypeTableRecord
  2
PHANTOM2
 70
     0
  3
Phantom (.5x) ___ _ _ ___ _ _ ___ _ _ ___ _ _
 72
    65
 73
     6
 40
31.75
 49
15.875
 74
     0
 49
-3.175
 74
     0
 49
3.175
 74
     0
 49
-3.175
 74
     0
 49
3.175
 74
     0
 49
-3.175
 74
     0
  0
LTYPE
  5
83
330
5
100
AcDbSymbolTableRecord
100
AcDbLinetypeTableRecord
  2
CENTER
 70
     0
  3
Center ____ _ ____ _ ____ _ ____ _ ____ _ ____
 72
    65
 73
     4
 40
50.8
 49
31.75
 74
     0
 49
-6.35
 74
     0
 49
6.35
 74
     0
 49
-6.35
 74
     0
  0
LTYPE
  5
9C
330
5
100
AcDbSymbolTableRecord
100
AcDbLinetypeTableRecord
  2
AM_ISO02W050
 70
     0
  3
__ __ __ __ __ __ __ __ __ __ __ __ __ __ __
 72
    65
 73
     2
 40
7.5
 49
6.0
 74
     0
 49
-1.5
 74
     0
  0
LTYPE
  5
9D
330
5
100
AcDbSymbolTableRecord
100
AcDbLinetypeTableRecord
  2
AM_ISO08W050
 70
     0
  3
____ . ____ . ____ . ____ . ____ . ____ . ____
 72
    65
 73
     4
 40
18.0
 49
12.0
 74
     0
 49
-1.5
 74
     0
 49
3.0
 74
     0
 49
-1.5
 74
     0
  0
LTYPE
  5
9E
330
5
100
AcDbSymbolTableRecord
100
AcDbLinetypeTableRecord
  2
AM_ISO09W050
 70
     0
  3
_____ . . _____ . . _____ . . ____ .. ____
 72
    65
 73
     6
 40
22.5
 49
12.0
 74
     0
 49
-1.5
 74
     0
 49
3.0
 74
     0
 49
-1.5
 74
     0
 49
3.0
 74
     0
 49
-1.5
 74
     0
  0
LTYPE
  5
9F
330
5
100
AcDbSymbolTableRecord
100
AcDbLinetypeTableRecord
  2
Amconstr
 70
     0
  3
_______________________
 72
    65
 73
     2
 40
9999.0
 49
9999.0
 74
     0
 49
0.0
 74
     0
  0
LTYPE
  5
A0
330
5
100
AcDbSymbolTableRecord
100
AcDbLinetypeTableRecord
  2
AM_ISO08W050x2
 70
     0
  3
__ . __ . __ . __ . __ . __
 72
    65
 73
     4
 40
9.0
 49
6.0
 74
     0
 49
-0.75
 74
     0
 49
1.5
 74
     0
 49
-0.75
 74
     0
  0
LTYPE
  5
A1
330
5
100
AcDbSymbolTableRecord
100
AcDbLinetypeTableRecord
  2
AM_ISO02W050x2
 70
     0
  3
 _ _ _ _ _ _ _ _ _ _ _ _
 72
    65
 73
     2
 40
3.75
 49
3.0
 74
     0
 49
-0.75
 74
     0
  0
LTYPE
  5
A2
330
5
100
AcDbSymbolTableRecord
100
AcDbLinetypeTableRecord
  2
Amzigzag
 70
     0
  3
/\/-/\/-/\/-/\/-/\/-/\/
 72
    65
 73
     2
 40
11.0001
 49
0.0001
 74
     4
 75
   136
340
99
 46
0.04
 50
0.0
 44
0.0
 45
0.0
 49
-11.0
 74
     0
  0
LTYPE
  5
A3
330
5
100
AcDbSymbolTableRecord
100
AcDbLinetypeTableRecord
  2
ACISOWELD
 70
     0
  3
_ _ _ _ _
 72
    65
 73
     2
 40
2.0
 49
2.0
 74
     0
 49
-1.0
 74
     0
  0
LTYPE
  5
A4
330
5
100
AcDbSymbolTableRecord
100
AcDbLinetypeTableRecord
  2
ACISOTGL
 70
     0
  3
_ _ _ _ _
 72
    65
 73
     2
 40
3.0
 49
2.0
 74
     0
 49
-1.0
 74
     0
  0
LTYPE
  5
A5
330
5
100
AcDbSymbolTableRecord
100
AcDbLinetypeTableRecord
  2
ACISOTGB
 70
     0
  3
__ . . __ . .
 72
    65
 73
     6
 40
9.0
 49
4.0
 74
     0
 49
-1.0
 74
     0
 49
1.0
 74
     0
 49
-1.0
 74
     0
 49
1.0
 74
     0
 49
-1.0
 74
     0
  0
ENDTAB
  0
TABLE
  2
LAYER
  5
2
330
0
100
AcDbSymbolTable
 70
     8
  0
LAYER
  5
54
330
2
100
AcDbSymbolTableRecord
100
AcDbLayerTableRecord
  2
0
 70
     0
 62
     7
  6
Continuous
370
    -3
390
F
347
21
348
0
1001
AcAecLayerStandard
1000

1000

  0
LAYER
  5
79
330
2
100
AcDbSymbolTableRecord
100
AcDbLayerTableRecord
  2
Defpoints
 70
     0
 62
     7
  6
Continuous
290
     0
370
    -3
390
F
347
21
348
0
1001
AcAecLayerStandard
1000

1000

  0
LAYER
  5
B1
330
2
100
AcDbSymbolTableRecord
100
AcDbLayerTableRecord
  2
Visible
 70
     0
 62
     7
  6
Continuous
370
    70
390
F
347
21
348
0
  0
LAYER
  5
10F
330
2
100
AcDbSymbolTableRecord
100
AcDbLayerTableRecord
  2
BORDER
 70
     0
 62
     7
  6
Continuous
370
    35
390
F
347
21
348
0
1001
AcAecLayerStandard
1000

1000

1001
AcCmTransparency
1071
        0
  0
LAYER
  5
1BD
330
2
100
AcDbSymbolTableRecord
100
AcDbLayerTableRecord
  2
TITLEBLOCK
 70
     0
 62
     7
  6
Continuous
370
    50
390
F
347
21
348
0
1001
AcAecLayerStandard
1000

1000

1001
AcCmTransparency
1071
        0
  0
LAYER
  5
209
330
2
100
AcDbSymbolTableRecord
100
AcDbLayerTableRecord
  2
FD_Dimensions
 70
     0
 62
     7
  6
Continuous
370
    35
390
F
347
21
348
0
  0
LAYER
  5
224
330
2
100
AcDbSymbolTableRecord
100
AcDbLayerTableRecord
  2
Notes
 70
     0
 62
     7
  6
Continuous
370
    35
390
F
347
21
348
0
  0
ENDTAB
  0
TABLE
  2
STYLE
  5
3
330
0
100
AcDbSymbolTable
 70
     5
  0
STYLE
  5
55
330
3
100
AcDbSymbolTableRecord
100
AcDbTextStyleTableRecord
  2
Standard
 70
     0
 40
0.0
 41
1.0
 50
0.0
 71
     0
 42
3.5
  3
arial.ttf
  4

1001
ACAD
1000
Arial
1071
       34
  0
STYLE
  5
5A
330
3
100
AcDbSymbolTableRecord
100
AcDbTextStyleTableRecord
  2
Annotative
 70
     0
 40
0.0
 41
1.0
 50
0.0
 71
     0
 42
0.2
  3
txt
  4

1001
AcadAnnotative
1000
AnnotativeData
1002
{
1070
     1
1070
     1
1002
}
  0
STYLE
  5
98
330
3
100
AcDbSymbolTableRecord
100
AcDbTextStyleTableRecord
  2
FusionTitle
 70
     0
 40
0.0
 41
1.0
 50
0.0
 71
     0
 42
2.5
  3
arial.ttf
  4

1001
ACAD
1000
Arial
1071
       34
  0
STYLE
  5
99
330
3
100
AcDbSymbolTableRecord
100
AcDbTextStyleTableRecord
  2

 70
     1
 40
0.0
 41
1.0
 50
0.0
 71
     0
 42
10.0
  3
genltshp.shx
  4

  0
STYLE
  5
9A
330
3
100
AcDbSymbolTableRecord
100
AcDbTextStyleTableRecord
  2
ACISOGDT
 70
     0
 40
0.0
 41
1.0
 50
0.0
 71
     0
 42
10.0
  3
amgdt.shx
  4

  0
ENDTAB
  0
TABLE
  2
VIEW
  5
6
330
0
100
AcDbSymbolTable
 70
     0
  0
ENDTAB
  0
TABLE
  2
UCS
  5
7
330
0
100
AcDbSymbolTable
 70
     0
  0
ENDTAB
  0
TABLE
  2
APPID
  5
9
330
0
100
AcDbSymbolTable
 70
    25
  0
APPID
  5
56
330
9
100
AcDbSymbolTableRecord
100
AcDbRegAppTableRecord
  2
ACAD
 70
     0
  0
APPID
  5
5E
330
9
100
AcDbSymbolTableRecord
100
AcDbRegAppTableRecord
  2
AcadAnnotative
 70
     0
  0
APPID
  5
78
330
9
100
AcDbSymbolTableRecord
100
AcDbRegAppTableRecord
  2
ACAD_PSEXT
 70
     0
  0
APPID
  5
7A
330
9
100
AcDbSymbolTableRecord
100
AcDbRegAppTableRecord
  2
MCAD_NO_VIS
 70
     0
  0
APPID
  5
7B
330
9
100
AcDbSymbolTableRecord
100
AcDbRegAppTableRecord
  2
ACAD_TEMP_GRAPHIC
 70
     0
  0
APPID
  5
84
330
9
100
AcDbSymbolTableRecord
100
AcDbRegAppTableRecord
  2
ACAD_DSTYLE_DIMJAG
 70
     0
  0
APPID
  5
85
330
9
100
AcDbSymbolTableRecord
100
AcDbRegAppTableRecord
  2
ACAD_DSTYLE_DIMTALN
 70
     0
  0
APPID
  5
86
330
9
100
AcDbSymbolTableRecord
100
AcDbRegAppTableRecord
  2
ACAD_NAV_VCDISPLAY
 70
     0
  0
APPID
  5
87
330
9
100
AcDbSymbolTableRecord
100
AcDbRegAppTableRecord
  2
AcAecLayerStandard
 70
     0
  0
APPID
  5
88
330
9
100
AcDbSymbolTableRecord
100
AcDbRegAppTableRecord
  2
AcCmTransparency
 70
     0
  0
APPID
  5
89
330
9
100
AcDbSymbolTableRecord
100
AcDbRegAppTableRecord
  2
AcDbDynamicBlockGUID
 70
     0
  0
APPID
  5
8A
330
9
100
AcDbSymbolTableRecord
100
AcDbRegAppTableRecord
  2
ACAD_DSTYLE_DIMBREAK
 70
     0
  0
APPID
  5
8B
330
9
100
AcDbSymbolTableRecord
100
AcDbRegAppTableRecord
  2
ACAD_TC
 70
     0
  0
APPID
  5
8C
330
9
100
AcDbSymbolTableRecord
100
AcDbRegAppTableRecord
  2
FUSIONTITLEBLOCK
 70
     0
  0
APPID
  5
8D
330
9
100
AcDbSymbolTableRecord
100
AcDbRegAppTableRecord
  2
FUSIONCURRENTTITLEBLOCK
 70
     0
  0
APPID
  5
8E
330
9
100
AcDbSymbolTableRecord
100
AcDbRegAppTableRecord
  2
AcSynergy
 70
     0
  0
APPID
  5
8F
330
9
100
AcDbSymbolTableRecord
100
AcDbRegAppTableRecord
  2
GENIUS_GENSCREG_15
 70
     0
  0
APPID
  5
90
330
9
100
AcDbSymbolTableRecord
100
AcDbRegAppTableRecord
  2
GENIUS_GENOBJ-N-SDF_13
 70
     0
  0
APPID
  5
91
330
9
100
AcDbSymbolTableRecord
100
AcDbRegAppTableRecord
  2
GENIUS_GENODEF_13
 70
     0
  0
APPID
  5
92
330
9
100
AcDbSymbolTableRecord
100
AcDbRegAppTableRecord
  2
ACAD_DIMASSOC_CALC_DIMLFAC
 70
     0
  0
APPID
  5
93
330
9
100
AcDbSymbolTableRecord
100
AcDbRegAppTableRecord
  2
ACAD_DIMASSOC_DIMLFAC
 70
     0
  0
APPID
  5
94
330
9
100
AcDbSymbolTableRecord
100
AcDbRegAppTableRecord
  2
ACAD_DIMASSOC_OVERRIDDEN_DIMLFAC
 70
     0
  0
APPID
  5
95
330
9
100
AcDbSymbolTableRecord
100
AcDbRegAppTableRecord
  2
ACAD_DSTYLE_DIMJAG_POSITION
 70
     0
  0
APPID
  5
96
330
9
100
AcDbSymbolTableRecord
100
AcDbRegAppTableRecord
  2
FUSIONTITLEBLOCKATTRIBUTEOVERRIDE
 70
     0
  0
APPID
  5
97
330
9
100
AcDbSymbolTableRecord
100
AcDbRegAppTableRecord
  2
ACATTRIBSERVICES
 70
     0
  0
ENDTAB
  0
TABLE
  2
DIMSTYLE
  5
A
330
0
100
AcDbSymbolTable
 70
     4
100
AcDbDimStyleTable
 71
     1
340
A9
  0
DIMSTYLE
105
58
330
A
100
AcDbSymbolTableRecord
100
AcDbDimStyleTableRecord
  2
Standard
 70
     0
 41
3.5
 42
2.1
 43
10.5
 44
2.1
 78
    12
 79
     3
140
3.5
143
0.03937
146
0.714286
147
1.4
179
     2
271
     2
272
     2
284
    12
340
55
  0
DIMSTYLE
105
59
330
A
100
AcDbSymbolTableRecord
100
AcDbDimStyleTableRecord
  2
Annotative
 70
     0
 40
0.0
 41
3.5
 42
2.1
 43
10.5
 44
2.1
 73
     0
 74
     0
 77
     1
 78
    12
 79
     3
140
3.5
141
2.5
143
0.03937
146
0.714286
147
1.4
171
     3
172
     1
179
     2
271
     2
272
     2
274
     3
278
    44
283
     0
284
    12
340
55
1001
AcadAnnotative
1000
AnnotativeData
1002
{
1070
     1
1070
     1
1002
}
  0
DIMSTYLE
105
A8
330
A
100
AcDbSymbolTableRecord
100
AcDbDimStyleTableRecord
  2
ISO-25
 70
     0
  4
in
 41
3.5
 42
2.1
 43
10.5
 44
2.1
 47
0.1
 48
0.1
 73
     0
 74
     0
 77
     1
 78
    12
 79
     3
140
3.5
141
0.0
143
0.03937
146
0.714286
147
1.4
171
     4
172
     1
176
   256
177
   256
178
   256
179
     2
271
     2
272
     2
274
     4
283
     0
284
    12
285
     8
340
55
1001
ACAD_DSTYLE_DIMJAG
1070
   388
1040
1.5
1001
ACAD_DSTYLE_DIMTALN
1070
   392
1070
     1
1001
ACAD_DSTYLE_DIMBREAK
1070
   391
1040
3.5
  0
DIMSTYLE
105
A9
102
{ACAD_REACTORS
330
208
330
216
102
}
330
A
100
AcDbSymbolTableRecord
100
AcDbDimStyleTableRecord
  2
Dim-ISO-25
 70
     0
 41
3.5
 42
2.1
 43
10.5
 44
2.1
 47
0.1
 48
0.1
 73
     0
 74
     0
 77
     1
 78
    12
 79
     3
140
3.5
141
0.0
143
0.03937
146
0.714286
147
1.4
172
     1
179
     2
271
     2
272
     2
283
     0
284
    12
285
    12
286
    12
340
55
1001
ACAD_DSTYLE_DIMJAG
1070
   388
1040
1.5
1001
ACAD_DSTYLE_DIMTALN
1070
   392
1070
     1
1001
ACAD_DSTYLE_DIMBREAK
1070
   391
1040
3.5
  0
ENDTAB
  0
TABLE
  2
BLOCK_RECORD
  5
1
330
0
100
AcDbSymbolTable
 70
     8
  0
BLOCK_RECORD
  5
70
102
{ACAD_XDICTIONARY
360
AA
102
}
330
1
100
AcDbSymbolTableRecord
100
AcDbBlockTableRecord
  2
*Model_Space
340
73
 70
     0
280
     1
281
     0
  0
BLOCK_RECORD
  5
6C
330
1
100
AcDbSymbolTableRecord
100
AcDbBlockTableRecord
  2
*Paper_Space
340
6F
 70
     0
280
     1
281
     0
  0
BLOCK_RECORD
  5
74
330
1
100
AcDbSymbolTableRecord
100
AcDbBlockTableRecord
  2
*Paper_Space0
340
77
 70
     0
280
     1
281
     0
  0
BLOCK_RECORD
  5
110
102
{ACAD_XDICTIONARY
360
111
102
}
330
1
100
AcDbSymbolTableRecord
100
AcDbBlockTableRecord
  2
ISO_A0_SHEET
340
0
310
2800000020000000200000000100080000000000000400000000000000000000000000000000000000000000000080000080000000808000800000008000800080800000C0C0C000C0DCC000F0CAA6000020400000206000002080000020A0000020C0000020E00000400000004020000040400000406000004080000040A0
310
000040C0000040E00000600000006020000060400000606000006080000060A0000060C0000060E00000800000008020000080400000806000008080000080A0000080C0000080E00000A0000000A0200000A0400000A0600000A0800000A0A00000A0C00000A0E00000C0000000C0200000C0400000C0600000C0800000C0
310
A00000C0C00000C0E00000E0000000E0200000E0400000E0600000E0800000E0A00000E0C00000E0E00040000000400020004000400040006000400080004000A0004000C0004000E00040200000402020004020400040206000402080004020A0004020C0004020E000404000004040200040404000404060004040800040
310
40A0004040C0004040E00040600000406020004060400040606000406080004060A0004060C0004060E00040800000408020004080400040806000408080004080A0004080C0004080E00040A0000040A0200040A0400040A0600040A0800040A0A00040A0C00040A0E00040C0000040C0200040C0400040C0600040C08000
310
40C0A00040C0C00040C0E00040E0000040E0200040E0400040E0600040E0800040E0A00040E0C00040E0E00080000000800020008000400080006000800080008000A0008000C0008000E00080200000802020008020400080206000802080008020A0008020C0008020E00080400000804020008040400080406000804080
310
008040A0008040C0008040E00080600000806020008060400080606000806080008060A0008060C0008060E00080800000808020008080400080806000808080008080A0008080C0008080E00080A0000080A0200080A0400080A0600080A0800080A0A00080A0C00080A0E00080C0000080C0200080C0400080C0600080C0
310
800080C0A00080C0C00080C0E00080E0000080E0200080E0400080E0600080E0800080E0A00080E0C00080E0E000C0000000C0002000C0004000C0006000C0008000C000A000C000C000C000E000C0200000C0202000C0204000C0206000C0208000C020A000C020C000C020E000C0400000C0402000C0404000C0406000C0
310
408000C040A000C040C000C040E000C0600000C0602000C0604000C0606000C0608000C060A000C060C000C060E000C0800000C0802000C0804000C0806000C0808000C080A000C080C000C080E000C0A00000C0A02000C0A04000C0A06000C0A08000C0A0A000C0A0C000C0A0E000C0C00000C0C02000C0C04000C0C06000
310
C0C08000C0C0A000F0FBFF00A4A0A000808080000000FF0000FF000000FFFF00FF000000FF00FF00FFFF0000FFFFFF0049494949494949494949494949494949494949494949494949494949494949494949494949494949494949494949494949494949494949494949494949494949494949494949494949494949494949
310
494949494949494949494949494949494949494949494949494949494949494949494949494949494949494949494949494949494949494949494949494949494949494949494949494949494949494949494949494949494949494949494949494949494949494949494949494949494949FFFFFFFFFFFFFFFFFFFFFFFFFF
310
FFFFFFFFFFFFFFFFFFFFFFFFFFFFFFFFFF494949FF4949494949494949494949494949494949494949494949494949FF49494949FF4949494949494949494949494949494949494949494949494949FF49494949FF4949494949494949494949494949494949494949494949494949FF49494949FF49494949494949494949
310
49494949494949494949494949494949FF49494949FF4949494949494949494949494949494949494949494949494949FF49494949FF4949494949494949494949494949494949494949494949494949FF49494949FF4949494949494949494949494949494949494949494949494949FF49494949FF494949494949494949
310
4949494949494949494949494949494949FF49494949FF4949494949494949494949494949494949494949494949494949FF49494949FF4949494949494949494949494949494949494949494949494949FF49494949FF4949494949494949494949494949494949494949494949494949FF49494949FF4949494949494949
310
494949494949494949494949494949494949FF49494949FF4949494949494949494949494949494949494949494949494949FF49494949FF4949494949494949494949494949494949494949494949494949FF49494949FF4949494949494949494949494949494949494949494949494949FF49494949FF49494949494949
310
49494949494949494949494949494949494949FF49494949FF4949494949494949494949494949494949494949494949494949FF49494949FF4949494949494949494949494949494949494949494949494949FF494949FFFFFFFFFFFFFFFFFFFFFFFFFFFFFFFFFFFFFFFFFFFFFFFFFFFFFFFFFFFF49494949494949494949
310
49494949494949494949494949494949494949494949494949494949494949494949494949494949494949494949494949494949494949494949494949494949494949494949494949494949494949494949494949494949494949494949494949494949494949494949494949494949494949494949494949494949494949
310
4949494949494949494949494949494949494949494949494949494949494949494949494949494949494949494949494949494949494949
102
{BLKREFS
331
10E
102
}
 70
     4
280
     1
281
     0
1001
AcDbDynamicBlockGUID
1000
{F93B89C0-CEF4-8440-9F0F-6EE77F85A112}
  0
BLOCK_RECORD
  5
1BE
102
{ACAD_XDICTIONARY
360
1BF
102
}
330
1
100
AcDbSymbolTableRecord
100
AcDbBlockTableRecord
  2
ISO_TITLEBLOCK
340
0
310
2800000020000000200000000100080000000000000400000000000000000000000000000000000000000000000080000080000000808000800000008000800080800000C0C0C000C0DCC000F0CAA6000020400000206000002080000020A0000020C0000020E00000400000004020000040400000406000004080000040A0
310
000040C0000040E00000600000006020000060400000606000006080000060A0000060C0000060E00000800000008020000080400000806000008080000080A0000080C0000080E00000A0000000A0200000A0400000A0600000A0800000A0A00000A0C00000A0E00000C0000000C0200000C0400000C0600000C0800000C0
310
A00000C0C00000C0E00000E0000000E0200000E0400000E0600000E0800000E0A00000E0C00000E0E00040000000400020004000400040006000400080004000A0004000C0004000E00040200000402020004020400040206000402080004020A0004020C0004020E000404000004040200040404000404060004040800040
310
40A0004040C0004040E00040600000406020004060400040606000406080004060A0004060C0004060E00040800000408020004080400040806000408080004080A0004080C0004080E00040A0000040A0200040A0400040A0600040A0800040A0A00040A0C00040A0E00040C0000040C0200040C0400040C0600040C08000
310
40C0A00040C0C00040C0E00040E0000040E0200040E0400040E0600040E0800040E0A00040E0C00040E0E00080000000800020008000400080006000800080008000A0008000C0008000E00080200000802020008020400080206000802080008020A0008020C0008020E00080400000804020008040400080406000804080
310
008040A0008040C0008040E00080600000806020008060400080606000806080008060A0008060C0008060E00080800000808020008080400080806000808080008080A0008080C0008080E00080A0000080A0200080A0400080A0600080A0800080A0A00080A0C00080A0E00080C0000080C0200080C0400080C0600080C0
310
800080C0A00080C0C00080C0E00080E0000080E0200080E0400080E0600080E0800080E0A00080E0C00080E0E000C0000000C0002000C0004000C0006000C0008000C000A000C000C000C000E000C0200000C0202000C0204000C0206000C0208000C020A000C020C000C020E000C0400000C0402000C0404000C0406000C0
310
408000C040A000C040C000C040E000C0600000C0602000C0604000C0606000C0608000C060A000C060C000C060E000C0800000C0802000C0804000C0806000C0808000C080A000C080C000C080E000C0A00000C0A02000C0A04000C0A06000C0A08000C0A0A000C0A0C000C0A0E000C0C00000C0C02000C0C04000C0C06000
310
C0C08000C0C0A000F0FBFF00A4A0A000808080000000FF0000FF000000FFFF00FF000000FF00FF00FFFF0000FFFFFF0049494949494949494949494949494949494949494949494949494949494949494949494949494949494949494949494949494949494949494949494949494949494949494949494949494949494949
310
49494949494949494949494949494949494949494949494949494949494949494949494949494949494949494949494949494949494949494949494949494949494949494949494949494949494949494949494949494949494949494949494949494949494949494949494949494949494949494949494949494949494949
310
49494949494949494949494949494949494949494949494949494949494949494949494949494949494949494949494949494949494949494949494949494949494949494949494949494949494949494949494949494949494949494949494949494949494949494949494949494949494949494949494949494949494949
310
49494949494949494949494949494949494949494949494949494949494949494949494949494949494949494949494949494949FFFFFFFFFFFFFFFFFFFFFFFFFFFFFFFFFFFFFFFFFFFFFFFFFFFFFF4949494949FF4949494949494949FFFFFFFFFF49494949FFFFFFFFFFFFFFFFFFFF49494949FF4949494949494949FFFF
310
FFFFFF494949FFFFFFFFFFFFFFFFFFFF4949494949FF4949494949494949FFFFFFFFFF494949FFFFFFFFFFFFFFFFFFFF4949494949FF4949494949494949FFFFFFFFFFFFFFFFFFFFFFFFFFFFFFFFFFFF4949494949FFFFFFFFFFFFFFFFFFFFFFFFFFFFFFFFFFFFFFFFFFFFFFFFFFFFFF4949494949FFFFFF49FFFFFFFFFFFF
310
FFFFFFFFFFFFFFFFFFFFFFFFFFFFFFFFFFFFFFFF4949FFFFFFFFFFFFFFFFFFFFFFFFFFFFFFFFFFFFFFFFFFFFFFFFFFFFFF494949494949494949494949494949494949494949494949494949494949494949494949494949494949494949494949494949494949494949494949494949494949494949494949494949494949
310
49494949494949494949494949494949494949494949494949494949494949494949494949494949494949494949494949494949494949494949494949494949494949494949494949494949494949494949494949494949494949494949494949494949494949494949494949494949494949494949494949494949494949
310
49494949494949494949494949494949494949494949494949494949494949494949494949494949494949494949494949494949494949494949494949494949494949494949494949494949494949494949494949494949494949494949494949494949494949494949494949494949494949494949494949494949494949
310
4949494949494949494949494949494949494949494949494949494949494949494949494949494949494949494949494949494949494949
102
{BLKREFS
331
1BC
102
}
 70
     4
280
     1
281
     0
1001
AcDbDynamicBlockGUID
1000
{BCD52D05-323A-B54A-8A21-1B84008CF9CB}
1001
FUSIONTITLEBLOCK
1000
TitleBlock
  0
BLOCK_RECORD
  5
20A
330
1
100
AcDbSymbolTableRecord
100
AcDbBlockTableRecord
  2
*D4
340
0
 70
     0
280
     1
281
     0
  0
BLOCK_RECORD
  5
217
330
1
100
AcDbSymbolTableRecord
100
AcDbBlockTableRecord
  2
*D5
340
0
 70
     0
280
     1
281
     0
  0
BLOCK_RECORD
  5
226
330
1
100
AcDbSymbolTableRecord
100
AcDbBlockTableRecord
  2
*D6
340
0
 70
     0
280
     1
281
     0
  0
BLOCK_RECORD
  5
232
330
1
100
AcDbSymbolTableRecord
100
AcDbBlockTableRecord
  2
*D7
340
0
 70
     0
280
     1
281
     0
  0
ENDTAB
  0
ENDSEC
  0
SECTION
  2
BLOCKS
  0
BLOCK
  5
71
330
70
100
AcDbEntity
  8
0
100
AcDbBlockBegin
  2
*Model_Space
 70
     0
 10
0.0
 20
0.0
 30
0.0
  3
*Model_Space
  1

  0
ENDBLK
  5
72
330
70
100
AcDbEntity
  8
0
100
AcDbBlockEnd
  0
BLOCK
  5
6D
330
6C
100
AcDbEntity
 67
     1
  8
0
100
AcDbBlockBegin
  2
*Paper_Space
 70
     0
 10
0.0
 20
0.0
 30
0.0
  3
*Paper_Space
  1

  0
ENDBLK
  5
6E
330
6C
100
AcDbEntity
 67
     1
  8
0
100
AcDbBlockEnd
  0
BLOCK
  5
75
330
74
100
AcDbEntity
 67
     1
  8
0
100
AcDbBlockBegin
  2
*Paper_Space0
 70
     0
 10
0.0
 20
0.0
 30
0.0
  3
*Paper_Space0
  1

  0
ENDBLK
  5
76
330
74
100
AcDbEntity
 67
     1
  8
0
100
AcDbBlockEnd
  0
BLOCK
  5
112
330
110
100
AcDbEntity
  8
0
100
AcDbBlockBegin
  2
ISO_A0_SHEET
 70
     0
 10
0.0
 20
0.0
 30
0.0
  3
ISO_A0_SHEET
  1

  0
LINE
  5
113
330
110
100
AcDbEntity
  8
Defpoints
100
AcDbLine
 10
0.0
 20
0.0
 30
0.0
 11
15.0
 21
0.0
 31
0.0
  0
LINE
  5
114
330
110
100
AcDbEntity
  8
Defpoints
100
AcDbLine
 10
0.0
 20
841.0
 30
0.0
 11
15.0
 21
841.0
 31
0.0
  0
LINE
  5
115
330
110
100
AcDbEntity
  8
BORDER
100
AcDbLine
 10
20.0
 20
831.0
 30
0.0
 11
1179.0
 21
831.0
 31
0.0
  0
LINE
  5
116
330
110
100
AcDbEntity
  8
BORDER
100
AcDbLine
 10
20.0
 20
10.0
 30
0.0
 11
1179.0
 21
10.0
 31
0.0
  0
LINE
  5
117
330
110
100
AcDbEntity
  8
Defpoints
100
AcDbLine
 10
0.0
 20
15.0
 30
0.0
 11
0.0
 21
0.0
 31
0.0
  0
LINE
  5
118
330
110
100
AcDbEntity
  8
Defpoints
100
AcDbLine
 10
1189.0
 20
15.0
 30
0.0
 11
1189.0
 21
0.0
 31
0.0
  0
LINE
  5
119
330
110
100
AcDbEntity
  8
BORDER
100
AcDbLine
 10
20.0
 20
831.0
 30
0.0
 11
20.0
 21
10.0
 31
0.0
  0
LINE
  5
11A
330
110
100
AcDbEntity
  8
Defpoints
100
AcDbLine
 10
0.0
 20
841.0
 30
0.0
 11
0.0
 21
826.0
 31
0.0
  0
LINE
  5
11B
330
110
100
AcDbEntity
  8
Defpoints
100
AcDbLine
 10
1189.0
 20
841.0
 30
0.0
 11
1189.0
 21
826.0
 31
0.0
  0
LINE
  5
11C
330
110
100
AcDbEntity
  8
BORDER
100
AcDbLine
 10
1179.0
 20
831.0
 30
0.0
 11
1179.0
 21
10.0
 31
0.0
  0
LINE
  5
11D
330
110
100
AcDbEntity
  8
Defpoints
100
AcDbLine
 10
1189.0
 20
0.0
 30
0.0
 11
1174.0
 21
0.0
 31
0.0
  0
LINE
  5
11E
330
110
100
AcDbEntity
  8
Defpoints
100
AcDbLine
 10
1189.0
 20
841.0
 30
0.0
 11
1174.0
 21
841.0
 31
0.0
  0
LINE
  5
11F
330
110
100
AcDbEntity
  8
BORDER
100
AcDbLine
 10
599.5
 20
836.0
 30
0.0
 11
599.5
 21
826.0
 31
0.0
  0
LINE
  5
120
330
110
100
AcDbEntity
  8
BORDER
100
AcDbLine
 10
550.791667
 20
836.0
 30
0.0
 11
550.791667
 21
831.0
 31
0.0
  0
LINE
  5
121
330
110
100
AcDbEntity
  8
BORDER
100
AcDbLine
 10
502.083334
 20
836.0
 30
0.0
 11
502.083334
 21
831.0
 31
0.0
  0
LINE
  5
122
330
110
100
AcDbEntity
  8
BORDER
100
AcDbLine
 10
453.375001
 20
836.0
 30
0.0
 11
453.375001
 21
831.0
 31
0.0
  0
LINE
  5
123
330
110
100
AcDbEntity
  8
BORDER
100
AcDbLine
 10
404.666668
 20
836.0
 30
0.0
 11
404.666668
 21
831.0
 31
0.0
  0
LINE
  5
124
330
110
100
AcDbEntity
  8
BORDER
100
AcDbLine
 10
355.958335
 20
836.0
 30
0.0
 11
355.958335
 21
831.0
 31
0.0
  0
LINE
  5
125
330
110
100
AcDbEntity
  8
BORDER
100
AcDbLine
 10
307.250002
 20
836.0
 30
0.0
 11
307.250002
 21
831.0
 31
0.0
  0
LINE
  5
126
330
110
100
AcDbEntity
  8
BORDER
100
AcDbLine
 10
258.541669
 20
836.0
 30
0.0
 11
258.541669
 21
831.0
 31
0.0
  0
LINE
  5
127
330
110
100
AcDbEntity
  8
BORDER
100
AcDbLine
 10
209.833336
 20
836.0
 30
0.0
 11
209.833336
 21
831.0
 31
0.0
  0
LINE
  5
128
330
110
100
AcDbEntity
  8
BORDER
100
AcDbLine
 10
161.125003
 20
836.0
 30
0.0
 11
161.125003
 21
831.0
 31
0.0
  0
LINE
  5
129
330
110
100
AcDbEntity
  8
BORDER
100
AcDbLine
 10
112.41667
 20
836.0
 30
0.0
 11
112.41667
 21
831.0
 31
0.0
  0
LINE
  5
12A
330
110
100
AcDbEntity
  8
BORDER
100
AcDbLine
 10
63.708337
 20
836.0
 30
0.0
 11
63.708337
 21
831.0
 31
0.0
  0
LINE
  5
12B
330
110
100
AcDbEntity
  8
BORDER
100
AcDbLine
 10
599.5
 20
15.0
 30
0.0
 11
599.5
 21
5.0
 31
0.0
  0
LINE
  5
12C
330
110
100
AcDbEntity
  8
BORDER
100
AcDbLine
 10
15.0
 20
420.5
 30
0.0
 11
25.0
 21
420.5
 31
0.0
  0
LINE
  5
12D
330
110
100
AcDbEntity
  8
BORDER
100
AcDbLine
 10
15.0
 20
472.4375
 30
0.0
 11
20.0
 21
472.4375
 31
0.0
  0
LINE
  5
12E
330
110
100
AcDbEntity
  8
BORDER
100
AcDbLine
 10
15.0
 20
524.375
 30
0.0
 11
20.0
 21
524.375
 31
0.0
  0
LINE
  5
12F
330
110
100
AcDbEntity
  8
BORDER
100
AcDbLine
 10
15.0
 20
576.3125
 30
0.0
 11
20.0
 21
576.3125
 31
0.0
  0
LINE
  5
130
330
110
100
AcDbEntity
  8
BORDER
100
AcDbLine
 10
15.0
 20
628.25
 30
0.0
 11
20.0
 21
628.25
 31
0.0
  0
LINE
  5
131
330
110
100
AcDbEntity
  8
BORDER
100
AcDbLine
 10
15.0
 20
680.1875
 30
0.0
 11
20.0
 21
680.1875
 31
0.0
  0
LINE
  5
132
330
110
100
AcDbEntity
  8
BORDER
100
AcDbLine
 10
15.0
 20
732.125
 30
0.0
 11
20.0
 21
732.125
 31
0.0
  0
LINE
  5
133
330
110
100
AcDbEntity
  8
BORDER
100
AcDbLine
 10
15.0
 20
784.0625
 30
0.0
 11
20.0
 21
784.0625
 31
0.0
  0
LINE
  5
134
330
110
100
AcDbEntity
  8
BORDER
100
AcDbLine
 10
1174.0
 20
420.5
 30
0.0
 11
1184.0
 21
420.5
 31
0.0
  0
LINE
  5
135
330
110
100
AcDbEntity
  8
BORDER
100
AcDbLine
 10
648.208333
 20
836.0
 30
0.0
 11
648.208333
 21
831.0
 31
0.0
  0
LINE
  5
136
330
110
100
AcDbEntity
  8
BORDER
100
AcDbLine
 10
696.916666
 20
836.0
 30
0.0
 11
696.916666
 21
831.0
 31
0.0
  0
LINE
  5
137
330
110
100
AcDbEntity
  8
BORDER
100
AcDbLine
 10
745.624999
 20
836.0
 30
0.0
 11
745.624999
 21
831.0
 31
0.0
  0
LINE
  5
138
330
110
100
AcDbEntity
  8
BORDER
100
AcDbLine
 10
794.333332
 20
836.0
 30
0.0
 11
794.333332
 21
831.0
 31
0.0
  0
LINE
  5
139
330
110
100
AcDbEntity
  8
BORDER
100
AcDbLine
 10
843.041665
 20
836.0
 30
0.0
 11
843.041665
 21
831.0
 31
0.0
  0
LINE
  5
13A
330
110
100
AcDbEntity
  8
BORDER
100
AcDbLine
 10
891.749998
 20
836.0
 30
0.0
 11
891.749998
 21
831.0
 31
0.0
  0
LINE
  5
13B
330
110
100
AcDbEntity
  8
BORDER
100
AcDbLine
 10
940.458331
 20
836.0
 30
0.0
 11
940.458331
 21
831.0
 31
0.0
  0
LINE
  5
13C
330
110
100
AcDbEntity
  8
BORDER
100
AcDbLine
 10
989.166664
 20
836.0
 30
0.0
 11
989.166664
 21
831.0
 31
0.0
  0
LINE
  5
13D
330
110
100
AcDbEntity
  8
BORDER
100
AcDbLine
 10
1037.874997
 20
836.0
 30
0.0
 11
1037.874997
 21
831.0
 31
0.0
  0
LINE
  5
13E
330
110
100
AcDbEntity
  8
BORDER
100
AcDbLine
 10
1086.58333
 20
836.0
 30
0.0
 11
1086.58333
 21
831.0
 31
0.0
  0
LINE
  5
13F
330
110
100
AcDbEntity
  8
BORDER
100
AcDbLine
 10
1135.291663
 20
836.0
 30
0.0
 11
1135.291663
 21
831.0
 31
0.0
  0
TEXT
  5
140
330
110
100
AcDbEntity
  8
BORDER
100
AcDbText
 10
87.091323
 20
832.244884
 30
0.0
 40
2.5
  1
2
  7
FusionTitle
 72
     4
 11
88.062503
 21
833.5
 31
0.0
100
AcDbText
  0
TEXT
  5
141
330
110
100
AcDbEntity
  8
BORDER
100
AcDbText
 10
38.38299
 20
832.244884
 30
0.0
 40
2.5
  1
1
  7
FusionTitle
 72
     4
 11
39.35417
 21
833.5
 31
0.0
100
AcDbText
  0
TEXT
  5
142
330
110
100
AcDbEntity
  8
BORDER
100
AcDbText
 10
184.507989
 20
832.25
 30
0.0
 40
2.5
  1
4
  7
FusionTitle
 72
     4
 11
185.479169
 21
833.5
 31
0.0
100
AcDbText
  0
TEXT
  5
143
330
110
100
AcDbEntity
  8
BORDER
100
AcDbText
 10
135.799656
 20
832.267053
 30
0.0
 40
2.5
  1
3
  7
FusionTitle
 72
     4
 11
136.770836
 21
833.5
 31
0.0
100
AcDbText
  0
TEXT
  5
144
330
110
100
AcDbEntity
  8
BORDER
100
AcDbText
 10
281.924655
 20
832.266201
 30
0.0
 40
2.5
  1
6
  7
FusionTitle
 72
     4
 11
282.895835
 21
833.5
 31
0.0
100
AcDbText
  0
TEXT
  5
145
330
110
100
AcDbEntity
  8
BORDER
100
AcDbText
 10
233.216322
 20
832.28837
 30
0.0
 40
2.5
  1
5
  7
FusionTitle
 72
     4
 11
234.187502
 21
833.5
 31
0.0
100
AcDbText
  0
TEXT
  5
146
330
110
100
AcDbEntity
  8
BORDER
100
AcDbText
 10
379.341321
 20
832.266201
 30
0.0
 40
2.5
  1
8
  7
FusionTitle
 72
     4
 11
380.312501
 21
833.5
 31
0.0
100
AcDbText
  0
TEXT
  5
147
330
110
100
AcDbEntity
  8
BORDER
100
AcDbText
 10
330.632988
 20
832.266201
 30
0.0
 40
2.5
  1
7
  7
FusionTitle
 72
     4
 11
331.604168
 21
833.5
 31
0.0
100
AcDbText
  0
TEXT
  5
148
330
110
100
AcDbEntity
  8
BORDER
100
AcDbText
 10
475.786807
 20
832.266201
 30
0.0
 40
2.5
  1
10
  7
FusionTitle
 72
     4
 11
477.729168
 21
833.5
 31
0.0
100
AcDbText
  0
TEXT
  5
149
330
110
100
AcDbEntity
  8
BORDER
100
AcDbText
 10
428.049654
 20
832.266201
 30
0.0
 40
2.5
  1
9
  7
FusionTitle
 72
     4
 11
429.020835
 21
833.5
 31
0.0
100
AcDbText
  0
TEXT
  5
14A
330
110
100
AcDbEntity
  8
BORDER
100
AcDbText
 10
573.203473
 20
832.244884
 30
0.0
 40
2.5
  1
12
  7
FusionTitle
 72
     4
 11
575.145833
 21
833.5
 31
0.0
100
AcDbText
  0
TEXT
  5
14B
330
110
100
AcDbEntity
  8
BORDER
100
AcDbText
 10
524.49514
 20
832.244884
 30
0.0
 40
2.5
  1
11
  7
FusionTitle
 72
     4
 11
526.4375
 21
833.5
 31
0.0
100
AcDbText
  0
TEXT
  5
14C
330
110
100
AcDbEntity
  8
BORDER
100
AcDbText
 10
670.620139
 20
832.244884
 30
0.0
 40
2.5
  1
14
  7
FusionTitle
 72
     4
 11
672.5625
 21
833.5
 31
0.0
100
AcDbText
  0
TEXT
  5
14D
330
110
100
AcDbEntity
  8
BORDER
100
AcDbText
 10
621.911806
 20
832.267053
 30
0.0
 40
2.5
  1
13
  7
FusionTitle
 72
     4
 11
623.854167
 21
833.5
 31
0.0
100
AcDbText
  0
TEXT
  5
14E
330
110
100
AcDbEntity
  8
BORDER
100
AcDbText
 10
768.036805
 20
832.266201
 30
0.0
 40
2.5
  1
16
  7
FusionTitle
 72
     4
 11
769.979166
 21
833.5
 31
0.0
100
AcDbText
  0
TEXT
  5
14F
330
110
100
AcDbEntity
  8
BORDER
100
AcDbText
 10
719.328472
 20
832.266201
 30
0.0
 40
2.5
  1
15
  7
FusionTitle
 72
     4
 11
721.270833
 21
833.5
 31
0.0
100
AcDbText
  0
TEXT
  5
150
330
110
100
AcDbEntity
  8
BORDER
100
AcDbText
 10
865.453471
 20
832.266201
 30
0.0
 40
2.5
  1
18
  7
FusionTitle
 72
     4
 11
867.395832
 21
833.5
 31
0.0
100
AcDbText
  0
TEXT
  5
151
330
110
100
AcDbEntity
  8
BORDER
100
AcDbText
 10
816.745138
 20
832.244884
 30
0.0
 40
2.5
  1
17
  7
FusionTitle
 72
     4
 11
818.687499
 21
833.5
 31
0.0
100
AcDbText
  0
TEXT
  5
152
330
110
100
AcDbEntity
  8
BORDER
100
AcDbText
 10
962.870137
 20
832.266201
 30
0.0
 40
2.5
  1
20
  7
FusionTitle
 72
     4
 11
964.812498
 21
833.5
 31
0.0
100
AcDbText
  0
TEXT
  5
153
330
110
100
AcDbEntity
  8
BORDER
100
AcDbText
 10
914.161804
 20
832.266201
 30
0.0
 40
2.5
  1
19
  7
FusionTitle
 72
     4
 11
916.104165
 21
833.5
 31
0.0
100
AcDbText
  0
TEXT
  5
154
330
110
100
AcDbEntity
  8
BORDER
100
AcDbText
 10
1060.286803
 20
832.244884
 30
0.0
 40
2.5
  1
22
  7
FusionTitle
 72
     4
 11
1062.229164
 21
833.5
 31
0.0
100
AcDbText
  0
TEXT
  5
155
330
110
100
AcDbEntity
  8
BORDER
100
AcDbText
 10
1011.57847
 20
832.244884
 30
0.0
 40
2.5
  1
21
  7
FusionTitle
 72
     4
 11
1013.520831
 21
833.5
 31
0.0
100
AcDbText
  0
TEXT
  5
156
330
110
100
AcDbEntity
  8
BORDER
100
AcDbText
 10
1157.703469
 20
832.244884
 30
0.0
 40
2.5
  1
24
  7
FusionTitle
 72
     4
 11
1159.64583
 21
833.5
 31
0.0
100
AcDbText
  0
TEXT
  5
157
330
110
100
AcDbEntity
  8
BORDER
100
AcDbText
 10
1108.995136
 20
832.267053
 30
0.0
 40
2.5
  1
23
  7
FusionTitle
 72
     4
 11
1110.937497
 21
833.5
 31
0.0
100
AcDbText
  0
LINE
  5
158
330
110
100
AcDbEntity
  8
BORDER
100
AcDbLine
 10
550.791667
 20
10.0
 30
0.0
 11
550.791667
 21
5.0
 31
0.0
  0
LINE
  5
159
330
110
100
AcDbEntity
  8
BORDER
100
AcDbLine
 10
502.083334
 20
10.0
 30
0.0
 11
502.083334
 21
5.0
 31
0.0
  0
LINE
  5
15A
330
110
100
AcDbEntity
  8
BORDER
100
AcDbLine
 10
453.375001
 20
10.0
 30
0.0
 11
453.375001
 21
5.0
 31
0.0
  0
LINE
  5
15B
330
110
100
AcDbEntity
  8
BORDER
100
AcDbLine
 10
404.666668
 20
10.0
 30
0.0
 11
404.666668
 21
5.0
 31
0.0
  0
LINE
  5
15C
330
110
100
AcDbEntity
  8
BORDER
100
AcDbLine
 10
355.958335
 20
10.0
 30
0.0
 11
355.958335
 21
5.0
 31
0.0
  0
LINE
  5
15D
330
110
100
AcDbEntity
  8
BORDER
100
AcDbLine
 10
307.250002
 20
10.0
 30
0.0
 11
307.250002
 21
5.0
 31
0.0
  0
LINE
  5
15E
330
110
100
AcDbEntity
  8
BORDER
100
AcDbLine
 10
258.541669
 20
10.0
 30
0.0
 11
258.541669
 21
5.0
 31
0.0
  0
LINE
  5
15F
330
110
100
AcDbEntity
  8
BORDER
100
AcDbLine
 10
209.833336
 20
10.0
 30
0.0
 11
209.833336
 21
5.0
 31
0.0
  0
LINE
  5
160
330
110
100
AcDbEntity
  8
BORDER
100
AcDbLine
 10
161.125003
 20
10.0
 30
0.0
 11
161.125003
 21
5.0
 31
0.0
  0
LINE
  5
161
330
110
100
AcDbEntity
  8
BORDER
100
AcDbLine
 10
112.41667
 20
10.0
 30
0.0
 11
112.41667
 21
5.0
 31
0.0
  0
LINE
  5
162
330
110
100
AcDbEntity
  8
BORDER
100
AcDbLine
 10
63.708337
 20
10.0
 30
0.0
 11
63.708337
 21
5.0
 31
0.0
  0
LINE
  5
163
330
110
100
AcDbEntity
  8
BORDER
100
AcDbLine
 10
648.208333
 20
10.0
 30
0.0
 11
648.208333
 21
5.0
 31
0.0
  0
LINE
  5
164
330
110
100
AcDbEntity
  8
BORDER
100
AcDbLine
 10
696.916666
 20
10.0
 30
0.0
 11
696.916666
 21
5.0
 31
0.0
  0
LINE
  5
165
330
110
100
AcDbEntity
  8
BORDER
100
AcDbLine
 10
745.624999
 20
10.0
 30
0.0
 11
745.624999
 21
5.0
 31
0.0
  0
LINE
  5
166
330
110
100
AcDbEntity
  8
BORDER
100
AcDbLine
 10
794.333332
 20
10.0
 30
0.0
 11
794.333332
 21
5.0
 31
0.0
  0
LINE
  5
167
330
110
100
AcDbEntity
  8
BORDER
100
AcDbLine
 10
843.041665
 20
10.0
 30
0.0
 11
843.041665
 21
5.0
 31
0.0
  0
LINE
  5
168
330
110
100
AcDbEntity
  8
BORDER
100
AcDbLine
 10
891.749998
 20
10.0
 30
0.0
 11
891.749998
 21
5.0
 31
0.0
  0
LINE
  5
169
330
110
100
AcDbEntity
  8
BORDER
100
AcDbLine
 10
940.458331
 20
10.0
 30
0.0
 11
940.458331
 21
5.0
 31
0.0
  0
LINE
  5
16A
330
110
100
AcDbEntity
  8
BORDER
100
AcDbLine
 10
989.166664
 20
10.0
 30
0.0
 11
989.166664
 21
5.0
 31
0.0
  0
LINE
  5
16B
330
110
100
AcDbEntity
  8
BORDER
100
AcDbLine
 10
1037.874997
 20
10.0
 30
0.0
 11
1037.874997
 21
5.0
 31
0.0
  0
LINE
  5
16C
330
110
100
AcDbEntity
  8
BORDER
100
AcDbLine
 10
1086.58333
 20
10.0
 30
0.0
 11
1086.58333
 21
5.0
 31
0.0
  0
LINE
  5
16D
330
110
100
AcDbEntity
  8
BORDER
100
AcDbLine
 10
1135.291663
 20
10.0
 30
0.0
 11
1135.291663
 21
5.0
 31
0.0
  0
TEXT
  5
16E
330
110
100
AcDbEntity
  8
BORDER
100
AcDbText
 10
87.091323
 20
6.244884
 30
0.0
 40
2.5
  1
2
  7
FusionTitle
 72
     4
 11
88.062503
 21
7.5
 31
0.0
100
AcDbText
  0
TEXT
  5
16F
330
110
100
AcDbEntity
  8
BORDER
100
AcDbText
 10
38.38299
 20
6.244884
 30
0.0
 40
2.5
  1
1
  7
FusionTitle
 72
     4
 11
39.35417
 21
7.5
 31
0.0
100
AcDbText
  0
TEXT
  5
170
330
110
100
AcDbEntity
  8
BORDER
100
AcDbText
 10
184.507989
 20
6.25
 30
0.0
 40
2.5
  1
4
  7
FusionTitle
 72
     4
 11
185.479169
 21
7.5
 31
0.0
100
AcDbText
  0
TEXT
  5
171
330
110
100
AcDbEntity
  8
BORDER
100
AcDbText
 10
135.799656
 20
6.267053
 30
0.0
 40
2.5
  1
3
  7
FusionTitle
 72
     4
 11
136.770836
 21
7.5
 31
0.0
100
AcDbText
  0
TEXT
  5
172
330
110
100
AcDbEntity
  8
BORDER
100
AcDbText
 10
281.924655
 20
6.266201
 30
0.0
 40
2.5
  1
6
  7
FusionTitle
 72
     4
 11
282.895835
 21
7.5
 31
0.0
100
AcDbText
  0
TEXT
  5
173
330
110
100
AcDbEntity
  8
BORDER
100
AcDbText
 10
233.216322
 20
6.28837
 30
0.0
 40
2.5
  1
5
  7
FusionTitle
 72
     4
 11
234.187502
 21
7.5
 31
0.0
100
AcDbText
  0
TEXT
  5
174
330
110
100
AcDbEntity
  8
BORDER
100
AcDbText
 10
379.341321
 20
6.266201
 30
0.0
 40
2.5
  1
8
  7
FusionTitle
 72
     4
 11
380.312501
 21
7.5
 31
0.0
100
AcDbText
  0
TEXT
  5
175
330
110
100
AcDbEntity
  8
BORDER
100
AcDbText
 10
330.632988
 20
6.266201
 30
0.0
 40
2.5
  1
7
  7
FusionTitle
 72
     4
 11
331.604168
 21
7.5
 31
0.0
100
AcDbText
  0
TEXT
  5
176
330
110
100
AcDbEntity
  8
BORDER
100
AcDbText
 10
475.786807
 20
6.266201
 30
0.0
 40
2.5
  1
10
  7
FusionTitle
 72
     4
 11
477.729168
 21
7.5
 31
0.0
100
AcDbText
  0
TEXT
  5
177
330
110
100
AcDbEntity
  8
BORDER
100
AcDbText
 10
428.049654
 20
6.266201
 30
0.0
 40
2.5
  1
9
  7
FusionTitle
 72
     4
 11
429.020835
 21
7.5
 31
0.0
100
AcDbText
  0
TEXT
  5
178
330
110
100
AcDbEntity
  8
BORDER
100
AcDbText
 10
573.203473
 20
6.244884
 30
0.0
 40
2.5
  1
12
  7
FusionTitle
 72
     4
 11
575.145833
 21
7.5
 31
0.0
100
AcDbText
  0
TEXT
  5
179
330
110
100
AcDbEntity
  8
BORDER
100
AcDbText
 10
524.49514
 20
6.244884
 30
0.0
 40
2.5
  1
11
  7
FusionTitle
 72
     4
 11
526.4375
 21
7.5
 31
0.0
100
AcDbText
  0
TEXT
  5
17A
330
110
100
AcDbEntity
  8
BORDER
100
AcDbText
 10
670.620139
 20
6.244884
 30
0.0
 40
2.5
  1
14
  7
FusionTitle
 72
     4
 11
672.5625
 21
7.5
 31
0.0
100
AcDbText
  0
TEXT
  5
17B
330
110
100
AcDbEntity
  8
BORDER
100
AcDbText
 10
621.911806
 20
6.267053
 30
0.0
 40
2.5
  1
13
  7
FusionTitle
 72
     4
 11
623.854167
 21
7.5
 31
0.0
100
AcDbText
  0
TEXT
  5
17C
330
110
100
AcDbEntity
  8
BORDER
100
AcDbText
 10
768.036805
 20
6.266201
 30
0.0
 40
2.5
  1
16
  7
FusionTitle
 72
     4
 11
769.979166
 21
7.5
 31
0.0
100
AcDbText
  0
TEXT
  5
17D
330
110
100
AcDbEntity
  8
BORDER
100
AcDbText
 10
719.328472
 20
6.266201
 30
0.0
 40
2.5
  1
15
  7
FusionTitle
 72
     4
 11
721.270833
 21
7.5
 31
0.0
100
AcDbText
  0
TEXT
  5
17E
330
110
100
AcDbEntity
  8
BORDER
100
AcDbText
 10
865.453471
 20
6.266201
 30
0.0
 40
2.5
  1
18
  7
FusionTitle
 72
     4
 11
867.395832
 21
7.5
 31
0.0
100
AcDbText
  0
TEXT
  5
17F
330
110
100
AcDbEntity
  8
BORDER
100
AcDbText
 10
816.745138
 20
6.244884
 30
0.0
 40
2.5
  1
17
  7
FusionTitle
 72
     4
 11
818.687499
 21
7.5
 31
0.0
100
AcDbText
  0
TEXT
  5
180
330
110
100
AcDbEntity
  8
BORDER
100
AcDbText
 10
962.870137
 20
6.266201
 30
0.0
 40
2.5
  1
20
  7
FusionTitle
 72
     4
 11
964.812498
 21
7.5
 31
0.0
100
AcDbText
  0
TEXT
  5
181
330
110
100
AcDbEntity
  8
BORDER
100
AcDbText
 10
914.161804
 20
6.266201
 30
0.0
 40
2.5
  1
19
  7
FusionTitle
 72
     4
 11
916.104165
 21
7.5
 31
0.0
100
AcDbText
  0
TEXT
  5
182
330
110
100
AcDbEntity
  8
BORDER
100
AcDbText
 10
1060.286803
 20
6.244884
 30
0.0
 40
2.5
  1
22
  7
FusionTitle
 72
     4
 11
1062.229164
 21
7.5
 31
0.0
100
AcDbText
  0
TEXT
  5
183
330
110
100
AcDbEntity
  8
BORDER
100
AcDbText
 10
1011.57847
 20
6.244884
 30
0.0
 40
2.5
  1
21
  7
FusionTitle
 72
     4
 11
1013.520831
 21
7.5
 31
0.0
100
AcDbText
  0
TEXT
  5
184
330
110
100
AcDbEntity
  8
BORDER
100
AcDbText
 10
1157.703469
 20
6.244884
 30
0.0
 40
2.5
  1
24
  7
FusionTitle
 72
     4
 11
1159.64583
 21
7.5
 31
0.0
100
AcDbText
  0
TEXT
  5
185
330
110
100
AcDbEntity
  8
BORDER
100
AcDbText
 10
1108.995136
 20
6.267053
 30
0.0
 40
2.5
  1
23
  7
FusionTitle
 72
     4
 11
1110.937497
 21
7.5
 31
0.0
100
AcDbText
  0
LINE
  5
186
330
110
100
AcDbEntity
  8
BORDER
100
AcDbLine
 10
15.0
 20
368.5625
 30
0.0
 11
20.0
 21
368.5625
 31
0.0
  0
LINE
  5
187
330
110
100
AcDbEntity
  8
BORDER
100
AcDbLine
 10
15.0
 20
316.625
 30
0.0
 11
20.0
 21
316.625
 31
0.0
  0
LINE
  5
188
330
110
100
AcDbEntity
  8
BORDER
100
AcDbLine
 10
15.0
 20
264.6875
 30
0.0
 11
20.0
 21
264.6875
 31
0.0
  0
LINE
  5
189
330
110
100
AcDbEntity
  8
BORDER
100
AcDbLine
 10
15.0
 20
212.75
 30
0.0
 11
20.0
 21
212.75
 31
0.0
  0
LINE
  5
18A
330
110
100
AcDbEntity
  8
BORDER
100
AcDbLine
 10
15.0
 20
160.8125
 30
0.0
 11
20.0
 21
160.8125
 31
0.0
  0
LINE
  5
18B
330
110
100
AcDbEntity
  8
BORDER
100
AcDbLine
 10
15.0
 20
108.875
 30
0.0
 11
20.0
 21
108.875
 31
0.0
  0
LINE
  5
18C
330
110
100
AcDbEntity
  8
BORDER
100
AcDbLine
 10
15.0
 20
56.9375
 30
0.0
 11
20.0
 21
56.9375
 31
0.0
  0
TEXT
  5
18D
330
110
100
AcDbEntity
  8
BORDER
100
AcDbText
 10
16.335266
 20
756.84375
 30
0.0
 40
2.5
  1
B
  7
FusionTitle
 72
     4
 11
17.5
 21
758.09375
 31
0.0
100
AcDbText
  0
TEXT
  5
18E
330
110
100
AcDbEntity
  8
BORDER
100
AcDbText
 10
16.335266
 20
808.78125
 30
0.0
 40
2.5
  1
A
  7
FusionTitle
 72
     4
 11
17.5
 21
810.03125
 31
0.0
100
AcDbText
  0
TEXT
  5
18F
330
110
100
AcDbEntity
  8
BORDER
100
AcDbText
 10
16.238915
 20
652.96875
 30
0.0
 40
2.5
  1
D
  7
FusionTitle
 72
     4
 11
17.5
 21
654.21875
 31
0.0
100
AcDbText
  0
TEXT
  5
190
330
110
100
AcDbEntity
  8
BORDER
100
AcDbText
 10
16.238915
 20
704.90625
 30
0.0
 40
2.5
  1
C
  7
FusionTitle
 72
     4
 11
17.5
 21
706.15625
 31
0.0
100
AcDbText
  0
TEXT
  5
191
330
110
100
AcDbEntity
  8
BORDER
100
AcDbText
 10
16.433322
 20
549.09375
 30
0.0
 40
2.5
  1
F
  7
FusionTitle
 72
     4
 11
17.5
 21
550.34375
 31
0.0
100
AcDbText
  0
TEXT
  5
192
330
110
100
AcDbEntity
  8
BORDER
100
AcDbText
 10
16.335266
 20
601.03125
 30
0.0
 40
2.5
  1
E
  7
FusionTitle
 72
     4
 11
17.5
 21
602.28125
 31
0.0
100
AcDbText
  0
TEXT
  5
193
330
110
100
AcDbEntity
  8
BORDER
100
AcDbText
 10
16.238915
 20
445.21875
 30
0.0
 40
2.5
  1
H
  7
FusionTitle
 72
     4
 11
17.5
 21
446.46875
 31
0.0
100
AcDbText
  0
TEXT
  5
194
330
110
100
AcDbEntity
  8
BORDER
100
AcDbText
 10
16.141712
 20
497.15625
 30
0.0
 40
2.5
  1
G
  7
FusionTitle
 72
     4
 11
17.5
 21
498.40625
 31
0.0
100
AcDbText
  0
TEXT
  5
195
330
110
100
AcDbEntity
  8
BORDER
100
AcDbText
 10
17.014836
 20
393.28125
 30
0.0
 40
2.5
  1
I
  7
FusionTitle
 72
     4
 11
17.5
 21
394.53125
 31
0.0
100
AcDbText
  0
TEXT
  5
196
330
110
100
AcDbEntity
  8
BORDER
100
AcDbText
 10
16.335266
 20
289.40625
 30
0.0
 40
2.5
  1
K
  7
FusionTitle
 72
     4
 11
17.5
 21
290.65625
 31
0.0
100
AcDbText
  0
TEXT
  5
197
330
110
100
AcDbEntity
  8
BORDER
100
AcDbText
 10
16.626876
 20
341.365067
 30
0.0
 40
2.5
  1
J
  7
FusionTitle
 72
     4
 11
17.5
 21
342.59375
 31
0.0
100
AcDbText
  0
TEXT
  5
198
330
110
100
AcDbEntity
  8
BORDER
100
AcDbText
 10
16.045362
 20
185.53125
 30
0.0
 40
2.5
  1
M
  7
FusionTitle
 72
     4
 11
17.5
 21
186.78125
 31
0.0
100
AcDbText
  0
TEXT
  5
199
330
110
100
AcDbEntity
  8
BORDER
100
AcDbText
 10
16.52882
 20
237.46875
 30
0.0
 40
2.5
  1
L
  7
FusionTitle
 72
     4
 11
17.5
 21
238.71875
 31
0.0
100
AcDbText
  0
TEXT
  5
19A
330
110
100
AcDbEntity
  8
BORDER
100
AcDbText
 10
16.141712
 20
81.655397
 30
0.0
 40
2.5
  1
O
  7
FusionTitle
 72
     4
 11
17.5
 21
82.90625
 31
0.0
100
AcDbText
  0
TEXT
  5
19B
330
110
100
AcDbEntity
  8
BORDER
100
AcDbText
 10
16.238915
 20
133.59375
 30
0.0
 40
2.5
  1
N
  7
FusionTitle
 72
     4
 11
17.5
 21
134.84375
 31
0.0
100
AcDbText
  0
TEXT
  5
19C
330
110
100
AcDbEntity
  8
BORDER
100
AcDbText
 10
16.335266
 20
29.71875
 30
0.0
 40
2.5
  1
P
  7
FusionTitle
 72
     4
 11
17.5
 21
30.96875
 31
0.0
100
AcDbText
  0
LINE
  5
19D
330
110
100
AcDbEntity
  8
BORDER
100
AcDbLine
 10
1179.0
 20
472.4375
 30
0.0
 11
1184.0
 21
472.4375
 31
0.0
  0
LINE
  5
19E
330
110
100
AcDbEntity
  8
BORDER
100
AcDbLine
 10
1179.0
 20
524.375
 30
0.0
 11
1184.0
 21
524.375
 31
0.0
  0
LINE
  5
19F
330
110
100
AcDbEntity
  8
BORDER
100
AcDbLine
 10
1179.0
 20
576.3125
 30
0.0
 11
1184.0
 21
576.3125
 31
0.0
  0
LINE
  5
1A0
330
110
100
AcDbEntity
  8
BORDER
100
AcDbLine
 10
1179.0
 20
628.25
 30
0.0
 11
1184.0
 21
628.25
 31
0.0
  0
LINE
  5
1A1
330
110
100
AcDbEntity
  8
BORDER
100
AcDbLine
 10
1179.0
 20
680.1875
 30
0.0
 11
1184.0
 21
680.1875
 31
0.0
  0
LINE
  5
1A2
330
110
100
AcDbEntity
  8
BORDER
100
AcDbLine
 10
1179.0
 20
732.125
 30
0.0
 11
1184.0
 21
732.125
 31
0.0
  0
LINE
  5
1A3
330
110
100
AcDbEntity
  8
BORDER
100
AcDbLine
 10
1179.0
 20
784.0625
 30
0.0
 11
1184.0
 21
784.0625
 31
0.0
  0
LINE
  5
1A4
330
110
100
AcDbEntity
  8
BORDER
100
AcDbLine
 10
1179.0
 20
368.5625
 30
0.0
 11
1184.0
 21
368.5625
 31
0.0
  0
LINE
  5
1A5
330
110
100
AcDbEntity
  8
BORDER
100
AcDbLine
 10
1179.0
 20
316.625
 30
0.0
 11
1184.0
 21
316.625
 31
0.0
  0
LINE
  5
1A6
330
110
100
AcDbEntity
  8
BORDER
100
AcDbLine
 10
1179.0
 20
264.6875
 30
0.0
 11
1184.0
 21
264.6875
 31
0.0
  0
LINE
  5
1A7
330
110
100
AcDbEntity
  8
BORDER
100
AcDbLine
 10
1179.0
 20
212.75
 30
0.0
 11
1184.0
 21
212.75
 31
0.0
  0
LINE
  5
1A8
330
110
100
AcDbEntity
  8
BORDER
100
AcDbLine
 10
1179.0
 20
160.8125
 30
0.0
 11
1184.0
 21
160.8125
 31
0.0
  0
LINE
  5
1A9
330
110
100
AcDbEntity
  8
BORDER
100
AcDbLine
 10
1179.0
 20
108.875
 30
0.0
 11
1184.0
 21
108.875
 31
0.0
  0
LINE
  5
1AA
330
110
100
AcDbEntity
  8
BORDER
100
AcDbLine
 10
1179.0
 20
56.9375
 30
0.0
 11
1184.0
 21
56.9375
 31
0.0
  0
TEXT
  5
1AB
330
110
100
AcDbEntity
  8
BORDER
100
AcDbText
 10
1180.335266
 20
756.84375
 30
0.0
 40
2.5
  1
B
  7
FusionTitle
 72
     4
 11
1181.5
 21
758.09375
 31
0.0
100
AcDbText
  0
TEXT
  5
1AC
330
110
100
AcDbEntity
  8
BORDER
100
AcDbText
 10
1180.335266
 20
808.78125
 30
0.0
 40
2.5
  1
A
  7
FusionTitle
 72
     4
 11
1181.5
 21
810.03125
 31
0.0
100
AcDbText
  0
TEXT
  5
1AD
330
110
100
AcDbEntity
  8
BORDER
100
AcDbText
 10
1180.238915
 20
652.96875
 30
0.0
 40
2.5
  1
D
  7
FusionTitle
 72
     4
 11
1181.5
 21
654.21875
 31
0.0
100
AcDbText
  0
TEXT
  5
1AE
330
110
100
AcDbEntity
  8
BORDER
100
AcDbText
 10
1180.238915
 20
704.90625
 30
0.0
 40
2.5
  1
C
  7
FusionTitle
 72
     4
 11
1181.5
 21
706.15625
 31
0.0
100
AcDbText
  0
TEXT
  5
1AF
330
110
100
AcDbEntity
  8
BORDER
100
AcDbText
 10
1180.433322
 20
549.09375
 30
0.0
 40
2.5
  1
F
  7
FusionTitle
 72
     4
 11
1181.5
 21
550.34375
 31
0.0
100
AcDbText
  0
TEXT
  5
1B0
330
110
100
AcDbEntity
  8
BORDER
100
AcDbText
 10
1180.335266
 20
601.03125
 30
0.0
 40
2.5
  1
E
  7
FusionTitle
 72
     4
 11
1181.5
 21
602.28125
 31
0.0
100
AcDbText
  0
TEXT
  5
1B1
330
110
100
AcDbEntity
  8
BORDER
100
AcDbText
 10
1180.238915
 20
445.21875
 30
0.0
 40
2.5
  1
H
  7
FusionTitle
 72
     4
 11
1181.5
 21
446.46875
 31
0.0
100
AcDbText
  0
TEXT
  5
1B2
330
110
100
AcDbEntity
  8
BORDER
100
AcDbText
 10
1180.141712
 20
497.15625
 30
0.0
 40
2.5
  1
G
  7
FusionTitle
 72
     4
 11
1181.5
 21
498.40625
 31
0.0
100
AcDbText
  0
TEXT
  5
1B3
330
110
100
AcDbEntity
  8
BORDER
100
AcDbText
 10
1181.014836
 20
393.28125
 30
0.0
 40
2.5
  1
I
  7
FusionTitle
 72
     4
 11
1181.5
 21
394.53125
 31
0.0
100
AcDbText
  0
TEXT
  5
1B4
330
110
100
AcDbEntity
  8
BORDER
100
AcDbText
 10
1180.335266
 20
289.40625
 30
0.0
 40
2.5
  1
K
  7
FusionTitle
 72
     4
 11
1181.5
 21
290.65625
 31
0.0
100
AcDbText
  0
TEXT
  5
1B5
330
110
100
AcDbEntity
  8
BORDER
100
AcDbText
 10
1180.626876
 20
341.365067
 30
0.0
 40
2.5
  1
J
  7
FusionTitle
 72
     4
 11
1181.5
 21
342.59375
 31
0.0
100
AcDbText
  0
TEXT
  5
1B6
330
110
100
AcDbEntity
  8
BORDER
100
AcDbText
 10
1180.045362
 20
185.53125
 30
0.0
 40
2.5
  1
M
  7
FusionTitle
 72
     4
 11
1181.5
 21
186.78125
 31
0.0
100
AcDbText
  0
TEXT
  5
1B7
330
110
100
AcDbEntity
  8
BORDER
100
AcDbText
 10
1180.52882
 20
237.46875
 30
0.0
 40
2.5
  1
L
  7
FusionTitle
 72
     4
 11
1181.5
 21
238.71875
 31
0.0
100
AcDbText
  0
TEXT
  5
1B8
330
110
100
AcDbEntity
  8
BORDER
100
AcDbText
 10
1180.141712
 20
81.655397
 30
0.0
 40
2.5
  1
O
  7
FusionTitle
 72
     4
 11
1181.5
 21
82.90625
 31
0.0
100
AcDbText
  0
TEXT
  5
1B9
330
110
100
AcDbEntity
  8
BORDER
100
AcDbText
 10
1180.238915
 20
133.59375
 30
0.0
 40
2.5
  1
N
  7
FusionTitle
 72
     4
 11
1181.5
 21
134.84375
 31
0.0
100
AcDbText
  0
TEXT
  5
1BA
330
110
100
AcDbEntity
  8
BORDER
100
AcDbText
 10
1180.335266
 20
29.71875
 30
0.0
 40
2.5
  1
P
  7
FusionTitle
 72
     4
 11
1181.5
 21
30.96875
 31
0.0
100
AcDbText
  0
ENDBLK
  5
1BB
330
110
100
AcDbEntity
  8
0
100
AcDbBlockEnd
  0
BLOCK
  5
1C1
330
1BE
100
AcDbEntity
  8
0
100
AcDbBlockBegin
  2
ISO_TITLEBLOCK
 70
     2
 10
0.0
 20
0.0
 30
0.0
  3
ISO_TITLEBLOCK
  1

  0
LINE
  5
1C2
330
1BE
100
AcDbEntity
  8
TITLEBLOCK
100
AcDbLine
 10
-180.0
 20
0.0
 30
0.0
 11
0.0
 21
0.0
 31
0.0
  0
LINE
  5
1C3
330
1BE
100
AcDbEntity
  8
TITLEBLOCK
100
AcDbLine
 10
-61.0
 20
10.0
 30
0.0
 11
0.0
 21
10.0
 31
0.0
  0
LINE
  5
1C4
330
1BE
100
AcDbEntity
  8
TITLEBLOCK
100
AcDbLine
 10
-122.0
 20
27.0
 30
0.0
 11
0.0
 21
27.0
 31
0.0
  0
LINE
  5
1C5
330
1BE
100
AcDbEntity
  8
TITLEBLOCK
100
AcDbLine
 10
-180.0
 20
37.0
 30
0.0
 11
0.0
 21
37.0
 31
0.0
  0
LINE
  5
1C6
330
1BE
100
AcDbEntity
  8
TITLEBLOCK
100
AcDbLine
 10
0.0
 20
0.0
 30
0.0
 11
0.0
 21
47.0
 31
0.0
  0
LINE
  5
1C7
330
1BE
100
AcDbEntity
  8
TITLEBLOCK
100
AcDbLine
 10
-15.0
 20
0.0
 30
0.0
 11
-15.0
 21
10.0
 31
0.0
  0
LINE
  5
1C8
330
1BE
100
AcDbEntity
  8
TITLEBLOCK
100
AcDbLine
 10
-51.0
 20
0.0
 30
0.0
 11
-51.0
 21
10.0
 31
0.0
  0
LINE
  5
1C9
330
1BE
100
AcDbEntity
  8
TITLEBLOCK
100
AcDbLine
 10
-61.0
 20
0.0
 30
0.0
 11
-61.0
 21
47.0
 31
0.0
  0
LINE
  5
1CA
330
1BE
100
AcDbEntity
  8
TITLEBLOCK
100
AcDbLine
 10
-122.0
 20
0.0
 30
0.0
 11
-122.0
 21
47.0
 31
0.0
  0
LINE
  5
1CB
330
1BE
100
AcDbEntity
  8
TITLEBLOCK
100
AcDbLine
 10
-156.0
 20
37.0
 30
0.0
 11
-156.0
 21
47.0
 31
0.0
  0
LINE
  5
1CC
330
1BE
100
AcDbEntity
  8
TITLEBLOCK
100
AcDbLine
 10
0.0
 20
47.0
 30
0.0
 11
-180.0
 21
47.0
 31
0.0
  0
LINE
  5
1CD
330
1BE
100
AcDbEntity
  8
TITLEBLOCK
100
AcDbLine
 10
-180.0
 20
47.0
 30
0.0
 11
-180.0
 21
0.0
 31
0.0
  0
TEXT
  5
1CE
330
1BE
100
AcDbEntity
  8
TITLEBLOCK
100
AcDbText
 10
-179.0
 20
44.2
 30
0.0
 40
1.8
  1
Dept.
  7
FusionTitle
 11
-179.0
 21
46.0
 31
0.0
100
AcDbText
 73
     3
  0
TEXT
  5
1CF
330
1BE
100
AcDbEntity
  8
TITLEBLOCK
100
AcDbText
 10
-155.0
 20
44.2
 30
0.0
 40
1.8
  1
Technical reference
  7
FusionTitle
 11
-155.0
 21
46.0
 31
0.0
100
AcDbText
 73
     3
  0
TEXT
  5
1D0
330
1BE
100
AcDbEntity
  8
TITLEBLOCK
100
AcDbText
 10
-121.0
 20
44.2
 30
0.0
 40
1.8
  1
Created by
  7
FusionTitle
 11
-121.0
 21
46.0
 31
0.0
100
AcDbText
 73
     3
  0
TEXT
  5
1D1
330
1BE
100
AcDbEntity
  8
TITLEBLOCK
100
AcDbText
 10
-60.0
 20
44.2
 30
0.0
 40
1.8
  1
Approved by
  7
FusionTitle
 11
-60.0
 21
46.0
 31
0.0
100
AcDbText
 73
     3
  0
TEXT
  5
1D2
330
1BE
100
AcDbEntity
  8
TITLEBLOCK
100
AcDbText
 10
-121.0
 20
34.2
 30
0.0
 40
1.8
  1
Document type
  7
FusionTitle
 11
-121.0
 21
36.0
 31
0.0
100
AcDbText
 73
     3
  0
TEXT
  5
1D3
330
1BE
100
AcDbEntity
  8
TITLEBLOCK
100
AcDbText
 10
-60.0
 20
34.2
 30
0.0
 40
1.8
  1
Document status
  7
FusionTitle
 11
-60.0
 21
36.0
 31
0.0
100
AcDbText
 73
     3
  0
TEXT
  5
1D4
330
1BE
100
AcDbEntity
  8
TITLEBLOCK
100
AcDbText
 10
-121.0
 20
24.2
 30
0.0
 40
1.8
  1
Title
  7
FusionTitle
 11
-121.0
 21
26.0
 31
0.0
100
AcDbText
 73
     3
  0
TEXT
  5
1D5
330
1BE
100
AcDbEntity
  8
TITLEBLOCK
100
AcDbText
 10
-60.0
 20
24.2
 30
0.0
 40
1.8
  1
DWG No.
  7
FusionTitle
 11
-60.0
 21
26.0
 31
0.0
100
AcDbText
 73
     3
  0
TEXT
  5
1D6
330
1BE
100
AcDbEntity
  8
TITLEBLOCK
100
AcDbText
 10
-60.0
 20
7.2
 30
0.0
 40
1.8
  1
Rev.
  7
FusionTitle
 11
-60.0
 21
9.0
 31
0.0
100
AcDbText
 73
     3
  0
TEXT
  5
1D7
330
1BE
100
AcDbEntity
  8
TITLEBLOCK
100
AcDbText
 10
-50.0
 20
7.2
 30
0.0
 40
1.8
  1
Date of issue
  7
FusionTitle
 11
-50.0
 21
9.0
 31
0.0
100
AcDbText
 73
     3
  0
TEXT
  5
1D8
330
1BE
100
AcDbEntity
  8
TITLEBLOCK
100
AcDbText
 10
-14.0
 20
7.2
 30
0.0
 40
1.8
  1
Sheet
  7
FusionTitle
 11
-14.0
 21
9.0
 31
0.0
100
AcDbText
 73
     3
  0
ATTDEF
  5
1D9
102
{ACAD_XDICTIONARY
360
1DA
102
}
330
1BE
100
AcDbEntity
  8
TITLEBLOCK
100
AcDbText
 10
-50.0
 20
1.5
 30
0.0
 40
3.5
  1

  7
FusionTitle
 11
-50.0
 21
5.0
 31
0.0
100
AcDbAttributeDefinition
280
     0
  3
Date of issue
  2
DATE_OF_ISSUE
 70
     0
 74
     3
280
     1
  0
ATTDEF
  5
1DB
102
{ACAD_XDICTIONARY
360
1DC
102
}
330
1BE
100
AcDbEntity
  8
TITLEBLOCK
100
AcDbText
 10
-61.026774
 20
1.35
 30
0.0
 40
3.5
  1

  7
FusionTitle
 72
     1
 11
-56.0
 21
4.85
 31
0.0
100
AcDbAttributeDefinition
280
     0
  3
Revision
  2
REV
 70
     0
 74
     3
280
     1
  0
ATTDEF
  5
1DD
102
{ACAD_XDICTIONARY
360
1DE
102
}
330
1BE
100
AcDbEntity
  8
TITLEBLOCK
100
AcDbText
 10
-121.0
 20
1.5
 30
0.0
 40
5.0
  1

  7
FusionTitle
 11
-121.0
 21
6.5
 31
0.0
100
AcDbAttributeDefinition
280
     0
  3
3rd Title
  2
TITLE_3
 70
     0
 74
     3
280
     1
  0
ATTDEF
  5
1DF
102
{ACAD_XDICTIONARY
360
1E0
102
}
330
1BE
100
AcDbEntity
  8
TITLEBLOCK
100
AcDbText
 10
-60.0
 20
28.5
 30
0.0
 40
3.5
  1

  7
FusionTitle
 11
-60.0
 21
32.0
 31
0.0
100
AcDbAttributeDefinition
280
     0
  3
Document status
  2
DOCUMENT_STATUS
 70
     0
 74
     3
280
     1
  0
ATTDEF
  5
1E1
102
{ACAD_XDICTIONARY
360
1E2
102
}
330
1BE
100
AcDbEntity
  8
TITLEBLOCK
100
AcDbText
 10
-121.0
 20
28.5
 30
0.0
 40
3.5
  1

  7
FusionTitle
 11
-121.0
 21
32.0
 31
0.0
100
AcDbAttributeDefinition
280
     0
  3
Document type
  2
DOCUMENT_TYPE
 70
     0
 74
     3
280
     1
  0
ATTDEF
  5
1E3
102
{ACAD_XDICTIONARY
360
1E4
102
}
330
1BE
100
AcDbEntity
  8
TITLEBLOCK
100
AcDbText
 10
-43.923943
 20
38.5
 30
0.0
 40
3.5
  1

  7
FusionTitle
 72
     2
 11
-0.992838
 21
42.0
 31
0.0
100
AcDbAttributeDefinition
280
     0
  3
Approved date
  2
APPROVED_DATE
 70
     0
 74
     3
280
     1
  0
ATTDEF
  5
1E5
102
{ACAD_XDICTIONARY
360
1E6
102
}
330
1BE
100
AcDbEntity
  8
TITLEBLOCK
100
AcDbText
 10
-101.123124
 20
38.5
 30
0.0
 40
3.5
  1

  7
FusionTitle
 72
     2
 11
-62.0
 21
42.0
 31
0.0
100
AcDbAttributeDefinition
280
     0
  3
Created date
  2
CREATED_DATE
 70
     0
 74
     3
280
     1
  0
ATTDEF
  5
1E7
102
{ACAD_XDICTIONARY
360
1E8
102
}
330
1BE
100
AcDbEntity
  8
TITLEBLOCK
100
AcDbText
 10
-15.65075
 20
1.35
 30
0.0
 40
3.5
  1

  7
FusionTitle
 72
     1
 11
-7.5
 21
4.85
 31
0.0
100
AcDbAttributeDefinition
280
     0
  3
Sheet
  2
SHEET
 70
     0
 74
     3
280
     1
  0
ATTDEF
  5
1E9
102
{ACAD_XDICTIONARY
360
1EA
102
}
330
1BE
100
AcDbEntity
  8
TITLEBLOCK
100
AcDbText
 10
-121.0
 20
9.0
 30
0.0
 40
5.0
  1

  7
FusionTitle
 11
-121.0
 21
14.0
 31
0.0
100
AcDbAttributeDefinition
280
     0
  3
2nd Title
  2
TITLE_2
 70
     0
 74
     3
280
     1
  0
ATTDEF
  5
1EB
102
{ACAD_XDICTIONARY
360
1EC
102
}
330
1BE
100
AcDbEntity
  8
TITLEBLOCK
100
AcDbText
 10
-64.456344
 20
14.751432
 30
0.0
 40
5.0
  1

  7
FusionTitle
 72
     1
 11
-30.5
 21
19.751432
 31
0.0
100
AcDbAttributeDefinition
280
     0
  3
Drawing number
  2
DRAWING_NUMBER
 70
     0
 74
     3
280
     1
  0
ATTDEF
  5
1ED
102
{ACAD_XDICTIONARY
360
1EE
102
}
330
1BE
100
AcDbEntity
  8
TITLEBLOCK
100
AcDbText
 10
-121.0
 20
16.5
 30
0.0
 40
5.0
  1

  7
FusionTitle
 11
-121.0
 21
21.5
 31
0.0
100
AcDbAttributeDefinition
280
     0
  3
1st Title
  2
TITLE_1
 70
     0
 74
     3
280
     1
  0
ATTDEF
  5
1EF
102
{ACAD_XDICTIONARY
360
1F0
102
}
330
1BE
100
AcDbEntity
  8
TITLEBLOCK
100
AcDbText
 10
-60.0
 20
38.5
 30
0.0
 40
3.5
  1

  7
FusionTitle
 11
-60.0
 21
42.0
 31
0.0
100
AcDbAttributeDefinition
280
     0
  3
Approved by
  2
APPROVED_BY
 70
     0
 74
     3
280
     1
  0
ATTDEF
  5
1F1
102
{ACAD_XDICTIONARY
360
1F2
102
}
330
1BE
100
AcDbEntity
  8
TITLEBLOCK
100
AcDbText
 10
-121.0
 20
38.5
 30
0.0
 40
3.5
  1

  7
FusionTitle
 11
-121.0
 21
42.0
 31
0.0
100
AcDbAttributeDefinition
280
     0
  3
Created by
  2
CREATED_BY
 70
     0
 74
     3
280
     1
  0
ATTDEF
  5
1F3
102
{ACAD_XDICTIONARY
360
1F4
102
}
330
1BE
100
AcDbEntity
  8
TITLEBLOCK
100
AcDbText
 10
-155.0
 20
38.5
 30
0.0
 40
3.5
  1

  7
FusionTitle
 11
-155.0
 21
42.0
 31
0.0
100
AcDbAttributeDefinition
280
     0
  3
Technical reference
  2
TECHNICAL_REFERENCE
 70
     0
 74
     3
280
     1
  0
ATTDEF
  5
1F5
102
{ACAD_XDICTIONARY
360
1F6
102
}
330
1BE
100
AcDbEntity
  8
TITLEBLOCK
100
AcDbText
 10
-179.0
 20
38.5
 30
0.0
 40
3.5
  1

  7
FusionTitle
 11
-179.0
 21
42.0
 31
0.0
100
AcDbAttributeDefinition
280
     0
  3
Department
  2
DEPT
 70
     0
 74
     3
280
     1
  0
ENDBLK
  5
1F7
330
1BE
100
AcDbEntity
  8
0
100
AcDbBlockEnd
  0
BLOCK
  5
20B
330
20A
100
AcDbEntity
  8
0
100
AcDbBlockBegin
  2
*D4
 70
     1
 10
0.0
 20
0.0
 30
0.0
  3
*D4
  1

  0
LINE
  5
20C
330
20A
100
AcDbEntity
  8
FD_Dimensions
 62
     0
440
 16777216
370
    -2
100
AcDbLine
 10
1132.038615
 20
471.094868
 30
0.0
 11
1160.186232
 21
471.094868
 31
0.0
  0
LINE
  5
20D
330
20A
100
AcDbEntity
  8
FD_Dimensions
 62
     0
440
 16777216
370
    -2
100
AcDbLine
 10
1025.438615
 20
413.094868
 30
0.0
 11
1160.186232
 21
413.094868
 31
0.0
  0
LINE
  5
20E
330
20A
100
AcDbEntity
  8
FD_Dimensions
 62
     0
440
 16777216
370
    -2
100
AcDbLine
 10
1158.086232
 20
467.594868
 30
0.0
 11
1158.086232
 21
416.594868
 31
0.0
  0
SOLID
  5
20F
330
20A
100
AcDbEntity
  8
FD_Dimensions
 62
     0
440
 16777216
100
AcDbTrace
 10
1157.502899
 20
467.594868
 30
0.0
 11
1158.669566
 21
467.594868
 31
0.0
 12
1158.086232
 22
471.094868
 32
0.0
 13
1158.086232
 23
471.094868
 33
0.0
  0
SOLID
  5
210
330
20A
100
AcDbEntity
  8
FD_Dimensions
 62
     0
440
 16777216
100
AcDbTrace
 10
1157.502899
 20
416.594868
 30
0.0
 11
1158.669566
 21
416.594868
 31
0.0
 12
1158.086232
 22
413.094868
 32
0.0
 13
1158.086232
 23
413.094868
 33
0.0
  0
MTEXT
  5
211
330
20A
100
AcDbEntity
  8
FD_Dimensions
 62
     0
440
 16777216
100
AcDbMText
 10
1154.899227
 20
442.094868
 30
0.0
 40
3.5
 41
0.0
 46
0.0
 71
     5
 72
     1
  1
58
 11
0.0
 21
1.0
 31
0.0
 73
     1
 44
1.0
  0
POINT
  5
212
330
20A
100
AcDbEntity
  8
Defpoints
 62
     0
440
 16777216
100
AcDbPoint
 10
1129.938615
 20
471.094868
 30
0.0
  0
POINT
  5
213
330
20A
100
AcDbEntity
  8
Defpoints
 62
     0
440
 16777216
100
AcDbPoint
 10
1023.338615
 20
413.094868
 30
0.0
  0
POINT
  5
214
330
20A
100
AcDbEntity
  8
Defpoints
 62
     0
440
 16777216
100
AcDbPoint
 10
1158.086232
 20
413.094868
 30
0.0
  0
ENDBLK
  5
215
330
20A
100
AcDbEntity
  8
0
100
AcDbBlockEnd
  0
BLOCK
  5
218
330
217
100
AcDbEntity
  8
0
100
AcDbBlockBegin
  2
*D5
 70
     1
 10
0.0
 20
0.0
 30
0.0
  3
*D5
  1

  0
LINE
  5
219
330
217
100
AcDbEntity
  8
FD_Dimensions
 62
     0
440
 16777216
370
    -2
100
AcDbLine
 10
58.838615
 20
413.994868
 30
0.0
 11
58.838615
 21
389.711545
 31
0.0
  0
LINE
  5
21A
330
217
100
AcDbEntity
  8
FD_Dimensions
 62
     0
440
 16777216
370
    -2
100
AcDbLine
 10
1138.338615
 20
413.994868
 30
0.0
 11
1138.338615
 21
389.711545
 31
0.0
  0
LINE
  5
21B
330
217
100
AcDbEntity
  8
FD_Dimensions
 62
     0
440
 16777216
370
    -2
100
AcDbLine
 10
62.338615
 20
391.811545
 30
0.0
 11
1134.838615
 21
391.811545
 31
0.0
  0
SOLID
  5
21C
330
217
100
AcDbEntity
  8
FD_Dimensions
 62
     0
440
 16777216
100
AcDbTrace
 10
62.338615
 20
392.394878
 30
0.0
 11
62.338615
 21
391.228212
 31
0.0
 12
58.838615
 22
391.811545
 32
0.0
 13
58.838615
 23
391.811545
 33
0.0
  0
SOLID
  5
21D
330
217
100
AcDbEntity
  8
FD_Dimensions
 62
     0
440
 16777216
100
AcDbTrace
 10
1134.838615
 20
392.394878
 30
0.0
 11
1134.838615
 21
391.228212
 31
0.0
 12
1138.338615
 22
391.811545
 32
0.0
 13
1138.338615
 23
391.811545
 33
0.0
  0
MTEXT
  5
21E
330
217
100
AcDbEntity
  8
FD_Dimensions
 62
     0
440
 16777216
100
AcDbMText
 10
598.588615
 20
394.99855
 30
0.0
 40
3.5
 41
0.0
 46
0.0
 71
     5
 72
     1
  1
1079.5
 73
     1
 44
1.0
  0
POINT
  5
21F
330
217
100
AcDbEntity
  8
Defpoints
 62
     0
440
 16777216
100
AcDbPoint
 10
58.838615
 20
416.094868
 30
0.0
  0
POINT
  5
220
330
217
100
AcDbEntity
  8
Defpoints
 62
     0
440
 16777216
100
AcDbPoint
 10
1138.338615
 20
416.094868
 30
0.0
  0
POINT
  5
221
330
217
100
AcDbEntity
  8
Defpoints
 62
     0
440
 16777216
100
AcDbPoint
 10
1138.338615
 20
391.811545
 30
0.0
  0
ENDBLK
  5
222
330
217
100
AcDbEntity
  8
0
100
AcDbBlockEnd
  0
BLOCK
  5
227
330
226
100
AcDbEntity
  8
0
100
AcDbBlockBegin
  2
*D6
 70
     1
 10
0.0
 20
0.0
 30
0.0
  3
*D6
  1

  0
LINE
  5
2E3
330
226
100
AcDbEntity
  8
FD_Dimensions
 62
     0
440
 16777216
370
    -2
100
AcDbLine
 10
1132.038615
 20
471.094868
 30
0.0
 11
1160.186232
 21
471.094868
 31
0.0
  0
LINE
  5
2E4
330
226
100
AcDbEntity
  8
FD_Dimensions
 62
     0
440
 16777216
370
    -2
100
AcDbLine
 10
1025.438615
 20
413.094868
 30
0.0
 11
1160.186232
 21
413.094868
 31
0.0
  0
LINE
  5
2E5
330
226
100
AcDbEntity
  8
FD_Dimensions
 62
     0
440
 16777216
370
    -2
100
AcDbLine
 10
1158.086232
 20
467.594868
 30
0.0
 11
1158.086232
 21
416.594868
 31
0.0
  0
SOLID
  5
2E6
330
226
100
AcDbEntity
  8
FD_Dimensions
 62
     0
440
 16777216
100
AcDbTrace
 10
1157.502899
 20
467.594868
 30
0.0
 11
1158.669566
 21
467.594868
 31
0.0
 12
1158.086232
 22
471.094868
 32
0.0
 13
1158.086232
 23
471.094868
 33
0.0
  0
SOLID
  5
2E7
330
226
100
AcDbEntity
  8
FD_Dimensions
 62
     0
440
 16777216
100
AcDbTrace
 10
1157.502899
 20
416.594868
 30
0.0
 11
1158.669566
 21
416.594868
 31
0.0
 12
1158.086232
 22
413.094868
 32
0.0
 13
1158.086232
 23
413.094868
 33
0.0
  0
MTEXT
  5
2E8
330
226
100
AcDbEntity
  8
FD_Dimensions
 62
     0
440
 16777216
100
AcDbMText
 10
1154.899227
 20
442.094868
 30
0.0
 40
3.5
 41
0.0
 46
0.0
 71
     5
 72
     1
  1
58
 11
0.0
 21
1.0
 31
0.0
 73
     1
 44
1.0
  0
POINT
  5
2E9
330
226
100
AcDbEntity
  8
Defpoints
 62
     0
440
 16777216
100
AcDbPoint
 10
1129.938615
 20
471.094868
 30
0.0
  0
POINT
  5
2EA
330
226
100
AcDbEntity
  8
Defpoints
 62
     0
440
 16777216
100
AcDbPoint
 10
1023.338615
 20
413.094868
 30
0.0
  0
POINT
  5
2EB
330
226
100
AcDbEntity
  8
Defpoints
 62
     0
440
 16777216
100
AcDbPoint
 10
1158.086232
 20
413.094868
 30
0.0
  0
ENDBLK
  5
228
330
226
100
AcDbEntity
  8
0
100
AcDbBlockEnd
  0
BLOCK
  5
233
330
232
100
AcDbEntity
  8
0
100
AcDbBlockBegin
  2
*D7
 70
     1
 10
0.0
 20
0.0
 30
0.0
  3
*D7
  1

  0
LINE
  5
2EC
330
232
100
AcDbEntity
  8
FD_Dimensions
 62
     0
440
 16777216
370
    -2
100
AcDbLine
 10
58.838615
 20
413.994868
 30
0.0
 11
58.838615
 21
389.711545
 31
0.0
  0
LINE
  5
2ED
330
232
100
AcDbEntity
  8
FD_Dimensions
 62
     0
440
 16777216
370
    -2
100
AcDbLine
 10
1138.338615
 20
413.994868
 30
0.0
 11
1138.338615
 21
389.711545
 31
0.0
  0
LINE
  5
2EE
330
232
100
AcDbEntity
  8
FD_Dimensions
 62
     0
440
 16777216
370
    -2
100
AcDbLine
 10
62.338615
 20
391.811545
 30
0.0
 11
1134.838615
 21
391.811545
 31
0.0
  0
SOLID
  5
2EF
330
232
100
AcDbEntity
  8
FD_Dimensions
 62
     0
440
 16777216
100
AcDbTrace
 10
62.338615
 20
392.394878
 30
0.0
 11
62.338615
 21
391.228212
 31
0.0
 12
58.838615
 22
391.811545
 32
0.0
 13
58.838615
 23
391.811545
 33
0.0
  0
SOLID
  5
2F0
330
232
100
AcDbEntity
  8
FD_Dimensions
 62
     0
440
 16777216
100
AcDbTrace
 10
1134.838615
 20
392.394878
 30
0.0
 11
1134.838615
 21
391.228212
 31
0.0
 12
1138.338615
 22
391.811545
 32
0.0
 13
1138.338615
 23
391.811545
 33
0.0
  0
MTEXT
  5
2F1
330
232
100
AcDbEntity
  8
FD_Dimensions
 62
     0
440
 16777216
100
AcDbMText
 10
598.588615
 20
394.99855
 30
0.0
 40
3.5
 41
0.0
 46
0.0
 71
     5
 72
     1
  1
1079.5
 73
     1
 44
1.0
  0
POINT
  5
2F2
330
232
100
AcDbEntity
  8
Defpoints
 62
     0
440
 16777216
100
AcDbPoint
 10
58.838615
 20
416.094868
 30
0.0
  0
POINT
  5
2F3
330
232
100
AcDbEntity
  8
Defpoints
 62
     0
440
 16777216
100
AcDbPoint
 10
1138.338615
 20
416.094868
 30
0.0
  0
POINT
  5
2F4
330
232
100
AcDbEntity
  8
Defpoints
 62
     0
440
 16777216
100
AcDbPoint
 10
1138.338615
 20
391.811545
 30
0.0
  0
ENDBLK
  5
234
330
232
100
AcDbEntity
  8
0
100
AcDbBlockEnd
  0
ENDSEC
  0
SECTION
  2
ENTITIES
  0
INSERT
  5
10E
330
70
100
AcDbEntity
  8
BORDER
100
AcDbBlockReference
  2
ISO_A0_SHEET
 10
0.0
 20
0.0
 30
0.0
  0
INSERT
  5
1BC
330
70
100
AcDbEntity
  8
TITLEBLOCK
100
AcDbBlockReference
 66
     1
  2
ISO_TITLEBLOCK
 10
1179.0
 20
10.0
 30
0.0
  0
ATTRIB
  5
1F8
330
1BC
100
AcDbEntity
  8
TITLEBLOCK
100
AcDbText
 10
1129.0
 20
11.5
 30
0.0
 40
3.5
  1

  7
FusionTitle
 11
1129.0
 21
15.0
 31
0.0
100
AcDbAttribute
280
     0
  2
DATE_OF_ISSUE
 70
     0
 74
     3
280
     1
  0
ATTRIB
  5
1F9
330
1BC
100
AcDbEntity
  8
TITLEBLOCK
100
AcDbText
 10
1123.0
 20
11.35
 30
0.0
 40
3.5
  1

  7
FusionTitle
 72
     1
 11
1123.0
 21
14.85
 31
0.0
100
AcDbAttribute
280
     0
  2
REV
 70
     0
 74
     3
280
     1
  0
ATTRIB
  5
1FA
330
1BC
100
AcDbEntity
  8
TITLEBLOCK
100
AcDbText
 10
1058.0
 20
11.5
 30
0.0
 40
5.0
  1

  7
FusionTitle
 11
1058.0
 21
16.5
 31
0.0
100
AcDbAttribute
280
     0
  2
TITLE_3
 70
     0
 74
     3
280
     1
  0
ATTRIB
  5
1FB
330
1BC
100
AcDbEntity
  8
TITLEBLOCK
100
AcDbText
 10
1119.0
 20
38.5
 30
0.0
 40
3.5
  1

  7
FusionTitle
 11
1119.0
 21
42.0
 31
0.0
100
AcDbAttribute
280
     0
  2
DOCUMENT_STATUS
 70
     0
 74
     3
280
     1
  0
ATTRIB
  5
1FC
330
1BC
100
AcDbEntity
  8
TITLEBLOCK
100
AcDbText
 10
1058.0
 20
38.5
 30
0.0
 40
3.5
  1

  7
FusionTitle
 11
1058.0
 21
42.0
 31
0.0
100
AcDbAttribute
280
     0
  2
DOCUMENT_TYPE
 70
     0
 74
     3
280
     1
  0
ATTRIB
  5
1FD
330
1BC
100
AcDbEntity
  8
TITLEBLOCK
100
AcDbText
 10
1178.007162
 20
48.5
 30
0.0
 40
3.5
  1

  7
FusionTitle
 72
     2
 11
1178.007162
 21
52.0
 31
0.0
100
AcDbAttribute
280
     0
  2
APPROVED_DATE
 70
     0
 74
     3
280
     1
  0
ATTRIB
  5
1FE
330
1BC
100
AcDbEntity
  8
TITLEBLOCK
100
AcDbText
 10
1091.989086
 20
48.5
 30
0.0
 40
3.5
  1
19-12-2025
  7
FusionTitle
 72
     2
 11
1117.0
 21
52.0
 31
0.0
100
AcDbAttribute
280
     0
  2
CREATED_DATE
 70
     0
 74
     3
280
     1
  0
ATTRIB
  5
1FF
330
1BC
100
AcDbEntity
  8
TITLEBLOCK
100
AcDbText
 10
1168.101467
 20
11.35
 30
0.0
 40
3.5
  1
1/1
  7
FusionTitle
 72
     1
 11
1171.5
 21
14.85
 31
0.0
100
AcDbAttribute
280
     0
  2
SHEET
 70
     0
 74
     3
280
     1
  0
ATTRIB
  5
200
330
1BC
100
AcDbEntity
  8
TITLEBLOCK
100
AcDbText
 10
1058.0
 20
19.0
 30
0.0
 40
5.0
  1

  7
FusionTitle
 11
1058.0
 21
24.0
 31
0.0
100
AcDbAttribute
280
     0
  2
TITLE_2
 70
     0
 74
     3
280
     1
  0
ATTRIB
  5
201
330
1BC
100
AcDbEntity
  8
TITLEBLOCK
100
AcDbText
 10
1148.5
 20
24.751432
 30
0.0
 40
5.0
  1

  7
FusionTitle
 72
     1
 11
1148.5
 21
29.751432
 31
0.0
100
AcDbAttribute
280
     0
  2
DRAWING_NUMBER
 70
     0
 74
     3
280
     1
  0
ATTRIB
  5
202
330
1BC
100
AcDbEntity
  8
TITLEBLOCK
100
AcDbText
 10
1058.0
 20
26.5
 30
0.0
 40
5.0
  1
LED Matrix O2 & O3
 41
0.922929
  7
FusionTitle
 11
1058.0
 21
31.5
 31
0.0
100
AcDbAttribute
280
     0
  2
TITLE_1
 70
     0
 74
     3
280
     1
1001
FUSIONTITLEBLOCKATTRIBUTEOVERRIDE
1070
     1
  0
ATTRIB
  5
203
330
1BC
100
AcDbEntity
  8
TITLEBLOCK
100
AcDbText
 10
1119.0
 20
48.5
 30
0.0
 40
3.5
  1

  7
FusionTitle
 11
1119.0
 21
52.0
 31
0.0
100
AcDbAttribute
280
     0
  2
APPROVED_BY
 70
     0
 74
     3
280
     1
  0
ATTRIB
  5
204
330
1BC
100
AcDbEntity
  8
TITLEBLOCK
100
AcDbText
 10
1058.0
 20
48.5
 30
0.0
 40
3.5
  1
Sharad Patel
  7
FusionTitle
 11
1058.0
 21
52.0
 31
0.0
100
AcDbAttribute
280
     0
  2
CREATED_BY
 70
     0
 74
     3
280
     1
  0
ATTRIB
  5
205
330
1BC
100
AcDbEntity
  8
TITLEBLOCK
100
AcDbText
 10
1024.0
 20
48.5
 30
0.0
 40
3.5
  1

  7
FusionTitle
 11
1024.0
 21
52.0
 31
0.0
100
AcDbAttribute
280
     0
  2
TECHNICAL_REFERENCE
 70
     0
 74
     3
280
     1
  0
ATTRIB
  5
206
330
1BC
100
AcDbEntity
  8
TITLEBLOCK
100
AcDbText
 10
1000.0
 20
48.5
 30
0.0
 40
3.5
  1

  7
FusionTitle
 11
1000.0
 21
52.0
 31
0.0
100
AcDbAttribute
280
     0
  2
DEPT
 70
     0
 74
     3
280
     1
  0
SEQEND
  5
207
330
1BC
100
AcDbEntity
  8
TITLEBLOCK
  0
DIMENSION
  5
208
330
70
100
AcDbEntity
  8
FD_Dimensions
100
AcDbDimension
280
     0
  2
*D6
 10
1158.086232
 20
413.094868
 30
0.0
 11
1154.899227
 21
442.094868
 31
0.0
 70
    32
 71
     5
 42
58.0
 73
     0
 74
     0
 75
     0
  3
Dim-ISO-25
100
AcDbAlignedDimension
 13
1129.938615
 23
471.094868
 33
0.0
 14
1023.338615
 24
413.094868
 34
0.0
 50
90.0
100
AcDbRotatedDimension
1001
ACAD_DIMASSOC_CALC_DIMLFAC
1040
-1.0
1001
ACAD_DIMASSOC_DIMLFAC
1040
-1.0
1001
ACAD_DIMASSOC_OVERRIDDEN_DIMLFAC
1040
0.0
1001
ACAD_TC
1000
DSTYLE_TC
1002
{
1070
   176
1004
18000000020000008C8C8CC2000000000000000000000000
1070
   177
1004
18000000020000008C8C8CC2000000000000000000000000
1002
}
1001
ACAD_DSTYLE_DIMJAG_POSITION
1070
   387
1070
     0
1070
   389
1010
0.0
1020
0.0
1030
0.0
1001
ACAD
1000
DSTYLE
1002
{
1070
   144
1040
1.0
1070
   176
1070
     0
1070
   177
1070
     0
1002
}
  0
DIMENSION
  5
216
330
70
100
AcDbEntity
  8
FD_Dimensions
100
AcDbDimension
280
     0
  2
*D7
 10
1138.338615
 20
391.811545
 30
0.0
 11
598.588615
 21
394.99855
 31
0.0
 70
    32
 71
     5
 42
1079.5
 73
     0
 74
     0
 75
     0
  3
Dim-ISO-25
100
AcDbAlignedDimension
 13
58.838615
 23
416.094868
 33
0.0
 14
1138.338615
 24
416.094868
 34
0.0
 50
180.0
100
AcDbRotatedDimension
1001
ACAD_DIMASSOC_CALC_DIMLFAC
1040
-1.0
1001
ACAD_DIMASSOC_DIMLFAC
1040
-1.0
1001
ACAD_DIMASSOC_OVERRIDDEN_DIMLFAC
1040
0.0
1001
ACAD_TC
1000
DSTYLE_TC
1002
{
1070
   176
1004
18000000020000008C8C8CC2000000000000000000000000
1070
   177
1004
18000000020000008C8C8CC2000000000000000000000000
1002
}
1001
ACAD_DSTYLE_DIMJAG_POSITION
1070
   387
1070
     0
1070
   389
1010
0.0
1020
0.0
1030
0.0
1001
ACAD
1000
DSTYLE
1002
{
1070
   144
1040
1.0
1070
   176
1070
     0
1070
   177
1070
     0
1002
}
  0
MTEXT
  5
223
330
70
100
AcDbEntity
  8
Notes
100
AcDbMText
 10
999.786611
 20
46.426947
 30
0.0
 40
3.5
 41
57.213389
 46
0.0
 71
     1
 72
     5
  1
All dimensions are in mm\PMaterial: 3.2/3.3mm MDF\PQty: 2\PScale 1:1
 73
     1
 44
1.0
1001
ACAD
1000
ACAD_MTEXT_COLUMN_INFO_BEGIN
1070
    75
1070
     2
1070
    79
1070
     0
1070
    76
1070
     1
1070
    78
1070
     0
1070
    48
1040
57.213389
1070
    49
1040
17.5
1070
    50
1070
     1
1040
0.0
1000
ACAD_MTEXT_COLUMN_INFO_END
  0
LINE
  5
275
330
70
100
AcDbEntity
  8
Visible
100
AcDbLine
 10
810.138615
 20
413.094868
 30
0.0
 11
760.138615
 21
413.094868
 31
0.0
  0
LINE
  5
276
330
70
100
AcDbEntity
  8
Visible
100
AcDbLine
 10
437.038615
 20
413.094868
 30
0.0
 11
387.038615
 21
413.094868
 31
0.0
  0
LINE
  5
277
330
70
100
AcDbEntity
  8
Visible
100
AcDbLine
 10
223.838615
 20
413.094868
 30
0.0
 11
173.838615
 21
413.094868
 31
0.0
  0
LINE
  5
278
330
70
100
AcDbEntity
  8
Visible
100
AcDbLine
 10
1023.338615
 20
413.094868
 30
0.0
 11
973.338615
 21
413.094868
 31
0.0
  0
LINE
  5
279
330
70
100
AcDbEntity
  8
Visible
100
AcDbLine
 10
848.588615
 20
466.094868
 30
0.0
 11
348.588615
 21
466.094868
 31
0.0
  0
LINE
  5
27A
330
70
100
AcDbEntity
  8
Visible
100
AcDbLine
 10
848.588615
 20
471.094868
 30
0.0
 11
848.588615
 21
466.094868
 31
0.0
  0
LINE
  5
27B
330
70
100
AcDbEntity
  8
Visible
100
AcDbLine
 10
348.588615
 20
466.094868
 30
0.0
 11
348.588615
 21
471.094868
 31
0.0
  0
LINE
  5
27C
330
70
100
AcDbEntity
  8
Visible
100
AcDbLine
 10
1129.938615
 20
471.094868
 30
0.0
 11
848.588615
 21
471.094868
 31
0.0
  0
LINE
  5
27D
330
70
100
AcDbEntity
  8
Visible
100
AcDbLine
 10
1133.338615
 20
446.094868
 30
0.0
 11
1138.338615
 21
446.094868
 31
0.0
  0
LINE
  5
27E
330
70
100
AcDbEntity
  8
Visible
100
AcDbLine
 10
1133.338615
 20
441.094868
 30
0.0
 11
1133.338615
 21
446.094868
 31
0.0
  0
LINE
  5
27F
330
70
100
AcDbEntity
  8
Visible
100
AcDbLine
 10
1138.338615
 20
446.094868
 30
0.0
 11
1138.338615
 21
416.094868
 31
0.0
  0
LINE
  5
280
330
70
100
AcDbEntity
  8
Visible
100
AcDbLine
 10
63.838615
 20
446.094868
 30
0.0
 11
58.838615
 21
446.094868
 31
0.0
  0
LINE
  5
281
330
70
100
AcDbEntity
  8
Visible
100
AcDbLine
 10
58.838615
 20
416.094868
 30
0.0
 11
58.838615
 21
446.094868
 31
0.0
  0
LINE
  5
282
330
70
100
AcDbEntity
  8
Visible
100
AcDbLine
 10
63.838615
 20
441.094868
 30
0.0
 11
63.838615
 21
446.094868
 31
0.0
  0
LINE
  5
283
330
70
100
AcDbEntity
  8
Visible
100
AcDbLine
 10
67.238615
 20
441.094868
 30
0.0
 11
63.838615
 21
441.094868
 31
0.0
  0
LINE
  5
284
330
70
100
AcDbEntity
  8
Visible
100
AcDbLine
 10
67.238615
 20
471.094868
 30
0.0
 11
67.238615
 21
441.094868
 31
0.0
  0
LINE
  5
285
330
70
100
AcDbEntity
  8
Visible
100
AcDbLine
 10
1129.938615
 20
441.094868
 30
0.0
 11
1133.338615
 21
441.094868
 31
0.0
  0
LINE
  5
286
330
70
100
AcDbEntity
  8
Visible
100
AcDbLine
 10
1129.938615
 20
441.094868
 30
0.0
 11
1129.938615
 21
471.094868
 31
0.0
  0
LINE
  5
287
330
70
100
AcDbEntity
  8
Visible
100
AcDbLine
 10
1079.938615
 20
416.094868
 30
0.0
 11
1138.338615
 21
416.094868
 31
0.0
  0
LINE
  5
288
330
70
100
AcDbEntity
  8
Visible
100
AcDbLine
 10
1076.638615
 20
441.094868
 30
0.0
 11
1079.938615
 21
441.094868
 31
0.0
  0
LINE
  5
289
330
70
100
AcDbEntity
  8
Visible
100
AcDbLine
 10
1079.938615
 20
441.094868
 30
0.0
 11
1079.938615
 21
416.094868
 31
0.0
  0
LINE
  5
28A
330
70
100
AcDbEntity
  8
Visible
100
AcDbLine
 10
1076.638615
 20
416.094868
 30
0.0
 11
1076.638615
 21
441.094868
 31
0.0
  0
LINE
  5
28B
330
70
100
AcDbEntity
  8
Visible
100
AcDbLine
 10
348.588615
 20
471.094868
 30
0.0
 11
67.238615
 21
471.094868
 31
0.0
  0
LINE
  5
28C
330
70
100
AcDbEntity
  8
Visible
100
AcDbLine
 10
117.238615
 20
416.094868
 30
0.0
 11
58.838615
 21
416.094868
 31
0.0
  0
LINE
  5
28D
330
70
100
AcDbEntity
  8
Visible
100
AcDbLine
 10
117.238615
 20
416.094868
 30
0.0
 11
117.238615
 21
441.094868
 31
0.0
  0
LINE
  5
28E
330
70
100
AcDbEntity
  8
Visible
100
AcDbLine
 10
117.238615
 20
441.094868
 30
0.0
 11
120.538615
 21
441.094868
 31
0.0
  0
LINE
  5
28F
330
70
100
AcDbEntity
  8
Visible
100
AcDbLine
 10
120.538615
 20
441.094868
 30
0.0
 11
120.538615
 21
416.094868
 31
0.0
  0
LINE
  5
290
330
70
100
AcDbEntity
  8
Visible
100
AcDbLine
 10
120.538615
 20
416.094868
 30
0.0
 11
170.538615
 21
416.094868
 31
0.0
  0
LINE
  5
291
330
70
100
AcDbEntity
  8
Visible
100
AcDbLine
 10
170.538615
 20
416.094868
 30
0.0
 11
170.538615
 21
441.094868
 31
0.0
  0
LINE
  5
292
330
70
100
AcDbEntity
  8
Visible
100
AcDbLine
 10
170.538615
 20
441.094868
 30
0.0
 11
173.838615
 21
441.094868
 31
0.0
  0
LINE
  5
293
330
70
100
AcDbEntity
  8
Visible
100
AcDbLine
 10
173.838615
 20
441.094868
 30
0.0
 11
173.838615
 21
413.094868
 31
0.0
  0
LINE
  5
294
330
70
100
AcDbEntity
  8
Visible
100
AcDbLine
 10
223.838615
 20
413.094868
 30
0.0
 11
223.838615
 21
441.094868
 31
0.0
  0
LINE
  5
295
330
70
100
AcDbEntity
  8
Visible
100
AcDbLine
 10
223.838615
 20
441.094868
 30
0.0
 11
227.138615
 21
441.094868
 31
0.0
  0
LINE
  5
296
330
70
100
AcDbEntity
  8
Visible
100
AcDbLine
 10
227.138615
 20
441.094868
 30
0.0
 11
227.138615
 21
416.094868
 31
0.0
  0
LINE
  5
297
330
70
100
AcDbEntity
  8
Visible
100
AcDbLine
 10
227.138615
 20
416.094868
 30
0.0
 11
277.138615
 21
416.094868
 31
0.0
  0
LINE
  5
298
330
70
100
AcDbEntity
  8
Visible
100
AcDbLine
 10
277.138615
 20
416.094868
 30
0.0
 11
277.138615
 21
441.094868
 31
0.0
  0
LINE
  5
299
330
70
100
AcDbEntity
  8
Visible
100
AcDbLine
 10
277.138615
 20
441.094868
 30
0.0
 11
280.438615
 21
441.094868
 31
0.0
  0
LINE
  5
29A
330
70
100
AcDbEntity
  8
Visible
100
AcDbLine
 10
280.438615
 20
441.094868
 30
0.0
 11
280.438615
 21
416.094868
 31
0.0
  0
LINE
  5
29B
330
70
100
AcDbEntity
  8
Visible
100
AcDbLine
 10
280.438615
 20
416.094868
 30
0.0
 11
330.438615
 21
416.094868
 31
0.0
  0
LINE
  5
29C
330
70
100
AcDbEntity
  8
Visible
100
AcDbLine
 10
330.438615
 20
416.094868
 30
0.0
 11
330.438615
 21
441.094868
 31
0.0
  0
LINE
  5
29D
330
70
100
AcDbEntity
  8
Visible
100
AcDbLine
 10
330.438615
 20
441.094868
 30
0.0
 11
333.738615
 21
441.094868
 31
0.0
  0
LINE
  5
29E
330
70
100
AcDbEntity
  8
Visible
100
AcDbLine
 10
333.738615
 20
441.094868
 30
0.0
 11
333.738615
 21
416.094868
 31
0.0
  0
LINE
  5
29F
330
70
100
AcDbEntity
  8
Visible
100
AcDbLine
 10
333.738615
 20
416.094868
 30
0.0
 11
383.738615
 21
416.094868
 31
0.0
  0
LINE
  5
2A0
330
70
100
AcDbEntity
  8
Visible
100
AcDbLine
 10
383.738615
 20
416.094868
 30
0.0
 11
383.738615
 21
441.094868
 31
0.0
  0
LINE
  5
2A1
330
70
100
AcDbEntity
  8
Visible
100
AcDbLine
 10
383.738615
 20
441.094868
 30
0.0
 11
387.038615
 21
441.094868
 31
0.0
  0
LINE
  5
2A2
330
70
100
AcDbEntity
  8
Visible
100
AcDbLine
 10
387.038615
 20
441.094868
 30
0.0
 11
387.038615
 21
413.094868
 31
0.0
  0
LINE
  5
2A3
330
70
100
AcDbEntity
  8
Visible
100
AcDbLine
 10
437.038615
 20
413.094868
 30
0.0
 11
437.038615
 21
441.094868
 31
0.0
  0
LINE
  5
2A4
330
70
100
AcDbEntity
  8
Visible
100
AcDbLine
 10
437.038615
 20
441.094868
 30
0.0
 11
440.338615
 21
441.094868
 31
0.0
  0
LINE
  5
2A5
330
70
100
AcDbEntity
  8
Visible
100
AcDbLine
 10
440.338615
 20
441.094868
 30
0.0
 11
440.338615
 21
416.094868
 31
0.0
  0
LINE
  5
2A6
330
70
100
AcDbEntity
  8
Visible
100
AcDbLine
 10
440.338615
 20
416.094868
 30
0.0
 11
490.338615
 21
416.094868
 31
0.0
  0
LINE
  5
2A7
330
70
100
AcDbEntity
  8
Visible
100
AcDbLine
 10
490.338615
 20
416.094868
 30
0.0
 11
490.338615
 21
441.094868
 31
0.0
  0
LINE
  5
2A8
330
70
100
AcDbEntity
  8
Visible
100
AcDbLine
 10
490.338615
 20
441.094868
 30
0.0
 11
493.638615
 21
441.094868
 31
0.0
  0
LINE
  5
2A9
330
70
100
AcDbEntity
  8
Visible
100
AcDbLine
 10
493.638615
 20
441.094868
 30
0.0
 11
493.638615
 21
416.094868
 31
0.0
  0
LINE
  5
2AA
330
70
100
AcDbEntity
  8
Visible
100
AcDbLine
 10
493.638615
 20
416.094868
 30
0.0
 11
543.638615
 21
416.094868
 31
0.0
  0
LINE
  5
2AB
330
70
100
AcDbEntity
  8
Visible
100
AcDbLine
 10
543.638615
 20
416.094868
 30
0.0
 11
543.638615
 21
441.094868
 31
0.0
  0
LINE
  5
2AC
330
70
100
AcDbEntity
  8
Visible
100
AcDbLine
 10
543.638615
 20
441.094868
 30
0.0
 11
546.938615
 21
441.094868
 31
0.0
  0
LINE
  5
2AD
330
70
100
AcDbEntity
  8
Visible
100
AcDbLine
 10
546.938615
 20
441.094868
 30
0.0
 11
546.938615
 21
416.094868
 31
0.0
  0
LINE
  5
2AE
330
70
100
AcDbEntity
  8
Visible
100
AcDbLine
 10
546.938615
 20
416.094868
 30
0.0
 11
596.938615
 21
416.094868
 31
0.0
  0
LINE
  5
2AF
330
70
100
AcDbEntity
  8
Visible
100
AcDbLine
 10
596.938615
 20
416.094868
 30
0.0
 11
596.938615
 21
441.094868
 31
0.0
  0
LINE
  5
2B0
330
70
100
AcDbEntity
  8
Visible
100
AcDbLine
 10
596.938615
 20
441.094868
 30
0.0
 11
600.238615
 21
441.094868
 31
0.0
  0
LINE
  5
2B1
330
70
100
AcDbEntity
  8
Visible
100
AcDbLine
 10
600.238615
 20
441.094868
 30
0.0
 11
600.238615
 21
416.094868
 31
0.0
  0
LINE
  5
2B2
330
70
100
AcDbEntity
  8
Visible
100
AcDbLine
 10
600.238615
 20
416.094868
 30
0.0
 11
650.238615
 21
416.094868
 31
0.0
  0
LINE
  5
2B3
330
70
100
AcDbEntity
  8
Visible
100
AcDbLine
 10
650.238615
 20
416.094868
 30
0.0
 11
650.238615
 21
441.094868
 31
0.0
  0
LINE
  5
2B4
330
70
100
AcDbEntity
  8
Visible
100
AcDbLine
 10
650.238615
 20
441.094868
 30
0.0
 11
653.538615
 21
441.094868
 31
0.0
  0
LINE
  5
2B5
330
70
100
AcDbEntity
  8
Visible
100
AcDbLine
 10
653.538615
 20
441.094868
 30
0.0
 11
653.538615
 21
416.094868
 31
0.0
  0
LINE
  5
2B6
330
70
100
AcDbEntity
  8
Visible
100
AcDbLine
 10
653.538615
 20
416.094868
 30
0.0
 11
703.538615
 21
416.094868
 31
0.0
  0
LINE
  5
2B7
330
70
100
AcDbEntity
  8
Visible
100
AcDbLine
 10
703.538615
 20
416.094868
 30
0.0
 11
703.538615
 21
441.094868
 31
0.0
  0
LINE
  5
2B8
330
70
100
AcDbEntity
  8
Visible
100
AcDbLine
 10
703.538615
 20
441.094868
 30
0.0
 11
706.838615
 21
441.094868
 31
0.0
  0
LINE
  5
2B9
330
70
100
AcDbEntity
  8
Visible
100
AcDbLine
 10
706.838615
 20
441.094868
 30
0.0
 11
706.838615
 21
416.094868
 31
0.0
  0
LINE
  5
2BA
330
70
100
AcDbEntity
  8
Visible
100
AcDbLine
 10
706.838615
 20
416.094868
 30
0.0
 11
756.838615
 21
416.094868
 31
0.0
  0
LINE
  5
2BB
330
70
100
AcDbEntity
  8
Visible
100
AcDbLine
 10
756.838615
 20
416.094868
 30
0.0
 11
756.838615
 21
441.094868
 31
0.0
  0
LINE
  5
2BC
330
70
100
AcDbEntity
  8
Visible
100
AcDbLine
 10
756.838615
 20
441.094868
 30
0.0
 11
760.138615
 21
441.094868
 31
0.0
  0
LINE
  5
2BD
330
70
100
AcDbEntity
  8
Visible
100
AcDbLine
 10
760.138615
 20
441.094868
 30
0.0
 11
760.138615
 21
413.094868
 31
0.0
  0
LINE
  5
2BE
330
70
100
AcDbEntity
  8
Visible
100
AcDbLine
 10
810.138615
 20
413.094868
 30
0.0
 11
810.138615
 21
441.094868
 31
0.0
  0
LINE
  5
2BF
330
70
100
AcDbEntity
  8
Visible
100
AcDbLine
 10
810.138615
 20
441.094868
 30
0.0
 11
813.438615
 21
441.094868
 31
0.0
  0
LINE
  5
2C0
330
70
100
AcDbEntity
  8
Visible
100
AcDbLine
 10
813.438615
 20
441.094868
 30
0.0
 11
813.438615
 21
416.094868
 31
0.0
  0
LINE
  5
2C1
330
70
100
AcDbEntity
  8
Visible
100
AcDbLine
 10
813.438615
 20
416.094868
 30
0.0
 11
863.438615
 21
416.094868
 31
0.0
  0
LINE
  5
2C2
330
70
100
AcDbEntity
  8
Visible
100
AcDbLine
 10
863.438615
 20
416.094868
 30
0.0
 11
863.438615
 21
441.094868
 31
0.0
  0
LINE
  5
2C3
330
70
100
AcDbEntity
  8
Visible
100
AcDbLine
 10
863.438615
 20
441.094868
 30
0.0
 11
866.738615
 21
441.094868
 31
0.0
  0
LINE
  5
2C4
330
70
100
AcDbEntity
  8
Visible
100
AcDbLine
 10
866.738615
 20
441.094868
 30
0.0
 11
866.738615
 21
416.094868
 31
0.0
  0
LINE
  5
2C5
330
70
100
AcDbEntity
  8
Visible
100
AcDbLine
 10
866.738615
 20
416.094868
 30
0.0
 11
916.738615
 21
416.094868
 31
0.0
  0
LINE
  5
2C6
330
70
100
AcDbEntity
  8
Visible
100
AcDbLine
 10
916.738615
 20
416.094868
 30
0.0
 11
916.738615
 21
441.094868
 31
0.0
  0
LINE
  5
2C7
330
70
100
AcDbEntity
  8
Visible
100
AcDbLine
 10
916.738615
 20
441.094868
 30
0.0
 11
920.038615
 21
441.094868
 31
0.0
  0
LINE
  5
2C8
330
70
100
AcDbEntity
  8
Visible
100
AcDbLine
 10
920.038615
 20
441.094868
 30
0.0
 11
920.038615
 21
416.094868
 31
0.0
  0
LINE
  5
2C9
330
70
100
AcDbEntity
  8
Visible
100
AcDbLine
 10
920.038615
 20
416.094868
 30
0.0
 11
970.038615
 21
416.094868
 31
0.0
  0
LINE
  5
2CA
330
70
100
AcDbEntity
  8
Visible
100
AcDbLine
 10
970.038615
 20
416.094868
 30
0.0
 11
970.038615
 21
441.094868
 31
0.0
  0
LINE
  5
2CB
330
70
100
AcDbEntity
  8
Visible
100
AcDbLine
 10
970.038615
 20
441.094868
 30
0.0
 11
973.338615
 21
441.094868
 31
0.0
  0
LINE
  5
2CC
330
70
100
AcDbEntity
  8
Visible
100
AcDbLine
 10
973.338615
 20
441.094868
 30
0.0
 11
973.338615
 21
413.094868
 31
0.0
  0
LINE
  5
2CD
330
70
100
AcDbEntity
  8
Visible
100
AcDbLine
 10
1023.338615
 20
413.094868
 30
0.0
 11
1023.338615
 21
441.094868
 31
0.0
  0
LINE
  5
2CE
330
70
100
AcDbEntity
  8
Visible
100
AcDbLine
 10
1023.338615
 20
441.094868
 30
0.0
 11
1026.638615
 21
441.094868
 31
0.0
  0
LINE
  5
2CF
330
70
100
AcDbEntity
  8
Visible
100
AcDbLine
 10
1026.638615
 20
441.094868
 30
0.0
 11
1026.638615
 21
416.094868
 31
0.0
  0
LINE
  5
2D0
330
70
100
AcDbEntity
  8
Visible
100
AcDbLine
 10
1026.638615
 20
416.094868
 30
0.0
 11
1076.638615
 21
416.094868
 31
0.0
  0
ENDSEC
  0
SECTION
  2
OBJECTS
  0
DICTIONARY
  5
C
330
0
100
AcDbDictionary
281
     1
  3
ACAD_COLOR
350
63
  3
ACAD_DETAILVIEWSTYLE
350
6A
  3
ACAD_GROUP
350
D
  3
ACAD_LAYOUT
350
62
  3
ACAD_MATERIAL
350
10
  3
ACAD_MLEADERSTYLE
350
66
  3
ACAD_MLINESTYLE
350
5F
  3
ACAD_PLOTSETTINGS
350
61
  3
ACAD_PLOTSTYLENAME
350
E
  3
ACAD_SCALELIST
350
42
  3
ACAD_SECTIONVIEWSTYLE
350
68
  3
ACAD_TABLESTYLE
350
64
  3
ACAD_VISUALSTYLE
350
29
  3
ACDB_RECOMPOSE_DATA
350
2FE
  3
AcDbVariableDictionary
350
2F5
  0
DICTIONARY
  5
AA
330
70
100
AcDbDictionary
280
     1
281
     1
  3
ACAD_SORTENTS
360
AB
  0
DICTIONARY
  5
111
330
110
100
AcDbDictionary
280
     1
281
     1
  0
DICTIONARY
  5
1BF
330
1BE
100
AcDbDictionary
280
     1
281
     1
  3
ACAD_SORTENTS
360
274
  0
DICTIONARY
  5
1DA
330
1D9
100
AcDbDictionary
280
     1
281
     1
  0
DICTIONARY
  5
1DC
330
1DB
100
AcDbDictionary
280
     1
281
     1
  0
DICTIONARY
  5
1DE
330
1DD
100
AcDbDictionary
280
     1
281
     1
  0
DICTIONARY
  5
1E0
330
1DF
100
AcDbDictionary
280
     1
281
     1
  0
DICTIONARY
  5
1E2
330
1E1
100
AcDbDictionary
280
     1
281
     1
  0
DICTIONARY
  5
1E4
330
1E3
100
AcDbDictionary
280
     1
281
     1
  0
DICTIONARY
  5
1E6
330
1E5
100
AcDbDictionary
280
     1
281
     1
  0
DICTIONARY
  5
1E8
330
1E7
100
AcDbDictionary
280
     1
281
     1
  0
DICTIONARY
  5
1EA
330
1E9
100
AcDbDictionary
280
     1
281
     1
  0
DICTIONARY
  5
1EC
330
1EB
100
AcDbDictionary
280
     1
281
     1
  0
DICTIONARY
  5
1EE
330
1ED
100
AcDbDictionary
280
     1
281
     1
  0
DICTIONARY
  5
1F0
330
1EF
100
AcDbDictionary
280
     1
281
     1
  0
DICTIONARY
  5
1F2
330
1F1
100
AcDbDictionary
280
     1
281
     1
  0
DICTIONARY
  5
1F4
330
1F3
100
AcDbDictionary
280
     1
281
     1
  0
DICTIONARY
  5
1F6
330
1F5
100
AcDbDictionary
280
     1
281
     1
  0
DICTIONARY
  5
63
102
{ACAD_REACTORS
330
C
102
}
330
C
100
AcDbDictionary
281
     1
  0
DICTIONARY
  5
6A
102
{ACAD_REACTORS
330
C
102
}
330
C
100
AcDbDictionary
281
     1
  3
Imperial24
350
6B
  0
DICTIONARY
  5
D
102
{ACAD_REACTORS
330
C
102
}
330
C
100
AcDbDictionary
281
     1
  0
DICTIONARY
  5
62
102
{ACAD_REACTORS
330
C
102
}
330
C
100
AcDbDictionary
281
     1
  3
Model
350
73
  3
Sheet1
350
6F
  3
Sheet2
350
77
  0
DICTIONARY
  5
10
102
{ACAD_REACTORS
330
C
102
}
330
C
100
AcDbDictionary
281
     1
  3
ByBlock
350
19
  3
ByLayer
350
11
  3
Global
350
21
  0
DICTIONARY
  5
66
102
{ACAD_REACTORS
330
C
102
}
330
C
100
AcDbDictionary
281
     1
  3
Standard
350
67
  0
DICTIONARY
  5
5F
102
{ACAD_REACTORS
330
C
102
}
330
C
100
AcDbDictionary
281
     1
  3
Standard
350
60
  0
DICTIONARY
  5
61
102
{ACAD_REACTORS
330
C
102
}
330
C
100
AcDbDictionary
281
     1
  0
ACDBDICTIONARYWDFLT
  5
E
102
{ACAD_REACTORS
330
C
102
}
330
C
100
AcDbDictionary
281
     1
  3
Normal
350
F
100
AcDbDictionaryWithDefault
340
F
  0
DICTIONARY
  5
42
102
{ACAD_REACTORS
330
C
102
}
330
C
100
AcDbDictionary
281
     1
  3
A0
350
43
  3
A1
350
44
  3
A2
350
45
  3
A3
350
46
  3
A4
350
47
  3
A5
350
48
  3
A6
350
49
  3
A7
350
4A
  3
A8
350
4B
  3
A9
350
4C
  3
B0
350
4D
  3
B1
350
4E
  3
B2
350
4F
  3
B3
350
50
  3
B4
350
51
  3
B5
350
52
  3
B6
350
53
  0
DICTIONARY
  5
68
102
{ACAD_REACTORS
330
C
102
}
330
C
100
AcDbDictionary
281
     1
  3
Imperial24
350
69
  0
DICTIONARY
  5
64
102
{ACAD_REACTORS
330
C
102
}
330
C
100
AcDbDictionary
281
     1
  3
Standard
350
65
  0
DICTIONARY
  5
29
102
{ACAD_REACTORS
330
C
102
}
330
C
100
AcDbDictionary
281
     1
  3
2dWireframe
350
2F
  3
Basic
350
2E
  3
Brighten
350
35
  3
ColorChange
350
39
  3
Conceptual
350
32
  3
Dim
350
34
  3
EdgeColorOff
350
41
  3
Facepattern
350
38
  3
Flat
350
2A
  3
FlatWithEdges
350
2B
  3
Gouraud
350
2C
  3
GouraudWithEdges
350
2D
  3
Hidden
350
31
  3
JitterOff
350
3F
  3
Linepattern
350
37
  3
OverhangOff
350
40
  3
Realistic
350
33
  3
Shaded
350
3E
  3
Shaded with edges
350
3D
  3
Shades of Gray
350
3A
  3
Sketchy
350
3B
  3
Thicken
350
36
  3
Wireframe
350
30
  3
X-Ray
350
3C
  0
XRECORD
  5
2FE
102
{ACAD_REACTORS
330
C
102
}
330
C
100
AcDbXrecord
280
     1
 90
        1
330
65
330
223
  0
DICTIONARY
  5
2F5
102
{ACAD_REACTORS
330
C
102
}
330
C
100
AcDbDictionary
281
     1
  3
ANNOALLVISIBLE
350
2FA
  3
CANNOSCALE
350
2FB
  3
CMLEADERSTYLE
350
2F7
  3
CTABLESTYLE
350
2F6
  3
CVIEWDETAILSTYLE
350
2F8
  3
CVIEWSECTIONSTYLE
350
2F9
  0
SORTENTSTABLE
  5
AB
102
{ACAD_REACTORS
330
AA
102
}
330
AA
100
AcDbSortentsTable
330
70
  0
SORTENTSTABLE
  5
274
102
{ACAD_REACTORS
330
1BF
102
}
330
1BF
100
AcDbSortentsTable
330
1BE
  0
ACDBDETAILVIEWSTYLE
  5
6B
102
{ACAD_XDICTIONARY
360
301
102
}
102
{ACAD_REACTORS
330
6A
102
}
330
6A
100
AcDbModelDocViewStyle
 70
     0
  3
Imperial24
290
     0
100
AcDbDetailViewStyle
 70
     0
 71
     0
 90
        3
 71
     1
340
55
 62
   256
 40
0.24
340
0
 62
   256
 40
0.24
300

 40
0.36
280
     3
 71
     2
340
5D
 90
       25
 62
   256
 71
     3
340
55
 62
   256
 40
0.24
 90
        1
 40
0.75
 90
        1
300
%<\AcVar ViewType \f "%tc1">% %<\AcVar ViewDetailId>%\PSCALE %<\AcVar ViewScale \f "%sn">%
 71
     4
340
5D
 90
       25
 62
   256
340
5D
 90
       25
 62
   256
280
     0
  0
LAYOUT
  5
73
102
{ACAD_REACTORS
330
62
102
}
330
62
100
AcDbPlotSettings
  1

  2
AutoCAD PDF (High Quality Print).pc3
  4
ISO_full_bleed_A0_(841.00_x_1189.00_MM)
  6

 40
0.0
 41
0.0
 42
0.0
 43
0.0
 44
841.0
 45
1189.0
 46
0.0
 47
0.0
 48
0.0
 49
0.0
140
0.0
141
0.0
142
1.0
143
1.416039
 70
 11952
 72
     1
 73
     1
 74
     0
  7

 75
     0
147
0.706195
 76
     0
 77
     2
 78
   300
148
155.214853
149
33.082691
100
AcDbLayout
  1
Model
 70
     1
 71
     0
 10
0.0
 20
0.0
 11
12.0
 21
9.0
 12
0.0
 22
0.0
 32
0.0
 14
0.0
 24
0.0
 34
0.0
 15
0.0
 25
0.0
 35
0.0
146
0.0
 13
0.0
 23
0.0
 33
0.0
 16
1.0
 26
0.0
 36
0.0
 17
0.0
 27
1.0
 37
0.0
 76
     0
330
70
1001
ACAD_PSEXT
1000
AutoCAD PDF (High Quality Print).pc3
1000
DWG To PDF
1000
File
1000

1070
     0
  0
LAYOUT
  5
6F
102
{ACAD_REACTORS
330
62
102
}
330
62
100
AcDbPlotSettings
  1

  2
None
  4

  6

 40
0.0
 41
0.0
 42
0.0
 43
0.0
 44
0.0
 45
0.0
 46
0.0
 47
0.0
 48
0.0
 49
0.0
140
0.0
141
0.0
142
1.0
143
1.0
 70
   688
 72
     0
 73
     0
 74
     5
  7

 75
    16
147
1.0
 76
     0
 77
     2
 78
   300
148
0.0
149
0.0
100
AcDbLayout
  1
Sheet1
 70
     1
 71
     1
 10
0.0
 20
0.0
 11
12.0
 21
9.0
 12
0.0
 22
0.0
 32
0.0
 14
0.0
 24
0.0
 34
0.0
 15
0.0
 25
0.0
 35
0.0
146
0.0
 13
0.0
 23
0.0
 33
0.0
 16
1.0
 26
0.0
 36
0.0
 17
0.0
 27
1.0
 37
0.0
 76
     0
330
6C
  0
LAYOUT
  5
77
102
{ACAD_REACTORS
330
62
102
}
330
62
100
AcDbPlotSettings
  1

  2
None
  4

  6

 40
0.0
 41
0.0
 42
0.0
 43
0.0
 44
0.0
 45
0.0
 46
0.0
 47
0.0
 48
0.0
 49
0.0
140
0.0
141
0.0
142
1.0
143
1.0
 70
   688
 72
     0
 73
     0
 74
     5
  7

 75
    16
147
1.0
 76
     0
 77
     2
 78
   300
148
0.0
149
0.0
100
AcDbLayout
  1
Sheet2
 70
     1
 71
     2
 10
0.0
 20
0.0
 11
12.0
 21
9.0
 12
0.0
 22
0.0
 32
0.0
 14
0.0
 24
0.0
 34
0.0
 15
0.0
 25
0.0
 35
0.0
146
0.0
 13
0.0
 23
0.0
 33
0.0
 16
1.0
 26
0.0
 36
0.0
 17
0.0
 27
1.0
 37
0.0
 76
     0
330
74
  0
MATERIAL
  5
19
102
{ACAD_XDICTIONARY
360
1A
102
}
102
{ACAD_REACTORS
330
10
102
}
330
10
100
AcDbMaterial
  1
ByBlock
 72
     0
 43
0.020833
 43
0.0
 43
0.0
 43
0.0
 43
0.0
 43
0.020833
 43
0.0
 43
0.0
 43
0.0
 43
0.0
 43
1.0
 43
0.0
 43
0.0
 43
0.0
 43
0.0
 43
1.0
 77
     0
 47
0.020833
 47
0.0
 47
0.0
 47
0.0
 47
0.0
 47
0.020833
 47
0.0
 47
0.0
 47
0.0
 47
0.0
 47
1.0
 47
0.0
 47
0.0
 47
0.0
 47
0.0
 47
1.0
171
     0
 49
0.020833
 49
0.0
 49
0.0
 49
0.0
 49
0.0
 49
0.020833
 49
0.0
 49
0.0
 49
0.0
 49
0.0
 49
1.0
 49
0.0
 49
0.0
 49
0.0
 49
0.0
 49
1.0
175
     0
142
0.020833
142
0.0
142
0.0
142
0.0
142
0.0
142
0.020833
142
0.0
142
0.0
142
0.0
142
0.0
142
1.0
142
0.0
142
0.0
142
0.0
142
0.0
142
1.0
179
     0
144
0.020833
144
0.0
144
0.0
144
0.0
144
0.0
144
0.020833
144
0.0
144
0.0
144
0.0
144
0.0
144
1.0
144
0.0
144
0.0
144
0.0
144
0.0
144
1.0
147
0.020833
147
0.0
147
0.0
147
0.0
147
0.0
147
0.020833
147
0.0
147
0.0
147
0.0
147
0.0
147
1.0
147
0.0
147
0.0
147
0.0
147
0.0
147
1.0
  0
MATERIAL
  5
11
102
{ACAD_XDICTIONARY
360
12
102
}
102
{ACAD_REACTORS
330
10
102
}
330
10
100
AcDbMaterial
  1
ByLayer
 72
     0
 43
0.020833
 43
0.0
 43
0.0
 43
0.0
 43
0.0
 43
0.020833
 43
0.0
 43
0.0
 43
0.0
 43
0.0
 43
1.0
 43
0.0
 43
0.0
 43
0.0
 43
0.0
 43
1.0
 77
     0
 47
0.020833
 47
0.0
 47
0.0
 47
0.0
 47
0.0
 47
0.020833
 47
0.0
 47
0.0
 47
0.0
 47
0.0
 47
1.0
 47
0.0
 47
0.0
 47
0.0
 47
0.0
 47
1.0
171
     0
 49
0.020833
 49
0.0
 49
0.0
 49
0.0
 49
0.0
 49
0.020833
 49
0.0
 49
0.0
 49
0.0
 49
0.0
 49
1.0
 49
0.0
 49
0.0
 49
0.0
 49
0.0
 49
1.0
175
     0
142
0.020833
142
0.0
142
0.0
142
0.0
142
0.0
142
0.020833
142
0.0
142
0.0
142
0.0
142
0.0
142
1.0
142
0.0
142
0.0
142
0.0
142
0.0
142
1.0
179
     0
144
0.020833
144
0.0
144
0.0
144
0.0
144
0.0
144
0.020833
144
0.0
144
0.0
144
0.0
144
0.0
144
1.0
144
0.0
144
0.0
144
0.0
144
0.0
144
1.0
147
0.020833
147
0.0
147
0.0
147
0.0
147
0.0
147
0.020833
147
0.0
147
0.0
147
0.0
147
0.0
147
1.0
147
0.0
147
0.0
147
0.0
147
0.0
147
1.0
  0
MATERIAL
  5
21
102
{ACAD_XDICTIONARY
360
22
102
}
102
{ACAD_REACTORS
330
10
102
}
330
10
100
AcDbMaterial
  1
Global
 72
     0
 43
0.020833
 43
0.0
 43
0.0
 43
0.0
 43
0.0
 43
0.020833
 43
0.0
 43
0.0
 43
0.0
 43
0.0
 43
1.0
 43
0.0
 43
0.0
 43
0.0
 43
0.0
 43
1.0
 77
     0
 47
0.020833
 47
0.0
 47
0.0
 47
0.0
 47
0.0
 47
0.020833
 47
0.0
 47
0.0
 47
0.0
 47
0.0
 47
1.0
 47
0.0
 47
0.0
 47
0.0
 47
0.0
 47
1.0
171
     0
 49
0.020833
 49
0.0
 49
0.0
 49
0.0
 49
0.0
 49
0.020833
 49
0.0
 49
0.0
 49
0.0
 49
0.0
 49
1.0
 49
0.0
 49
0.0
 49
0.0
 49
0.0
 49
1.0
175
     0
142
0.020833
142
0.0
142
0.0
142
0.0
142
0.0
142
0.020833
142
0.0
142
0.0
142
0.0
142
0.0
142
1.0
142
0.0
142
0.0
142
0.0
142
0.0
142
1.0
179
     0
144
0.020833
144
0.0
144
0.0
144
0.0
144
0.0
144
0.020833
144
0.0
144
0.0
144
0.0
144
0.0
144
1.0
144
0.0
144
0.0
144
0.0
144
0.0
144
1.0
147
0.020833
147
0.0
147
0.0
147
0.0
147
0.0
147
0.020833
147
0.0
147
0.0
147
0.0
147
0.0
147
1.0
147
0.0
147
0.0
147
0.0
147
0.0
147
1.0
  0
MLEADERSTYLE
  5
67
102
{ACAD_REACTORS
330
66
102
}
330
66
100
AcDbMLeaderStyle
179
     2
170
     2
171
     1
172
     0
 90
        2
 40
0.0
 41
0.0
173
     1
 91
-1056964608
340
5B
 92
       -2
290
     1
 42
0.09
291
     1
 43
0.36
  3
Standard
 44
0.18
300

342
55
174
     1
178
     6
175
     1
176
     0
 93
-1056964608
 45
0.18
292
     0
297
     0
 46
0.18
 94
-1056964608
 47
1.0
 49
1.0
140
1.0
293
     1
141
0.0
294
     1
177
     0
142
1.0
295
     0
296
     0
143
0.125
271
     0
272
     9
273
     9
298
     1
  0
MLINESTYLE
  5
60
102
{ACAD_REACTORS
330
5F
102
}
330
5F
100
AcDbMlineStyle
  2
STANDARD
 70
     0
  3

 62
   256
 51
90.0
 52
90.0
 71
     0
  0
ACDBPLACEHOLDER
  5
F
102
{ACAD_REACTORS
330
E
102
}
330
E
  0
SCALE
  5
43
102
{ACAD_REACTORS
330
42
102
}
330
42
100
AcDbScale
 70
     0
300
1:1
140
1.0
141
1.0
290
     1
  0
SCALE
  5
44
102
{ACAD_REACTORS
330
42
102
}
330
42
100
AcDbScale
 70
     0
300
1:2
140
1.0
141
2.0
290
     0
  0
SCALE
  5
45
102
{ACAD_REACTORS
330
42
102
}
330
42
100
AcDbScale
 70
     0
300
1:4
140
1.0
141
4.0
290
     0
  0
SCALE
  5
46
102
{ACAD_REACTORS
330
42
102
}
330
42
100
AcDbScale
 70
     0
300
1:5
140
1.0
141
5.0
290
     0
  0
SCALE
  5
47
102
{ACAD_REACTORS
330
42
102
}
330
42
100
AcDbScale
 70
     0
300
1:8
140
1.0
141
8.0
290
     0
  0
SCALE
  5
48
102
{ACAD_REACTORS
330
42
102
}
330
42
100
AcDbScale
 70
     0
300
1:10
140
1.0
141
10.0
290
     0
  0
SCALE
  5
49
102
{ACAD_REACTORS
330
42
102
}
330
42
100
AcDbScale
 70
     0
300
1:16
140
1.0
141
16.0
290
     0
  0
SCALE
  5
4A
102
{ACAD_REACTORS
330
42
102
}
330
42
100
AcDbScale
 70
     0
300
1:20
140
1.0
141
20.0
290
     0
  0
SCALE
  5
4B
102
{ACAD_REACTORS
330
42
102
}
330
42
100
AcDbScale
 70
     0
300
1:30
140
1.0
141
30.0
290
     0
  0
SCALE
  5
4C
102
{ACAD_REACTORS
330
42
102
}
330
42
100
AcDbScale
 70
     0
300
1:40
140
1.0
141
40.0
290
     0
  0
SCALE
  5
4D
102
{ACAD_REACTORS
330
42
102
}
330
42
100
AcDbScale
 70
     0
300
1:50
140
1.0
141
50.0
290
     0
  0
SCALE
  5
4E
102
{ACAD_REACTORS
330
42
102
}
330
42
100
AcDbScale
 70
     0
300
1:100
140
1.0
141
100.0
290
     0
  0
SCALE
  5
4F
102
{ACAD_REACTORS
330
42
102
}
330
42
100
AcDbScale
 70
     0
300
2:1
140
2.0
141
1.0
290
     0
  0
SCALE
  5
50
102
{ACAD_REACTORS
330
42
102
}
330
42
100
AcDbScale
 70
     0
300
4:1
140
4.0
141
1.0
290
     0
  0
SCALE
  5
51
102
{ACAD_REACTORS
330
42
102
}
330
42
100
AcDbScale
 70
     0
300
8:1
140
8.0
141
1.0
290
     0
  0
SCALE
  5
52
102
{ACAD_REACTORS
330
42
102
}
330
42
100
AcDbScale
 70
     0
300
10:1
140
10.0
141
1.0
290
     0
  0
SCALE
  5
53
102
{ACAD_REACTORS
330
42
102
}
330
42
100
AcDbScale
 70
     0
300
100:1
140
100.0
141
1.0
290
     0
  0
ACDBSECTIONVIEWSTYLE
  5
69
102
{ACAD_XDICTIONARY
360
2FF
102
}
102
{ACAD_REACTORS
330
68
102
}
330
68
100
AcDbModelDocViewStyle
 70
     0
  3
Imperial24
290
     0
100
AcDbSectionViewStyle
 70
     0
 71
     0
 90
       78
 71
     1
340
55
 62
   256
 40
0.24
340
0
340
0
 62
   256
 40
0.24
300
I, O, Q, S, X, Z
 40
0.48
 90
        3
 40
0.18
 90
        1
 71
     2
340
5D
 90
       25
 62
   256
340
5D
 90
       50
 62
   256
 40
0.24
 40
0.0
 40
0.24
 71
     3
340
55
 62
   256
 40
0.24
 90
        1
 40
0.75
 90
        1
300
%<\AcVar ViewType \f "%tc1">% %<\AcVar ViewSectionStartId>%-%<\AcVar ViewSectionEndId>%\PSCALE %<\AcVar ViewScale \f "%sn">%
 71
     4
 62
   256
 62
   257
300
ANSI31
 40
1.0
 90
        0
290
     0
290
     0
 90
        6
 40
0.0
 40
1.570796
 40
0.261799
 40
1.308997
 40
-0.261799
 40
1.832596
  0
TABLESTYLE
  5
65
102
{ACAD_XDICTIONARY
360
2FC
102
}
102
{ACAD_REACTORS
330
64
102
}
330
64
100
AcDbTableStyle
280
     0
  3
Standard
 70
     0
 71
     0
 40
1.5
 41
1.5
280
     0
281
     0
  7
Standard
140
0.18
170
     2
 62
     0
 63
     7
283
     0
 90
      512
 91
        0
  1

274
    -2
284
     1
 64
     0
275
    -2
285
     1
 65
     0
276
    -2
286
     1
 66
     0
277
    -2
287
     1
 67
     0
278
    -2
288
     1
 68
     0
279
    -2
289
     1
 69
     0
  7
Standard
140
0.25
170
     5
 62
     0
 63
     7
283
     0
 90
      512
 91
        0
  1

274
    -2
284
     1
 64
     0
275
    -2
285
     1
 65
     0
276
    -2
286
     1
 66
     0
277
    -2
287
     1
 67
     0
278
    -2
288
     1
 68
     0
279
    -2
289
     1
 69
     0
  7
Standard
140
0.18
170
     5
 62
     0
 63
     7
283
     0
 90
      512
 91
        0
  1

274
    -2
284
     1
 64
     0
275
    -2
285
     1
 65
     0
276
    -2
286
     1
 66
     0
277
    -2
287
     1
 67
     0
278
    -2
288
     1
 68
     0
279
    -2
289
     1
 69
     0
  0
VISUALSTYLE
  5
2F
102
{ACAD_REACTORS
330
29
102
}
330
29
100
AcDbVisualStyle
  2
2dWireframe
 70
     4
177
     3
291
     0
 70
    58
 90
        0
176
     1
 90
        2
176
     1
 90
        0
176
     1
 90
        0
176
     1
 40
0.6
176
     1
 40
30.0
176
     1
 62
     7
420
 16777215
176
     1
 90
        1
176
     1
 90
        4
176
     1
 62
     7
176
     1
 62
   257
176
     1
 90
        1
176
     1
 90
        1
176
     1
 40
1.0
176
     1
 90
        0
176
     1
 62
   257
176
     1
 40
1.0
176
     1
 90
        1
176
     1
 90
        6
176
     1
 90
        2
176
     1
 62
     7
176
     1
 90
        5
176
     1
 90
        0
176
     1
 90
        0
176
     1
290
     0
176
     1
 90
        1
176
     1
 40
0.0
176
     1
 90
        0
176
     1
290
     1
176
     1
290
     1
176
     1
290
     0
176
     1
290
     0
176
     1
290
     0
176
     1
290
     0
176
     1
290
     0
176
     1
290
     0
176
     1
290
     0
176
     1
 90
       50
176
     1
 40
0.0
176
     1
 40
1.0
176
     1
 90
        0
176
     1
 62
    18
420
        0
176
     1
 90
       50
176
     1
 90
        3
176
     1
 62
     5
420
      255
176
     1
290
     0
176
     1
 90
       50
176
     1
 90
       50
176
     1
 90
       50
176
     1
290
     0
176
     1
 90
       50
176
     1
 62
   256
176
     0
 40
1.0
176
     0
 90
        2
176
     1
  1
strokes_ogs.tif
176
     1
290
     0
176
     1
 40
1.0
176
     1
 40
1.0
176
     1
1001
ACAD
1000
AcDbSavedByObjectVersion
1070
     0
  0
VISUALSTYLE
  5
2E
102
{ACAD_REACTORS
330
29
102
}
330
29
100
AcDbVisualStyle
  2
Basic
 70
     7
177
     3
291
     1
 70
    58
 90
        1
176
     1
 90
        0
176
     1
 90
        1
176
     1
 90
        0
176
     1
 40
0.6
176
     1
 40
30.0
176
     1
 62
     7
420
 16777215
176
     1
 90
        0
176
     1
 90
        4
176
     1
 62
     7
176
     1
 62
   257
176
     1
 90
        1
176
     1
 90
        1
176
     1
 40
1.0
176
     1
 90
        8
176
     1
 62
     7
176
     1
 40
1.0
176
     1
 90
        1
176
     1
 90
        6
176
     1
 90
        2
176
     1
 62
     7
176
     1
 90
        5
176
     1
 90
        0
176
     1
 90
        0
176
     1
290
     0
176
     1
 90
        1
176
     1
 40
0.0
176
     1
 90
        0
176
     1
290
     0
176
     1
290
     1
176
     1
290
     1
176
     1
290
     0
176
     1
290
     0
176
     1
290
     0
176
     1
290
     0
176
     1
290
     0
176
     1
290
     0
176
     1
 90
       50
176
     1
 40
0.0
176
     1
 40
1.0
176
     1
 90
        0
176
     1
 62
    18
420
        0
176
     1
 90
       50
176
     1
 90
        3
176
     1
 62
     5
420
      255
176
     1
290
     0
176
     1
 90
       50
176
     1
 90
       50
176
     1
 90
       50
176
     1
290
     0
176
     1
 90
       50
176
     1
 62
   256
176
     0
 40
1.0
176
     0
 90
        2
176
     1
  1
strokes_ogs.tif
176
     1
290
     0
176
     1
 40
1.0
176
     1
 40
1.0
176
     1
1001
ACAD
1000
AcDbSavedByObjectVersion
1070
     0
  0
VISUALSTYLE
  5
35
102
{ACAD_REACTORS
330
29
102
}
330
29
100
AcDbVisualStyle
  2
Brighten
 70
    12
177
     3
291
     1
 70
    58
 90
        2
176
     1
 90
        2
176
     1
 90
        0
176
     1
 90
        0
176
     1
 40
0.6
176
     1
 40
30.0
176
     1
 62
     7
420
 16777215
176
     1
 90
        1
176
     1
 90
        4
176
     1
 62
     7
176
     1
 62
   257
176
     1
 90
        1
176
     1
 90
        1
176
     1
 40
1.0
176
     1
 90
        8
176
     1
 62
     7
176
     1
 40
1.0
176
     1
 90
        1
176
     1
 90
        6
176
     1
 90
        2
176
     1
 62
     7
176
     1
 90
        5
176
     1
 90
        0
176
     1
 90
        0
176
     1
290
     0
176
     1
 90
        1
176
     1
 40
50.0
176
     1
 90
        0
176
     1
290
     0
176
     1
290
     1
176
     1
290
     1
176
     1
290
     0
176
     1
290
     0
176
     1
290
     0
176
     1
290
     0
176
     1
290
     0
176
     1
290
     0
176
     1
 90
       50
176
     1
 40
0.0
176
     1
 40
1.0
176
     1
 90
        0
176
     1
 62
    18
420
        0
176
     1
 90
       50
176
     1
 90
        3
176
     1
 62
     5
420
      255
176
     1
290
     0
176
     1
 90
       50
176
     1
 90
       50
176
     1
 90
       50
176
     1
290
     0
176
     1
 90
       50
176
     1
 62
   256
176
     0
 40
1.0
176
     0
 90
        2
176
     1
  1
strokes_ogs.tif
176
     1
290
     0
176
     1
 40
1.0
176
     1
 40
1.0
176
     1
1001
ACAD
1000
AcDbSavedByObjectVersion
1070
     0
  0
VISUALSTYLE
  5
39
102
{ACAD_REACTORS
330
29
102
}
330
29
100
AcDbVisualStyle
  2
ColorChange
 70
    16
177
     3
291
     1
 70
    58
 90
        2
176
     1
 90
        2
176
     1
 90
        3
176
     1
 90
        0
176
     1
 40
0.6
176
     1
 40
30.0
176
     1
 62
     8
420
  8421504
176
     1
 90
        1
176
     1
 90
        4
176
     1
 62
     7
176
     1
 62
   257
176
     1
 90
        1
176
     1
 90
        1
176
     1
 40
1.0
176
     1
 90
        8
176
     1
 62
     8
420
  8421504
176
     1
 40
1.0
176
     1
 90
        1
176
     1
 90
        6
176
     1
 90
        2
176
     1
 62
     7
176
     1
 90
        5
176
     1
 90
        0
176
     1
 90
        0
176
     1
290
     0
176
     1
 90
        1
176
     1
 40
0.0
176
     1
 90
        0
176
     1
290
     0
176
     1
290
     1
176
     1
290
     1
176
     1
290
     0
176
     1
290
     0
176
     1
290
     0
176
     1
290
     0
176
     1
290
     0
176
     1
290
     0
176
     1
 90
       50
176
     1
 40
0.0
176
     1
 40
1.0
176
     1
 90
        0
176
     1
 62
    18
420
        0
176
     1
 90
       50
176
     1
 90
        3
176
     1
 62
     5
420
      255
176
     1
290
     0
176
     1
 90
       50
176
     1
 90
       50
176
     1
 90
       50
176
     1
290
     0
176
     1
 90
       50
176
     1
 62
   256
176
     0
 40
1.0
176
     0
 90
        2
176
     1
  1
strokes_ogs.tif
176
     1
290
     0
176
     1
 40
1.0
176
     1
 40
1.0
176
     1
1001
ACAD
1000
AcDbSavedByObjectVersion
1070
     0
  0
VISUALSTYLE
  5
32
102
{ACAD_REACTORS
330
29
102
}
330
29
100
AcDbVisualStyle
  2
Conceptual
 70
     9
177
     3
291
     0
 70
    58
 90
        3
176
     1
 90
        2
176
     1
 90
        0
176
     1
 90
        0
176
     1
 40
0.6
176
     1
 40
30.0
176
     1
 62
     7
420
 16777215
176
     1
 90
        2
176
     1
 90
        2
176
     1
 62
     7
176
     1
 62
   257
176
     1
 90
        1
176
     1
 90
        1
176
     1
 40
179.0
176
     1
 90
        8
176
     1
 62
     7
176
     1
 40
1.0
176
     1
 90
        1
176
     1
 90
        6
176
     1
 90
        2
176
     1
 62
     7
176
     1
 90
        3
176
     1
 90
        0
176
     1
 90
        0
176
     1
290
     0
176
     1
 90
        1
176
     1
 40
0.0
176
     1
 90
        0
176
     1
290
     0
176
     1
290
     1
176
     1
290
     1
176
     1
290
     0
176
     1
290
     0
176
     1
290
     0
176
     1
290
     0
176
     1
290
     0
176
     1
290
     0
176
     1
 90
       50
176
     1
 40
0.0
176
     1
 40
1.0
176
     1
 90
        0
176
     1
 62
    18
420
        0
176
     1
 90
       50
176
     1
 90
        3
176
     1
 62
     5
420
      255
176
     1
290
     0
176
     1
 90
       50
176
     1
 90
       50
176
     1
 90
       50
176
     1
290
     0
176
     1
 90
       50
176
     1
 62
   256
176
     0
 40
1.0
176
     0
 90
        2
176
     1
  1
strokes_ogs.tif
176
     1
290
     0
176
     1
 40
1.0
176
     1
 40
1.0
176
     1
1001
ACAD
1000
AcDbSavedByObjectVersion
1070
     0
  0
VISUALSTYLE
  5
34
102
{ACAD_REACTORS
330
29
102
}
330
29
100
AcDbVisualStyle
  2
Dim
 70
    11
177
     3
291
     1
 70
    58
 90
        2
176
     1
 90
        2
176
     1
 90
        0
176
     1
 90
        0
176
     1
 40
0.6
176
     1
 40
30.0
176
     1
 62
     7
420
 16777215
176
     1
 90
        1
176
     1
 90
        4
176
     1
 62
     7
176
     1
 62
   257
176
     1
 90
        1
176
     1
 90
        1
176
     1
 40
1.0
176
     1
 90
        8
176
     1
 62
     7
176
     1
 40
1.0
176
     1
 90
        1
176
     1
 90
        6
176
     1
 90
        2
176
     1
 62
     7
176
     1
 90
        5
176
     1
 90
        0
176
     1
 90
        0
176
     1
290
     0
176
     1
 90
        1
176
     1
 40
-50.0
176
     1
 90
        0
176
     1
290
     0
176
     1
290
     1
176
     1
290
     1
176
     1
290
     0
176
     1
290
     0
176
     1
290
     0
176
     1
290
     0
176
     1
290
     0
176
     1
290
     0
176
     1
 90
       50
176
     1
 40
0.0
176
     1
 40
1.0
176
     1
 90
        0
176
     1
 62
    18
420
        0
176
     1
 90
       50
176
     1
 90
        3
176
     1
 62
     5
420
      255
176
     1
290
     0
176
     1
 90
       50
176
     1
 90
       50
176
     1
 90
       50
176
     1
290
     0
176
     1
 90
       50
176
     1
 62
   256
176
     0
 40
1.0
176
     0
 90
        2
176
     1
  1
strokes_ogs.tif
176
     1
290
     0
176
     1
 40
1.0
176
     1
 40
1.0
176
     1
1001
ACAD
1000
AcDbSavedByObjectVersion
1070
     0
  0
VISUALSTYLE
  5
41
102
{ACAD_REACTORS
330
29
102
}
330
29
100
AcDbVisualStyle
  2
EdgeColorOff
 70
    22
177
     3
291
     1
 70
    58
 90
        2
176
     0
 90
        2
176
     0
 90
        0
176
     0
 90
        0
176
     0
 40
0.6
176
     0
 40
30.0
176
     0
 62
     7
420
 16777215
176
     0
 90
        1
176
     0
 90
        4
176
     0
 62
     7
176
     0
 62
   257
176
     0
 90
        1
176
     0
 90
        1
176
     0
 40
1.0
176
     0
 90
        8
176
     2
 62
     7
176
     0
 40
1.0
176
     0
 90
        1
176
     0
 90
        6
176
     0
 90
        2
176
     0
 62
     7
176
     0
 90
        5
176
     0
 90
        0
176
     0
 90
        0
176
     0
290
     0
176
     0
 90
        1
176
     0
 40
0.0
176
     0
 90
        0
176
     0
290
     0
176
     0
290
     1
176
     0
290
     1
176
     0
290
     0
176
     0
290
     0
176
     0
290
     0
176
     0
290
     0
176
     0
290
     0
176
     0
290
     0
176
     0
 90
       50
176
     0
 40
0.0
176
     0
 40
1.0
176
     0
 90
        0
176
     0
 62
    18
420
        0
176
     0
 90
       50
176
     0
 90
        3
176
     0
 62
     5
420
      255
176
     0
290
     0
176
     0
 90
       50
176
     0
 90
       50
176
     0
 90
       50
176
     0
290
     0
176
     0
 90
       50
176
     0
 62
   256
176
     0
 40
1.0
176
     0
 90
        2
176
     0
  1
strokes_ogs.tif
176
     0
290
     0
176
     0
 40
1.0
176
     0
 40
1.0
176
     0
1001
ACAD
1000
AcDbSavedByObjectVersion
1070
     0
  0
VISUALSTYLE
  5
38
102
{ACAD_REACTORS
330
29
102
}
330
29
100
AcDbVisualStyle
  2
Facepattern
 70
    15
177
     3
291
     1
 70
    58
 90
        2
176
     1
 90
        2
176
     1
 90
        0
176
     1
 90
        0
176
     1
 40
0.6
176
     1
 40
30.0
176
     1
 62
     7
420
 16777215
176
     1
 90
        1
176
     1
 90
        4
176
     1
 62
     7
176
     1
 62
   257
176
     1
 90
        1
176
     1
 90
        1
176
     1
 40
1.0
176
     1
 90
        8
176
     1
 62
     7
176
     1
 40
1.0
176
     1
 90
        1
176
     1
 90
        6
176
     1
 90
        2
176
     1
 62
     7
176
     1
 90
        5
176
     1
 90
        0
176
     1
 90
        0
176
     1
290
     0
176
     1
 90
        1
176
     1
 40
0.0
176
     1
 90
        0
176
     1
290
     0
176
     1
290
     1
176
     1
290
     1
176
     1
290
     0
176
     1
290
     0
176
     1
290
     0
176
     1
290
     0
176
     1
290
     0
176
     1
290
     0
176
     1
 90
       50
176
     1
 40
0.0
176
     1
 40
1.0
176
     1
 90
        0
176
     1
 62
    18
420
        0
176
     1
 90
       50
176
     1
 90
        3
176
     1
 62
     5
420
      255
176
     1
290
     0
176
     1
 90
       50
176
     1
 90
       50
176
     1
 90
       50
176
     1
290
     0
176
     1
 90
       50
176
     1
 62
   256
176
     0
 40
1.0
176
     0
 90
        2
176
     1
  1
strokes_ogs.tif
176
     1
290
     0
176
     1
 40
1.0
176
     1
 40
1.0
176
     1
1001
ACAD
1000
AcDbSavedByObjectVersion
1070
     0
  0
VISUALSTYLE
  5
2A
102
{ACAD_REACTORS
330
29
102
}
330
29
100
AcDbVisualStyle
  2
Flat
 70
     0
177
     3
291
     1
 70
    58
 90
        2
176
     1
 90
        1
176
     1
 90
        1
176
     1
 90
        2
176
     1
 40
0.6
176
     1
 40
30.0
176
     1
 62
     7
420
 16777215
176
     1
 90
        0
176
     1
 90
        0
176
     1
 62
     7
176
     1
 62
   257
176
     1
 90
        1
176
     1
 90
        1
176
     1
 40
1.0
176
     1
 90
        8
176
     1
 62
     7
176
     1
 40
1.0
176
     1
 90
        1
176
     1
 90
        6
176
     1
 90
        2
176
     1
 62
     7
176
     1
 90
        5
176
     1
 90
        0
176
     1
 90
        0
176
     1
290
     0
176
     1
 90
       13
176
     1
 40
0.0
176
     1
 90
        0
176
     1
290
     0
176
     1
290
     1
176
     1
290
     1
176
     1
290
     0
176
     1
290
     0
176
     1
290
     0
176
     1
290
     0
176
     1
290
     0
176
     1
290
     0
176
     1
 90
       50
176
     1
 40
0.0
176
     1
 40
1.0
176
     1
 90
        0
176
     1
 62
    18
420
        0
176
     1
 90
       50
176
     1
 90
        3
176
     1
 62
     5
420
      255
176
     1
290
     0
176
     1
 90
       50
176
     1
 90
       50
176
     1
 90
       50
176
     1
290
     0
176
     1
 90
       50
176
     1
 62
   256
176
     0
 40
1.0
176
     0
 90
        2
176
     1
  1
strokes_ogs.tif
176
     1
290
     0
176
     1
 40
1.0
176
     1
 40
1.0
176
     1
1001
ACAD
1000
AcDbSavedByObjectVersion
1070
     0
  0
VISUALSTYLE
  5
2B
102
{ACAD_REACTORS
330
29
102
}
330
29
100
AcDbVisualStyle
  2
FlatWithEdges
 70
     1
177
     3
291
     1
 70
    58
 90
        2
176
     1
 90
        1
176
     1
 90
        1
176
     1
 90
        2
176
     1
 40
0.6
176
     1
 40
30.0
176
     1
 62
     7
420
 16777215
176
     1
 90
        1
176
     1
 90
        0
176
     1
 62
     7
176
     1
 62
   257
176
     1
 90
        1
176
     1
 90
        1
176
     1
 40
1.0
176
     1
 90
        0
176
     1
 62
   257
176
     1
 40
1.0
176
     1
 90
        1
176
     1
 90
        6
176
     1
 90
        2
176
     1
 62
     7
176
     1
 90
        5
176
     1
 90
        0
176
     1
 90
        0
176
     1
290
     0
176
     1
 90
       13
176
     1
 40
0.0
176
     1
 90
        0
176
     1
290
     0
176
     1
290
     1
176
     1
290
     1
176
     1
290
     0
176
     1
290
     0
176
     1
290
     0
176
     1
290
     0
176
     1
290
     0
176
     1
290
     0
176
     1
 90
       50
176
     1
 40
0.0
176
     1
 40
1.0
176
     1
 90
        0
176
     1
 62
    18
420
        0
176
     1
 90
       50
176
     1
 90
        3
176
     1
 62
     5
420
      255
176
     1
290
     0
176
     1
 90
       50
176
     1
 90
       50
176
     1
 90
       50
176
     1
290
     0
176
     1
 90
       50
176
     1
 62
   256
176
     0
 40
1.0
176
     0
 90
        2
176
     1
  1
strokes_ogs.tif
176
     1
290
     0
176
     1
 40
1.0
176
     1
 40
1.0
176
     1
1001
ACAD
1000
AcDbSavedByObjectVersion
1070
     0
  0
VISUALSTYLE
  5
2C
102
{ACAD_REACTORS
330
29
102
}
330
29
100
AcDbVisualStyle
  2
Gouraud
 70
     2
177
     3
291
     1
 70
    58
 90
        2
176
     1
 90
        2
176
     1
 90
        1
176
     1
 90
        2
176
     1
 40
0.6
176
     1
 40
30.0
176
     1
 62
     7
420
 16777215
176
     1
 90
        0
176
     1
 90
        0
176
     1
 62
     7
176
     1
 62
   257
176
     1
 90
        1
176
     1
 90
        1
176
     1
 40
1.0
176
     1
 90
        0
176
     1
 62
     7
176
     1
 40
1.0
176
     1
 90
        1
176
     1
 90
        6
176
     1
 90
        2
176
     1
 62
     7
176
     1
 90
        5
176
     1
 90
        0
176
     1
 90
        0
176
     1
290
     0
176
     1
 90
       13
176
     1
 40
0.0
176
     1
 90
        0
176
     1
290
     0
176
     1
290
     1
176
     1
290
     1
176
     1
290
     0
176
     1
290
     0
176
     1
290
     0
176
     1
290
     0
176
     1
290
     0
176
     1
290
     0
176
     1
 90
       50
176
     1
 40
0.0
176
     1
 40
1.0
176
     1
 90
        0
176
     1
 62
    18
420
        0
176
     1
 90
       50
176
     1
 90
        3
176
     1
 62
     5
420
      255
176
     1
290
     0
176
     1
 90
       50
176
     1
 90
       50
176
     1
 90
       50
176
     1
290
     0
176
     1
 90
       50
176
     1
 62
   256
176
     0
 40
1.0
176
     0
 90
        2
176
     1
  1
strokes_ogs.tif
176
     1
290
     0
176
     1
 40
1.0
176
     1
 40
1.0
176
     1
1001
ACAD
1000
AcDbSavedByObjectVersion
1070
     0
  0
VISUALSTYLE
  5
2D
102
{ACAD_REACTORS
330
29
102
}
330
29
100
AcDbVisualStyle
  2
GouraudWithEdges
 70
     3
177
     3
291
     1
 70
    58
 90
        2
176
     1
 90
        2
176
     1
 90
        1
176
     1
 90
        2
176
     1
 40
0.6
176
     1
 40
30.0
176
     1
 62
     7
420
 16777215
176
     1
 90
        1
176
     1
 90
        0
176
     1
 62
     7
176
     1
 62
   257
176
     1
 90
        1
176
     1
 90
        1
176
     1
 40
1.0
176
     1
 90
        0
176
     1
 62
   257
176
     1
 40
1.0
176
     1
 90
        1
176
     1
 90
        6
176
     1
 90
        2
176
     1
 62
     7
176
     1
 90
        5
176
     1
 90
        0
176
     1
 90
        0
176
     1
290
     0
176
     1
 90
       13
176
     1
 40
0.0
176
     1
 90
        0
176
     1
290
     0
176
     1
290
     1
176
     1
290
     1
176
     1
290
     0
176
     1
290
     0
176
     1
290
     0
176
     1
290
     0
176
     1
290
     0
176
     1
290
     0
176
     1
 90
       50
176
     1
 40
0.0
176
     1
 40
1.0
176
     1
 90
        0
176
     1
 62
    18
420
        0
176
     1
 90
       50
176
     1
 90
        3
176
     1
 62
     5
420
      255
176
     1
290
     0
176
     1
 90
       50
176
     1
 90
       50
176
     1
 90
       50
176
     1
290
     0
176
     1
 90
       50
176
     1
 62
   256
176
     0
 40
1.0
176
     0
 90
        2
176
     1
  1
strokes_ogs.tif
176
     1
290
     0
176
     1
 40
1.0
176
     1
 40
1.0
176
     1
1001
ACAD
1000
AcDbSavedByObjectVersion
1070
     0
  0
VISUALSTYLE
  5
31
102
{ACAD_REACTORS
330
29
102
}
330
29
100
AcDbVisualStyle
  2
Hidden
 70
     6
177
     3
291
     0
 70
    58
 90
        1
176
     1
 90
        2
176
     1
 90
        2
176
     1
 90
        0
176
     1
 40
0.6
176
     1
 40
30.0
176
     1
 62
     7
420
 16777215
176
     1
 90
        2
176
     1
 90
        2
176
     1
 62
     7
176
     1
 62
   257
176
     1
 90
        2
176
     1
 90
        1
176
     1
 40
40.0
176
     1
 90
        0
176
     1
 62
   257
176
     1
 40
1.0
176
     1
 90
        1
176
     1
 90
        6
176
     1
 90
        2
176
     1
 62
     7
176
     1
 90
        3
176
     1
 90
        0
176
     1
 90
        0
176
     1
290
     0
176
     1
 90
        1
176
     1
 40
0.0
176
     1
 90
        0
176
     1
290
     0
176
     1
290
     1
176
     1
290
     1
176
     1
290
     0
176
     1
290
     0
176
     1
290
     0
176
     1
290
     0
176
     1
290
     0
176
     1
290
     0
176
     1
 90
       50
176
     1
 40
0.0
176
     1
 40
1.0
176
     1
 90
        0
176
     1
 62
    18
420
        0
176
     1
 90
       50
176
     1
 90
        3
176
     1
 62
     5
420
      255
176
     1
290
     0
176
     1
 90
       50
176
     1
 90
       50
176
     1
 90
       50
176
     1
290
     0
176
     1
 90
       50
176
     1
 62
   256
176
     0
 40
1.0
176
     0
 90
        2
176
     1
  1
strokes_ogs.tif
176
     1
290
     0
176
     1
 40
1.0
176
     1
 40
1.0
176
     1
1001
ACAD
1000
AcDbSavedByObjectVersion
1070
     0
  0
VISUALSTYLE
  5
3F
102
{ACAD_REACTORS
330
29
102
}
330
29
100
AcDbVisualStyle
  2
JitterOff
 70
    20
177
     3
291
     1
 70
    58
 90
        2
176
     0
 90
        2
176
     0
 90
        0
176
     0
 90
        0
176
     0
 40
0.6
176
     0
 40
30.0
176
     0
 62
     7
420
 16777215
176
     0
 90
        1
176
     0
 90
        4
176
     0
 62
     7
176
     0
 62
   257
176
     0
 90
        1
176
     0
 90
        1
176
     0
 40
1.0
176
     0
 90
       10
176
     2
 62
     7
176
     0
 40
1.0
176
     0
 90
        1
176
     0
 90
        6
176
     0
 90
        2
176
     0
 62
     7
176
     0
 90
        5
176
     0
 90
        0
176
     0
 90
        0
176
     0
290
     0
176
     0
 90
        1
176
     0
 40
0.0
176
     0
 90
        0
176
     0
290
     0
176
     0
290
     1
176
     0
290
     1
176
     0
290
     0
176
     0
290
     0
176
     0
290
     0
176
     0
290
     0
176
     0
290
     0
176
     0
290
     0
176
     0
 90
       50
176
     0
 40
0.0
176
     0
 40
1.0
176
     0
 90
        0
176
     0
 62
    18
420
        0
176
     0
 90
       50
176
     0
 90
        3
176
     0
 62
     5
420
      255
176
     0
290
     0
176
     0
 90
       50
176
     0
 90
       50
176
     0
 90
       50
176
     0
290
     0
176
     0
 90
       50
176
     0
 62
   256
176
     0
 40
1.0
176
     0
 90
        2
176
     0
  1
strokes_ogs.tif
176
     0
290
     0
176
     0
 40
1.0
176
     0
 40
1.0
176
     0
1001
ACAD
1000
AcDbSavedByObjectVersion
1070
     0
  0
VISUALSTYLE
  5
37
102
{ACAD_REACTORS
330
29
102
}
330
29
100
AcDbVisualStyle
  2
Linepattern
 70
    14
177
     3
291
     1
 70
    58
 90
        2
176
     1
 90
        2
176
     1
 90
        0
176
     1
 90
        0
176
     1
 40
0.6
176
     1
 40
30.0
176
     1
 62
     7
420
 16777215
176
     1
 90
        1
176
     1
 90
        4
176
     1
 62
     7
176
     1
 62
   257
176
     1
 90
        7
176
     1
 90
        7
176
     1
 40
1.0
176
     1
 90
        8
176
     1
 62
     7
176
     1
 40
1.0
176
     1
 90
        1
176
     1
 90
        6
176
     1
 90
        2
176
     1
 62
     7
176
     1
 90
        5
176
     1
 90
        0
176
     1
 90
        0
176
     1
290
     0
176
     1
 90
        1
176
     1
 40
0.0
176
     1
 90
        0
176
     1
290
     0
176
     1
290
     1
176
     1
290
     1
176
     1
290
     0
176
     1
290
     0
176
     1
290
     0
176
     1
290
     0
176
     1
290
     0
176
     1
290
     0
176
     1
 90
       50
176
     1
 40
0.0
176
     1
 40
1.0
176
     1
 90
        0
176
     1
 62
    18
420
        0
176
     1
 90
       50
176
     1
 90
        3
176
     1
 62
     5
420
      255
176
     1
290
     0
176
     1
 90
       50
176
     1
 90
       50
176
     1
 90
       50
176
     1
290
     0
176
     1
 90
       50
176
     1
 62
   256
176
     0
 40
1.0
176
     0
 90
        2
176
     1
  1
strokes_ogs.tif
176
     1
290
     0
176
     1
 40
1.0
176
     1
 40
1.0
176
     1
1001
ACAD
1000
AcDbSavedByObjectVersion
1070
     0
  0
VISUALSTYLE
  5
40
102
{ACAD_REACTORS
330
29
102
}
330
29
100
AcDbVisualStyle
  2
OverhangOff
 70
    21
177
     3
291
     1
 70
    58
 90
        2
176
     0
 90
        2
176
     0
 90
        0
176
     0
 90
        0
176
     0
 40
0.6
176
     0
 40
30.0
176
     0
 62
     7
420
 16777215
176
     0
 90
        1
176
     0
 90
        4
176
     0
 62
     7
176
     0
 62
   257
176
     0
 90
        1
176
     0
 90
        1
176
     0
 40
1.0
176
     0
 90
        9
176
     2
 62
     7
176
     0
 40
1.0
176
     0
 90
        1
176
     0
 90
        6
176
     0
 90
        2
176
     0
 62
     7
176
     0
 90
        5
176
     0
 90
        0
176
     0
 90
        0
176
     0
290
     0
176
     0
 90
        1
176
     0
 40
0.0
176
     0
 90
        0
176
     0
290
     0
176
     0
290
     1
176
     0
290
     1
176
     0
290
     0
176
     0
290
     0
176
     0
290
     0
176
     0
290
     0
176
     0
290
     0
176
     0
290
     0
176
     0
 90
       50
176
     0
 40
0.0
176
     0
 40
1.0
176
     0
 90
        0
176
     0
 62
    18
420
        0
176
     0
 90
       50
176
     0
 90
        3
176
     0
 62
     5
420
      255
176
     0
290
     0
176
     0
 90
       50
176
     0
 90
       50
176
     0
 90
       50
176
     0
290
     0
176
     0
 90
       50
176
     0
 62
   256
176
     0
 40
1.0
176
     0
 90
        2
176
     0
  1
strokes_ogs.tif
176
     0
290
     0
176
     0
 40
1.0
176
     0
 40
1.0
176
     0
1001
ACAD
1000
AcDbSavedByObjectVersion
1070
     0
  0
VISUALSTYLE
  5
33
102
{ACAD_REACTORS
330
29
102
}
330
29
100
AcDbVisualStyle
  2
Realistic
 70
     8
177
     3
291
     0
 70
    58
 90
        2
176
     1
 90
        3
176
     1
 90
        0
176
     1
 90
        2
176
     1
 40
0.6
176
     1
 40
30.0
176
     1
 62
     7
420
 16777215
176
     1
 90
        0
176
     1
 90
        0
176
     1
 62
     7
176
     1
 62
   257
176
     1
 90
        1
176
     1
 90
        1
176
     1
 40
1.0
176
     1
 90
        8
176
     1
 62
   257
176
     1
 40
1.0
176
     1
 90
        1
176
     1
 90
        6
176
     1
 90
        2
176
     1
 62
     7
176
     1
 90
        3
176
     1
 90
        0
176
     1
 90
        0
176
     1
290
     0
176
     1
 90
       13
176
     1
 40
0.0
176
     1
 90
        0
176
     1
290
     0
176
     1
290
     1
176
     1
290
     1
176
     1
290
     0
176
     1
290
     0
176
     1
290
     0
176
     1
290
     0
176
     1
290
     0
176
     1
290
     0
176
     1
 90
       50
176
     1
 40
0.0
176
     1
 40
1.0
176
     1
 90
        0
176
     1
 62
    18
420
        0
176
     1
 90
       50
176
     1
 90
        3
176
     1
 62
     5
420
      255
176
     1
290
     0
176
     1
 90
       50
176
     1
 90
       50
176
     1
 90
       50
176
     1
290
     0
176
     1
 90
       50
176
     1
 62
   256
176
     0
 40
1.0
176
     0
 90
        2
176
     1
  1
strokes_ogs.tif
176
     1
290
     0
176
     1
 40
1.0
176
     1
 40
1.0
176
     1
1001
ACAD
1000
AcDbSavedByObjectVersion
1070
     0
  0
VISUALSTYLE
  5
3E
102
{ACAD_REACTORS
330
29
102
}
330
29
100
AcDbVisualStyle
  2
Shaded
 70
    27
177
     3
291
     0
 70
    58
 90
        2
176
     1
 90
        2
176
     1
 90
        1
176
     1
 90
        2
176
     1
 40
0.6
176
     1
 40
30.0
176
     1
 62
     7
420
 16777215
176
     1
 90
        0
176
     1
 90
        4
176
     1
 62
     7
176
     1
 62
   257
176
     1
 90
        1
176
     1
 90
        1
176
     1
 40
1.0
176
     1
 90
        8
176
     1
 62
   257
176
     1
 40
1.0
176
     1
 90
        1
176
     1
 90
        6
176
     1
 90
        2
176
     1
 62
     8
420
  7895160
176
     1
 90
        3
176
     1
 90
        0
176
     1
 90
        0
176
     1
290
     0
176
     1
 90
        5
176
     1
 40
0.0
176
     1
 90
        0
176
     1
290
     0
176
     1
290
     1
176
     1
290
     1
176
     1
290
     0
176
     1
290
     0
176
     1
290
     0
176
     1
290
     0
176
     1
290
     0
176
     1
290
     0
176
     1
 90
       50
176
     1
 40
0.0
176
     1
 40
1.0
176
     1
 90
        0
176
     1
 62
    18
420
        0
176
     1
 90
       50
176
     1
 90
        3
176
     1
 62
     5
420
      255
176
     1
290
     0
176
     1
 90
       50
176
     1
 90
       50
176
     1
 90
       50
176
     1
290
     0
176
     1
 90
       50
176
     1
 62
   256
176
     0
 40
1.0
176
     0
 90
        2
176
     1
  1
strokes_ogs.tif
176
     1
290
     0
176
     1
 40
1.0
176
     1
 40
1.0
176
     1
1001
ACAD
1000
AcDbSavedByObjectVersion
1070
     0
  0
VISUALSTYLE
  5
3D
102
{ACAD_REACTORS
330
29
102
}
330
29
100
AcDbVisualStyle
  2
Shaded with edges
 70
    26
177
     3
291
     0
 70
    58
 90
        2
176
     1
 90
        2
176
     1
 90
        1
176
     1
 90
        2
176
     1
 40
0.6
176
     1
 40
30.0
176
     1
 62
     7
420
 16777215
176
     1
 90
        1
176
     1
 90
        2
176
     1
 62
     7
176
     1
 62
   257
176
     1
 90
        2
176
     1
 90
        1
176
     1
 40
1.0
176
     1
 90
        8
176
     1
 62
   257
176
     1
 40
1.0
176
     1
 90
        1
176
     1
 90
        6
176
     1
 90
        2
176
     1
 62
     7
176
     1
 90
        3
176
     1
 90
        0
176
     1
 90
        0
176
     1
290
     0
176
     1
 90
        5
176
     1
 40
0.0
176
     1
 90
        0
176
     1
290
     0
176
     1
290
     1
176
     1
290
     1
176
     1
290
     0
176
     1
290
     0
176
     1
290
     0
176
     1
290
     0
176
     1
290
     0
176
     1
290
     0
176
     1
 90
       50
176
     1
 40
0.0
176
     1
 40
1.0
176
     1
 90
        0
176
     1
 62
    18
420
        0
176
     1
 90
       50
176
     1
 90
        3
176
     1
 62
     5
420
      255
176
     1
290
     0
176
     1
 90
       50
176
     1
 90
       50
176
     1
 90
       50
176
     1
290
     0
176
     1
 90
       50
176
     1
 62
   256
176
     0
 40
1.0
176
     0
 90
        2
176
     1
  1
strokes_ogs.tif
176
     1
290
     0
176
     1
 40
1.0
176
     1
 40
1.0
176
     1
1001
ACAD
1000
AcDbSavedByObjectVersion
1070
     0
  0
VISUALSTYLE
  5
3A
102
{ACAD_REACTORS
330
29
102
}
330
29
100
AcDbVisualStyle
  2
Shades of Gray
 70
    23
177
     3
291
     0
 70
    58
 90
        2
176
     1
 90
        2
176
     1
 90
        3
176
     1
 90
        0
176
     1
 40
0.6
176
     1
 40
30.0
176
     1
 62
     7
420
 16777215
176
     1
 90
        2
176
     1
 90
        2
176
     1
 62
     7
176
     1
 62
     7
176
     1
 90
        1
176
     1
 90
        1
176
     1
 40
40.0
176
     1
 90
        8
176
     1
 62
     7
176
     1
 40
1.0
176
     1
 90
        1
176
     1
 90
        6
176
     1
 90
        2
176
     1
 62
     7
176
     1
 90
        3
176
     1
 90
        0
176
     1
 90
        0
176
     1
290
     0
176
     1
 90
        1
176
     1
 40
0.0
176
     1
 90
        0
176
     1
290
     0
176
     1
290
     1
176
     1
290
     1
176
     1
290
     0
176
     1
290
     0
176
     1
290
     0
176
     1
290
     0
176
     1
290
     0
176
     1
290
     0
176
     1
 90
       50
176
     1
 40
0.0
176
     1
 40
1.0
176
     1
 90
        0
176
     1
 62
    18
420
        0
176
     1
 90
       50
176
     1
 90
        3
176
     1
 62
     5
420
      255
176
     1
290
     0
176
     1
 90
       50
176
     1
 90
       50
176
     1
 90
       50
176
     1
290
     0
176
     1
 90
       50
176
     1
 62
   256
176
     0
 40
1.0
176
     0
 90
        2
176
     1
  1
strokes_ogs.tif
176
     1
290
     0
176
     1
 40
1.0
176
     1
 40
1.0
176
     1
1001
ACAD
1000
AcDbSavedByObjectVersion
1070
     0
  0
VISUALSTYLE
  5
3B
102
{ACAD_REACTORS
330
29
102
}
330
29
100
AcDbVisualStyle
  2
Sketchy
 70
    24
177
     3
291
     0
 70
    58
 90
        1
176
     1
 90
        2
176
     1
 90
        2
176
     1
 90
        0
176
     1
 40
0.6
176
     1
 40
30.0
176
     1
 62
     7
420
 16777215
176
     1
 90
        2
176
     1
 90
        2
176
     1
 62
     7
176
     1
 62
     7
176
     1
 90
        1
176
     1
 90
        1
176
     1
 40
40.0
176
     1
 90
       11
176
     1
 62
     7
176
     1
 40
1.0
176
     1
 90
        1
176
     1
 90
        6
176
     1
 90
        2
176
     1
 62
     7
176
     1
 90
        6
176
     1
 90
        0
176
     1
 90
        0
176
     1
290
     0
176
     1
 90
        1
176
     1
 40
0.0
176
     1
 90
        0
176
     1
290
     0
176
     1
290
     1
176
     1
290
     1
176
     1
290
     0
176
     1
290
     0
176
     1
290
     0
176
     1
290
     0
176
     1
290
     0
176
     1
290
     0
176
     1
 90
       50
176
     1
 40
0.0
176
     1
 40
1.0
176
     1
 90
        0
176
     1
 62
    18
420
        0
176
     1
 90
       50
176
     1
 90
        3
176
     1
 62
     5
420
      255
176
     1
290
     0
176
     1
 90
       50
176
     1
 90
       50
176
     1
 90
       50
176
     1
290
     0
176
     1
 90
       50
176
     1
 62
   256
176
     0
 40
1.0
176
     0
 90
        2
176
     1
  1
strokes_ogs.tif
176
     1
290
     0
176
     1
 40
1.0
176
     1
 40
1.0
176
     1
1001
ACAD
1000
AcDbSavedByObjectVersion
1070
     0
  0
VISUALSTYLE
  5
36
102
{ACAD_REACTORS
330
29
102
}
330
29
100
AcDbVisualStyle
  2
Thicken
 70
    13
177
     3
291
     1
 70
    58
 90
        2
176
     1
 90
        2
176
     1
 90
        0
176
     1
 90
        0
176
     1
 40
0.6
176
     1
 40
30.0
176
     1
 62
     7
420
 16777215
176
     1
 90
        1
176
     1
 90
        4
176
     1
 62
     7
176
     1
 62
   257
176
     1
 90
        1
176
     1
 90
        1
176
     1
 40
1.0
176
     1
 90
       12
176
     1
 62
     7
176
     1
 40
1.0
176
     1
 90
        1
176
     1
 90
        6
176
     1
 90
        2
176
     1
 62
     7
176
     1
 90
        5
176
     1
 90
        0
176
     1
 90
        0
176
     1
290
     0
176
     1
 90
        1
176
     1
 40
0.0
176
     1
 90
        0
176
     1
290
     0
176
     1
290
     1
176
     1
290
     1
176
     1
290
     0
176
     1
290
     0
176
     1
290
     0
176
     1
290
     0
176
     1
290
     0
176
     1
290
     0
176
     1
 90
       50
176
     1
 40
0.0
176
     1
 40
1.0
176
     1
 90
        0
176
     1
 62
    18
420
        0
176
     1
 90
       50
176
     1
 90
        3
176
     1
 62
     5
420
      255
176
     1
290
     0
176
     1
 90
       50
176
     1
 90
       50
176
     1
 90
       50
176
     1
290
     0
176
     1
 90
       50
176
     1
 62
   256
176
     0
 40
1.0
176
     0
 90
        2
176
     1
  1
strokes_ogs.tif
176
     1
290
     0
176
     1
 40
1.0
176
     1
 40
1.0
176
     1
1001
ACAD
1000
AcDbSavedByObjectVersion
1070
     0
  0
VISUALSTYLE
  5
30
102
{ACAD_REACTORS
330
29
102
}
330
29
100
AcDbVisualStyle
  2
Wireframe
 70
     5
177
     3
291
     0
 70
    58
 90
        0
176
     1
 90
        2
176
     1
 90
        0
176
     1
 90
        0
176
     1
 40
0.6
176
     1
 40
30.0
176
     1
 62
     7
420
 16777215
176
     1
 90
        1
176
     1
 90
        4
176
     1
 62
     7
176
     1
 62
   257
176
     1
 90
        1
176
     1
 90
        1
176
     1
 40
1.0
176
     1
 90
        0
176
     1
 62
   257
176
     1
 40
1.0
176
     1
 90
        1
176
     1
 90
        6
176
     1
 90
        2
176
     1
 62
     7
176
     1
 90
        3
176
     1
 90
        0
176
     1
 90
        0
176
     1
290
     0
176
     1
 90
        1
176
     1
 40
0.0
176
     1
 90
        0
176
     1
290
     0
176
     1
290
     1
176
     1
290
     1
176
     1
290
     0
176
     1
290
     0
176
     1
290
     0
176
     1
290
     0
176
     1
290
     0
176
     1
290
     0
176
     1
 90
       50
176
     1
 40
0.0
176
     1
 40
1.0
176
     1
 90
        0
176
     1
 62
    18
420
        0
176
     1
 90
       50
176
     1
 90
        3
176
     1
 62
     5
420
      255
176
     1
290
     0
176
     1
 90
       50
176
     1
 90
       50
176
     1
 90
       50
176
     1
290
     0
176
     1
 90
       50
176
     1
 62
   256
176
     0
 40
1.0
176
     0
 90
        2
176
     1
  1
strokes_ogs.tif
176
     1
290
     0
176
     1
 40
1.0
176
     1
 40
1.0
176
     1
1001
ACAD
1000
AcDbSavedByObjectVersion
1070
     0
  0
VISUALSTYLE
  5
3C
102
{ACAD_REACTORS
330
29
102
}
330
29
100
AcDbVisualStyle
  2
X-Ray
 70
    25
177
     3
291
     0
 70
    58
 90
        2
176
     1
 90
        2
176
     1
 90
        1
176
     1
 90
        1
176
     1
 40
0.5
176
     1
 40
30.0
176
     1
 62
     7
420
 16777215
176
     1
 90
        1
176
     1
 90
        0
176
     1
 62
     7
176
     1
 62
   257
176
     1
 90
        1
176
     1
 90
        1
176
     1
 40
1.0
176
     1
 90
        8
176
     1
 62
     7
176
     1
 40
1.0
176
     1
 90
        1
176
     1
 90
        6
176
     1
 90
        2
176
     1
 62
     7
176
     1
 90
        3
176
     1
 90
        0
176
     1
 90
        0
176
     1
290
     0
176
     1
 90
       13
176
     1
 40
0.0
176
     1
 90
        0
176
     1
290
     0
176
     1
290
     1
176
     1
290
     1
176
     1
290
     0
176
     1
290
     0
176
     1
290
     0
176
     1
290
     0
176
     1
290
     0
176
     1
290
     0
176
     1
 90
       50
176
     1
 40
0.0
176
     1
 40
1.0
176
     1
 90
        0
176
     1
 62
    18
420
        0
176
     1
 90
       50
176
     1
 90
        3
176
     1
 62
     5
420
      255
176
     1
290
     0
176
     1
 90
       50
176
     1
 90
       50
176
     1
 90
       50
176
     1
290
     0
176
     1
 90
       50
176
     1
 62
   256
176
     0
 40
1.0
176
     0
 90
        2
176
     1
  1
strokes_ogs.tif
176
     1
290
     0
176
     1
 40
1.0
176
     1
 40
1.0
176
     1
1001
ACAD
1000
AcDbSavedByObjectVersion
1070
     0
  0
DICTIONARYVAR
  5
2FA
102
{ACAD_REACTORS
330
2F5
102
}
330
2F5
100
DictionaryVariables
280
     0
  1
0
  0
DICTIONARYVAR
  5
2FB
102
{ACAD_REACTORS
330
2F5
102
}
330
2F5
100
DictionaryVariables
280
     0
  1
1:1
  0
DICTIONARYVAR
  5
2F7
102
{ACAD_REACTORS
330
2F5
102
}
330
2F5
100
DictionaryVariables
280
     0
  1
STANDARD
  0
DICTIONARYVAR
  5
2F6
102
{ACAD_REACTORS
330
2F5
102
}
330
2F5
100
DictionaryVariables
280
     0
  1
STANDARD
  0
DICTIONARYVAR
  5
2F8
102
{ACAD_REACTORS
330
2F5
102
}
330
2F5
100
DictionaryVariables
280
     0
  1
Imperial24
  0
DICTIONARYVAR
  5
2F9
102
{ACAD_REACTORS
330
2F5
102
}
330
2F5
100
DictionaryVariables
280
     0
  1
Imperial24
  0
DICTIONARY
  5
301
330
6B
100
AcDbDictionary
280
     1
281
     1
  3
ACAD_XREC_ROUNDTRIP
360
302
  0
DICTIONARY
  5
1A
330
19
100
AcDbDictionary
280
     1
281
     1
  3
BUMPTILE
360
1C
  3
DIFFUSETILE
360
1B
  3
OPACITYTILE
360
1F
  3
REFLECTIONTILE
360
1E
  3
REFRACTIONTILE
360
20
  3
SPECULARTILE
360
1D
  0
DICTIONARY
  5
12
330
11
100
AcDbDictionary
280
     1
281
     1
  3
BUMPTILE
360
14
  3
DIFFUSETILE
360
13
  3
OPACITYTILE
360
17
  3
REFLECTIONTILE
360
16
  3
REFRACTIONTILE
360
18
  3
SPECULARTILE
360
15
  0
DICTIONARY
  5
22
330
21
100
AcDbDictionary
280
     1
281
     1
  3
BUMPTILE
360
24
  3
DIFFUSETILE
360
23
  3
OPACITYTILE
360
27
  3
REFLECTIONTILE
360
26
  3
REFRACTIONTILE
360
28
  3
SPECULARTILE
360
25
  0
DICTIONARY
  5
2FF
330
69
100
AcDbDictionary
280
     1
281
     1
  3
ACAD_XREC_ROUNDTRIP
360
300
  0
DICTIONARY
  5
2FC
330
65
100
AcDbDictionary
280
     1
281
     1
  3
ACAD_ROUNDTRIP_2008_TABLESTYLE_CELLSTYLEMAP
360
2FD
  0
XRECORD
  5
302
102
{ACAD_REACTORS
330
301
102
}
330
301
100
AcDbXrecord
280
     1
102
DISPLAYNAME
  1
Imperial24
102
FLAGS
 90
        0
  0
XRECORD
  5
1C
102
{ACAD_REACTORS
330
1A
102
}
330
1A
100
AcDbXrecord
280
     1
270
     1
271
     1
  0
XRECORD
  5
1B
102
{ACAD_REACTORS
330
1A
102
}
330
1A
100
AcDbXrecord
280
     1
270
     1
271
     1
  0
XRECORD
  5
1F
102
{ACAD_REACTORS
330
1A
102
}
330
1A
100
AcDbXrecord
280
     1
270
     1
271
     1
  0
XRECORD
  5
1E
102
{ACAD_REACTORS
330
1A
102
}
330
1A
100
AcDbXrecord
280
     1
270
     1
271
     1
  0
XRECORD
  5
20
102
{ACAD_REACTORS
330
1A
102
}
330
1A
100
AcDbXrecord
280
     1
270
     1
271
     1
  0
XRECORD
  5
1D
102
{ACAD_REACTORS
330
1A
102
}
330
1A
100
AcDbXrecord
280
     1
270
     1
271
     1
  0
XRECORD
  5
14
102
{ACAD_REACTORS
330
12
102
}
330
12
100
AcDbXrecord
280
     1
270
     1
271
     1
  0
XRECORD
  5
13
102
{ACAD_REACTORS
330
12
102
}
330
12
100
AcDbXrecord
280
     1
270
     1
271
     1
  0
XRECORD
  5
17
102
{ACAD_REACTORS
330
12
102
}
330
12
100
AcDbXrecord
280
     1
270
     1
271
     1
  0
XRECORD
  5
16
102
{ACAD_REACTORS
330
12
102
}
330
12
100
AcDbXrecord
280
     1
270
     1
271
     1
  0
XRECORD
  5
18
102
{ACAD_REACTORS
330
12
102
}
330
12
100
AcDbXrecord
280
     1
270
     1
271
     1
  0
XRECORD
  5
15
102
{ACAD_REACTORS
330
12
102
}
330
12
100
AcDbXrecord
280
     1
270
     1
271
     1
  0
XRECORD
  5
24
102
{ACAD_REACTORS
330
22
102
}
330
22
100
AcDbXrecord
280
     1
270
     1
271
     1
  0
XRECORD
  5
23
102
{ACAD_REACTORS
330
22
102
}
330
22
100
AcDbXrecord
280
     1
270
     1
271
     1
  0
XRECORD
  5
27
102
{ACAD_REACTORS
330
22
102
}
330
22
100
AcDbXrecord
280
     1
270
     1
271
     1
  0
XRECORD
  5
26
102
{ACAD_REACTORS
330
22
102
}
330
22
100
AcDbXrecord
280
     1
270
     1
271
     1
  0
XRECORD
  5
28
102
{ACAD_REACTORS
330
22
102
}
330
22
100
AcDbXrecord
280
     1
270
     1
271
     1
  0
XRECORD
  5
25
102
{ACAD_REACTORS
330
22
102
}
330
22
100
AcDbXrecord
280
     1
270
     1
271
     1
  0
XRECORD
  5
300
102
{ACAD_REACTORS
330
2FF
102
}
330
2FF
100
AcDbXrecord
280
     1
102
DISPLAYNAME
  1
Imperial24
102
FLAGS
 90
        0
  0
CELLSTYLEMAP
  5
2FD
102
{ACAD_REACTORS
330
2FC
102
}
330
2FC
100
AcDbCellStyleMap
 90
        3
300
CELLSTYLE
  1
TABLEFORMAT_BEGIN
 90
        5
170
     1
 91
        0
 92
    32768
 62
   257
 93
        1
300
CONTENTFORMAT
  1
CONTENTFORMAT_BEGIN
 90
        0
 91
        0
 92
      512
 93
        0
300

 40
0.0
140
1.0
 94
        5
 62
     0
340
55
144
0.25
309
CONTENTFORMAT_END
171
     1
301
MARGIN
  1
CELLMARGIN_BEGIN
 40
1.5
 40
1.5
 40
1.5
 40
1.5
 40
0.18
 40
0.18
309
CELLMARGIN_END
 94
        0
309
TABLEFORMAT_END
  1
CELLSTYLE_BEGIN
 90
        1
 91
        1
300
_TITLE
309
CELLSTYLE_END
300
CELLSTYLE
  1
TABLEFORMAT_BEGIN
 90
        5
170
     1
 91
        0
 92
        0
 62
   257
 93
        1
300
CONTENTFORMAT
  1
CONTENTFORMAT_BEGIN
 90
        0
 91
        0
 92
      512
 93
        0
300

 40
0.0
140
1.0
 94
        5
 62
     0
340
55
144
0.18
309
CONTENTFORMAT_END
171
     1
301
MARGIN
  1
CELLMARGIN_BEGIN
 40
1.5
 40
1.5
 40
1.5
 40
1.5
 40
0.18
 40
0.18
309
CELLMARGIN_END
 94
        0
309
TABLEFORMAT_END
  1
CELLSTYLE_BEGIN
 90
        2
 91
        1
300
_HEADER
309
CELLSTYLE_END
300
CELLSTYLE
  1
TABLEFORMAT_BEGIN
 90
        5
170
     1
 91
        0
 92
        0
 62
   257
 93
        1
300
CONTENTFORMAT
  1
CONTENTFORMAT_BEGIN
 90
        0
 91
        0
 92
      512
 93
        0
300

 40
0.0
140
1.0
 94
        2
 62
     0
340
55
144
0.18
309
CONTENTFORMAT_END
171
     1
301
MARGIN
  1
CELLMARGIN_BEGIN
 40
1.5
 40
1.5
 40
1.5
 40
1.5
 40
0.18
 40
0.18
309
CELLMARGIN_END
 94
        0
309
TABLEFORMAT_END
  1
CELLSTYLE_BEGIN
 90
        3
 91
        2
300
_DATA
309
CELLSTYLE_END
  0
ENDSEC
  0
EOF
